<svg xmlns="http://www.w3.org/2000/svg" xmlns:xlink="http://www.w3.org/1999/xlink" width="79.83" height="77.054" viewBox="0 0 79.83 77.054">
  <defs>
    <clipPath id="clip-path">
      <rect id="Rectangle_410685" data-name="Rectangle 410685" width="67" height="67" transform="translate(769.051 1898)" fill="#fff" stroke="#707070" stroke-width="1"/>
    </clipPath>
  </defs>
  <g id="Group_1209566" data-name="Group 1209566" transform="translate(-756.221 -1887.946)">
    <g id="Rectangle_410684" data-name="Rectangle 410684" transform="translate(756.221 1887.946)" fill="#e2dbf9" stroke="#b7a8f1" stroke-width="3">
      <rect width="70" height="70" rx="10" stroke="none"/>
      <rect x="1.5" y="1.5" width="67" height="67" rx="8.5" fill="none"/>
    </g>
    <g id="Mask_Group_1099338" data-name="Mask Group 1099338" clip-path="url(#clip-path)">
      <g id="add-task_14274019" transform="translate(769.051 1898)">
        <g id="Group_1210093" data-name="Group 1210093">
          <path id="Path_1281251" data-name="Path 1281251" d="M54.194,6.871V58.158A5.89,5.89,0,0,1,48.3,64.047H10.813a5.889,5.889,0,0,1-5.889-5.889V6.871A5.889,5.889,0,0,1,10.813.982H48.3A5.89,5.89,0,0,1,54.194,6.871Z" fill="#f8f8ff"/>
          <path id="Path_1281252" data-name="Path 1281252" d="M24.332,64.047H10.813a5.889,5.889,0,0,1-5.889-5.889V6.871A5.889,5.889,0,0,1,10.813.982H24.334a7.842,7.842,0,0,0-3.582,6.59V57.458A7.843,7.843,0,0,0,24.332,64.047Z" fill="#eeecff"/>
          <circle id="Ellipse_12633" data-name="Ellipse 12633" cx="2.956" cy="2.956" r="2.956" transform="translate(44.34 32.515)" fill="#ff758f"/>
          <path id="Path_1281253" data-name="Path 1281253" d="M38.427,34.478v1.987a1.964,1.964,0,0,1-1.963,1.963H20.751L19.2,35.471l1.556-2.956H36.464A1.964,1.964,0,0,1,38.427,34.478Z" fill="#60daa8"/>
          <path id="Path_1281254" data-name="Path 1281254" d="M8.864,36.464V34.478a1.964,1.964,0,0,1,1.963-1.963h9.924v5.913H10.827A1.964,1.964,0,0,1,8.864,36.464Z" fill="#00ce8e"/>
          <circle id="Ellipse_12634" data-name="Ellipse 12634" cx="2.956" cy="2.956" r="2.956" transform="translate(44.34 42.369)" fill="#ff758f"/>
          <path id="Path_1281255" data-name="Path 1281255" d="M38.427,44.331v1.987a1.963,1.963,0,0,1-1.963,1.963H20.751L18.839,45.56l1.912-3.192H36.464A1.964,1.964,0,0,1,38.427,44.331Z" fill="#60daa8"/>
          <path id="Path_1281256" data-name="Path 1281256" d="M8.864,46.318V44.331a1.964,1.964,0,0,1,1.963-1.963h9.924v5.913H10.827A1.963,1.963,0,0,1,8.864,46.318Z" fill="#00ce8e"/>
          <path id="Path_1281257" data-name="Path 1281257" d="M38.427,54.186v1.987a1.964,1.964,0,0,1-1.963,1.963H20.78l-1.941-2.173,1.912-3.74H36.464A1.963,1.963,0,0,1,38.427,54.186Z" fill="#60daa8"/>
          <path id="Path_1281258" data-name="Path 1281258" d="M20.78,58.136H10.827a1.964,1.964,0,0,1-1.963-1.963V54.186a1.963,1.963,0,0,1,1.963-1.963h9.924v5.235C20.751,57.686,20.761,57.912,20.78,58.136Z" fill="#00ce8e"/>
          <path id="Path_1281259" data-name="Path 1281259" d="M35.471,16.061v1.374a1.284,1.284,0,0,1-1.284,1.284,1.284,1.284,0,0,0-1.2.827c-.055.145-.115.289-.178.431a1.283,1.283,0,0,0,.259,1.437,1.284,1.284,0,0,1,0,1.817L32.1,24.2a1.285,1.285,0,0,1-1.815,0,1.285,1.285,0,0,0-1.438-.26c-.141.064-.284.123-.429.179a1.281,1.281,0,0,0-.828,1.2A1.283,1.283,0,0,1,26.3,26.6H24.929a1.283,1.283,0,0,1-1.283-1.283,1.281,1.281,0,0,0-.828-1.2,2.364,2.364,0,0,0-.961-.293,1.279,1.279,0,0,0-.907.374,1.227,1.227,0,0,1-.2.162l-1.946-7.418,1.946-7.813a1.227,1.227,0,0,1,.2.162,1.285,1.285,0,0,0,1.438.26c.141-.064.284-.123.429-.179a1.282,1.282,0,0,0,.828-1.2,1.283,1.283,0,0,1,1.283-1.283H26.3a1.283,1.283,0,0,1,1.283,1.283,1.281,1.281,0,0,0,.828,1.2,2.37,2.37,0,0,0,.961.293,1.279,1.279,0,0,0,.907-.374,1.284,1.284,0,0,1,1.815,0l.972.971a1.284,1.284,0,0,1,0,1.815,1.283,1.283,0,0,0-.26,1.438c.063.141.123.285.178.431a1.287,1.287,0,0,0,1.2.827A1.284,1.284,0,0,1,35.471,16.061Z" fill="#7293df"/>
          <path id="Path_1281260" data-name="Path 1281260" d="M15.763,17.435V16.061a1.284,1.284,0,0,1,1.284-1.284,1.284,1.284,0,0,0,1.2-.827c.055-.145.115-.289.178-.431a1.283,1.283,0,0,0-.259-1.437,1.284,1.284,0,0,1,0-1.817l.972-.971a1.284,1.284,0,0,1,1.616-.162V24.364a1.283,1.283,0,0,1-1.616-.162l-.972-.971a1.284,1.284,0,0,1,0-1.817,1.283,1.283,0,0,0,.259-1.437c-.063-.141-.123-.285-.178-.431a1.286,1.286,0,0,0-1.2-.827A1.284,1.284,0,0,1,15.763,17.435Z" fill="#4677d5"/>
          <circle id="Ellipse_12635" data-name="Ellipse 12635" cx="3.942" cy="3.942" r="3.942" transform="translate(21.675 12.806)" fill="#f8f8ff"/>
          <path id="Path_1281261" data-name="Path 1281261" d="M62.076,56.165a9.854,9.854,0,0,1-9.854,9.854c-.162,0-.325,0-.484-.012a9.8,9.8,0,0,1-5.429-1.959L45.1,51.965l6.353-5.625c.253-.02.509-.03.767-.03A9.854,9.854,0,0,1,62.076,56.165Z" fill="#fad989"/>
          <path id="Path_1281262" data-name="Path 1281262" d="M51.739,66.007a9.854,9.854,0,0,1-.283-19.667C49.5,49.273,44.942,57.836,51.739,66.007Z" fill="#fdc072"/>
          <path id="Path_1281263" data-name="Path 1281263" d="M41.383,26.6h0a1.971,1.971,0,0,1-1.971-1.971V19.7a.982.982,0,0,1,.982-.982h1.979a.982.982,0,0,1,.982.982v4.931A1.971,1.971,0,0,1,41.383,26.6Z" fill="#fad989"/>
          <path id="Path_1281264" data-name="Path 1281264" d="M41.383,11.821h0A1.971,1.971,0,0,1,39.412,9.85V7.876a.982.982,0,0,1,.982-.982h1.979a.982.982,0,0,1,.982.982V9.85A1.971,1.971,0,0,1,41.383,11.821Z" fill="#6e768f"/>
        </g>
        <g id="Group_1210094" data-name="Group 1210094">
          <path id="Path_1281265" data-name="Path 1281265" d="M4.924,14.038V6.871A5.889,5.889,0,0,1,10.813.982H48.3a5.89,5.89,0,0,1,5.889,5.889V46.352" fill="none" stroke="#000" stroke-linecap="round" stroke-linejoin="round" stroke-miterlimit="10" stroke-width="1.963"/>
          <path id="Path_1281266" data-name="Path 1281266" d="M4.924,18.618v39.54a5.889,5.889,0,0,0,5.889,5.889H46.06" fill="none" stroke="#000" stroke-linecap="round" stroke-linejoin="round" stroke-miterlimit="10" stroke-width="1.963"/>
          <path id="Path_1281267" data-name="Path 1281267" d="M35.471,17.435V16.061a1.284,1.284,0,0,0-1.284-1.284,1.283,1.283,0,0,1-1.2-.828q-.083-.218-.179-.43a1.285,1.285,0,0,1,.26-1.438,1.284,1.284,0,0,0,0-1.816L32.1,9.294a1.284,1.284,0,0,0-1.815,0,1.285,1.285,0,0,1-1.439.261q-.212-.1-.43-.179a1.283,1.283,0,0,1-.828-1.2A1.284,1.284,0,0,0,26.3,6.894H24.929a1.284,1.284,0,0,0-1.284,1.284,1.283,1.283,0,0,1-.828,1.2q-.218.083-.43.179a1.285,1.285,0,0,1-1.438-.26,1.284,1.284,0,0,0-1.816,0l-.972.972a1.284,1.284,0,0,0,0,1.815,1.285,1.285,0,0,1,.261,1.439q-.1.212-.179.43a1.283,1.283,0,0,1-1.2.828,1.284,1.284,0,0,0-1.284,1.284v1.374a1.284,1.284,0,0,0,1.284,1.284,1.283,1.283,0,0,1,1.2.828q.083.218.179.43a1.285,1.285,0,0,1-.26,1.438,1.284,1.284,0,0,0,0,1.816l.972.972a1.284,1.284,0,0,0,1.815,0,1.285,1.285,0,0,1,1.439-.261q.212.1.43.179a1.283,1.283,0,0,1,.828,1.2A1.284,1.284,0,0,0,24.93,26.6H26.3a1.284,1.284,0,0,0,1.284-1.284,1.283,1.283,0,0,1,.828-1.2q.218-.083.43-.179a1.285,1.285,0,0,1,1.438.26,1.284,1.284,0,0,0,1.816,0l.972-.972a1.284,1.284,0,0,0,0-1.815,1.285,1.285,0,0,1-.261-1.439q.1-.212.179-.43a1.283,1.283,0,0,1,1.2-.828A1.284,1.284,0,0,0,35.471,17.435Z" fill="none" stroke="#000" stroke-linecap="round" stroke-linejoin="round" stroke-miterlimit="10" stroke-width="1.963"/>
          <circle id="Ellipse_12636" data-name="Ellipse 12636" cx="3.942" cy="3.942" r="3.942" transform="translate(21.675 12.806)" fill="none" stroke="#000" stroke-linecap="round" stroke-linejoin="round" stroke-miterlimit="10" stroke-width="1.963"/>
          <circle id="Ellipse_12637" data-name="Ellipse 12637" cx="2.956" cy="2.956" r="2.956" transform="translate(44.34 32.515)" fill="none" stroke="#000" stroke-linecap="round" stroke-linejoin="round" stroke-miterlimit="10" stroke-width="1.963"/>
          <path id="Path_1281268" data-name="Path 1281268" d="M10.828,38.427H36.464a1.963,1.963,0,0,0,1.963-1.963V34.478a1.963,1.963,0,0,0-1.963-1.963H10.828a1.963,1.963,0,0,0-1.963,1.963v1.986A1.963,1.963,0,0,0,10.828,38.427Z" fill="none" stroke="#000" stroke-linecap="round" stroke-linejoin="round" stroke-miterlimit="10" stroke-width="1.963"/>
          <path id="Path_1281269" data-name="Path 1281269" d="M50.05,46.4a2.956,2.956,0,1,0-3.759,1.711" fill="none" stroke="#000" stroke-linecap="round" stroke-linejoin="round" stroke-miterlimit="10" stroke-width="1.963"/>
          <path id="Path_1281270" data-name="Path 1281270" d="M34.751,42.368h1.713a1.964,1.964,0,0,1,1.963,1.963v1.987a1.963,1.963,0,0,1-1.963,1.963H10.827a1.963,1.963,0,0,1-1.963-1.963V44.331a1.964,1.964,0,0,1,1.963-1.963H30.171" fill="none" stroke="#000" stroke-linecap="round" stroke-linejoin="round" stroke-miterlimit="10" stroke-width="1.963"/>
          <path id="Path_1281271" data-name="Path 1281271" d="M10.828,58.135H36.464a1.963,1.963,0,0,0,1.963-1.963V54.186a1.963,1.963,0,0,0-1.963-1.963H10.828a1.963,1.963,0,0,0-1.963,1.963v1.986A1.963,1.963,0,0,0,10.828,58.135Z" fill="none" stroke="#000" stroke-linecap="round" stroke-linejoin="round" stroke-miterlimit="10" stroke-width="1.963"/>
          <path id="Path_1281272" data-name="Path 1281272" d="M61.325,59.945a9.866,9.866,0,1,0-2.7,3.712" fill="none" stroke="#000" stroke-linecap="round" stroke-linejoin="round" stroke-miterlimit="10" stroke-width="1.963"/>
          <line id="Line_736" data-name="Line 736" y2="11.825" transform="translate(52.223 50.252)" fill="none" stroke="#000" stroke-linecap="round" stroke-linejoin="round" stroke-miterlimit="10" stroke-width="1.963"/>
          <line id="Line_737" data-name="Line 737" x1="11.825" transform="translate(46.31 56.164)" fill="none" stroke="#000" stroke-linecap="round" stroke-linejoin="round" stroke-miterlimit="10" stroke-width="1.963"/>
          <line id="Line_738" data-name="Line 738" y1="6.493" transform="translate(41.383 12.024)" fill="none" stroke="#000" stroke-linecap="round" stroke-linejoin="round" stroke-miterlimit="10" stroke-width="1.963"/>
          <path id="Path_1281273" data-name="Path 1281273" d="M41.383,26.6a1.971,1.971,0,0,1-1.971-1.971V19.7a.982.982,0,0,1,.982-.982h1.979a.982.982,0,0,1,.982.982v4.931A1.971,1.971,0,0,1,41.383,26.6Z" fill="none" stroke="#000" stroke-linecap="round" stroke-linejoin="round" stroke-miterlimit="10" stroke-width="1.963"/>
          <path id="Path_1281274" data-name="Path 1281274" d="M41.383,11.821A1.971,1.971,0,0,1,39.412,9.85V7.876a.982.982,0,0,1,.982-.982h1.979a.982.982,0,0,1,.982.982V9.85A1.971,1.971,0,0,1,41.383,11.821Z" fill="none" stroke="#000" stroke-linecap="round" stroke-linejoin="round" stroke-miterlimit="10" stroke-width="1.963"/>
        </g>
      </g>
    </g>
  </g>
</svg>
