<svg xmlns="http://www.w3.org/2000/svg" xmlns:xlink="http://www.w3.org/1999/xlink" width="79.83" height="77.054" viewBox="0 0 79.83 77.054">
  <defs>
    <clipPath id="clip-path">
      <rect id="Rectangle_410685" data-name="Rectangle 410685" width="67" height="67" transform="translate(769.051 1898)" fill="#fff" stroke="#707070" stroke-width="1"/>
    </clipPath>
  </defs>
  <g id="Group_1209562" data-name="Group 1209562" transform="translate(-756.221 -1887.946)">
    <g id="Rectangle_410684" data-name="Rectangle 410684" transform="translate(756.221 1887.946)" fill="#e2dbf9" stroke="#b7a8f1" stroke-width="3">
      <rect width="70" height="70" rx="10" stroke="none"/>
      <rect x="1.5" y="1.5" width="67" height="67" rx="8.5" fill="none"/>
    </g>
    <g id="Mask_Group_1099341" data-name="Mask Group 1099341" clip-path="url(#clip-path)">
      <g id="crisis-management_13496170" transform="translate(766.815 1895.765)">
        <g id="Group_1210117" data-name="Group 1210117">
          <path id="Path_1281313" data-name="Path 1281313" d="M38.364,30.566l.877.345a2.131,2.131,0,0,1,2.906.04l1.141,1.1a2.131,2.131,0,0,1,.148,2.9l.377.863a2.124,2.124,0,0,1,2.025,2.1h0l.026,1.585h0a2.135,2.135,0,0,1-1.951,2.14l-.345.877a2.131,2.131,0,0,1-.04,2.906l-1.112,1.153,0,0a2.136,2.136,0,0,1-2.894.133l-.863.377a2.125,2.125,0,0,1-2.086,2.025L35,49.143A2.125,2.125,0,0,1,32.841,47.2l-.877-.345a2.131,2.131,0,0,1-2.906-.04l-1.141-1.1a2.131,2.131,0,0,1-.148-2.9l-.376-.863a2.125,2.125,0,0,1-2.025-2.086l-.029-1.585a2.124,2.124,0,0,1,1.948-2.153l.345-.877a2.129,2.129,0,0,1,.052-2.919l0,0,1.09-1.127a2.131,2.131,0,0,1,2.9-.148l.863-.376a2.125,2.125,0,0,1,2.1-2.025v0l1.585-.026v0a2.135,2.135,0,0,1,2.14,1.951Zm-2.828,5.527v0a2.793,2.793,0,0,0,.121,5.584l.014,0v0A2.8,2.8,0,0,0,38.4,38.828l0-.014h0a2.8,2.8,0,0,0-2.845-2.725Z" fill="#121209" fill-rule="evenodd"/>
          <path id="Path_1281314" data-name="Path 1281314" d="M56.882,47.588,65.668,62.8a4.186,4.186,0,0,1,0,4.284,4.27,4.27,0,0,1-1.561,1.58v0a4.269,4.269,0,0,1-2.15.566H44.386a4.269,4.269,0,0,1-2.15-.566v0a4.387,4.387,0,0,1-2.151-3.72,4.269,4.269,0,0,1,.59-2.143l8.786-15.217h0a4.272,4.272,0,0,1,1.56-1.577v0a4.36,4.36,0,0,1,4.3,0v0a4.27,4.27,0,0,1,1.56,1.577Z" fill="#121209" fill-rule="evenodd"/>
          <path id="Path_1281315" data-name="Path 1281315" d="M23.235,30.892v.54a2.469,2.469,0,0,1-2.347,2.555H17.306a2.468,2.468,0,0,1-2.347-2.555v-.54a2.559,2.559,0,0,1-1.624-2.43V27.306a3.228,3.228,0,0,1-1.321-2.6c0-6.521-3.745-5.032-3.745-11.639a10.829,10.829,0,1,1,21.657,0c0,6.606-3.745,5.118-3.745,11.639a3.228,3.228,0,0,1-1.321,2.6c0,1.11.125,2.03-.65,2.915a2.338,2.338,0,0,1-.974.671Z" fill="#121209" fill-rule="evenodd"/>
        </g>
        <path id="Path_1281316" data-name="Path 1281316" d="M59.735,56.088l-4.393-7.612a2.63,2.63,0,0,0-.913-.926,2.5,2.5,0,0,0-1.258-.322,2.563,2.563,0,0,0-1.262.322,2.63,2.63,0,0,0-.909.93L42.215,63.7a2.446,2.446,0,0,0,0,2.507,2.421,2.421,0,0,0,2.171,1.249H61.957A2.5,2.5,0,0,0,64.128,63.7Zm-7.455-1.94a.892.892,0,1,1,1.783,0v6.288a.892.892,0,1,1-1.783,0Zm0,9a.892.892,0,1,1,.261.632.892.892,0,0,1-.261-.632Z" fill="#db9831" fill-rule="evenodd"/>
        <path id="Path_1281317" data-name="Path 1281317" d="M59.735,56.088l-4.393-7.612a2.63,2.63,0,0,0-.913-.926,2.5,2.5,0,0,0-1.258-.322,2.563,2.563,0,0,0-1.262.322,2.63,2.63,0,0,0-.909.93L44.863,59.11A46.186,46.186,0,0,0,52.9,62.3a.893.893,0,0,1,.937.263A46.547,46.547,0,0,0,64.33,64.137a2.569,2.569,0,0,0-.2-.44Zm-7.455-1.94a.892.892,0,1,1,1.783,0v6.288a.892.892,0,1,1-1.783,0Z" fill="#f2ab47" fill-rule="evenodd"/>
        <path id="Path_1281318" data-name="Path 1281318" d="M25.493,6.668a9.046,9.046,0,0,0-15.441,6.4c0,5.829,3.745,4.428,3.745,11.639a1.451,1.451,0,0,0,1.447,1.446h7.707A1.451,1.451,0,0,0,24.4,24.7c0-7.211,3.745-5.81,3.745-11.639a9.018,9.018,0,0,0-2.649-6.4Z" fill="#d9a45b" fill-rule="evenodd"/>
        <path id="Path_1281319" data-name="Path 1281319" d="M25.493,6.668a9,9,0,0,0-4.118-2.359,46.8,46.8,0,0,0-1.152,21.839h2.728A1.451,1.451,0,0,0,24.4,24.7c0-7.211,3.745-5.81,3.745-11.639a9.018,9.018,0,0,0-2.649-6.4Z" fill="#f4b664" fill-rule="evenodd"/>
        <path id="Path_1281320" data-name="Path 1281320" d="M15.118,27.93a1.607,1.607,0,0,0,.2,1.121.487.487,0,0,0,.359.181h6.831c.339,0,.564-.4.564-.771V27.93l-.126,0H15.244l-.126,0Z" fill="#b0b0b2" fill-rule="evenodd"/>
        <path id="Path_1281321" data-name="Path 1281321" d="M20.9,29.233h1.611c.339,0,.564-.4.564-.771V27.93l-.126,0H20.589c.1.436.2.87.312,1.3Z" fill="#cbcacd" fill-rule="evenodd"/>
        <path id="Path_1281322" data-name="Path 1281322" d="M16.742,31.016a1.388,1.388,0,0,0,.2,1,.488.488,0,0,0,.359.181h3.582c.338,0,.564-.4.564-.771v-.416Z" fill="#e6e4e5" fill-rule="evenodd"/>
        <path id="Path_1281323" data-name="Path 1281323" d="M38.158,32.384a6.952,6.952,0,0,0-.878-.28h0a.889.889,0,0,1-.676-.849l-.013-.534h0a.345.345,0,0,0-.37-.321v0l-1.585.032v0a.345.345,0,0,0-.321.37h0l.008.435a.891.891,0,0,1-.643.942A6.78,6.78,0,0,0,32,32.905h0a.89.89,0,0,1-1.076-.121c-.216-.208-.407-.463-.625-.459a.342.342,0,0,0-.241.105l-1.11,1.155h0a.341.341,0,0,0,.033.489l0,0,.362.349a.889.889,0,0,1,.16,1.072,7.038,7.038,0,0,0-.671,1.71h0a.888.888,0,0,1-.849.676l-.52.009a.353.353,0,0,0-.339.356l.029,1.585a.353.353,0,0,0,.356.339l.449-.008a.891.891,0,0,1,.942.643,6.772,6.772,0,0,0,.734,1.684h0a.889.889,0,0,1-.121,1.075c-.208.217-.463.407-.459.625a.343.343,0,0,0,.105.24l1.14,1.1a.347.347,0,0,0,.49-.008l.361-.375a.889.889,0,0,1,1.072-.161,7.036,7.036,0,0,0,1.71.671h0a.888.888,0,0,1,.676.849l.009.52a.353.353,0,0,0,.356.339l1.585-.029a.353.353,0,0,0,.339-.356l-.008-.449a.891.891,0,0,1,.643-.942,6.773,6.773,0,0,0,1.684-.734h0a.89.89,0,0,1,1.075.121l.388.372h0a.342.342,0,0,0,.489-.033h0l1.089-1.129a.347.347,0,0,0-.008-.49l-.375-.361a.889.889,0,0,1-.16-1.072,7.042,7.042,0,0,0,.671-1.71h0a.889.889,0,0,1,.849-.676l.534-.013v0a.346.346,0,0,0,.321-.37h0l-.032-1.585h0a.345.345,0,0,0-.37-.321v0l-.435.008a.891.891,0,0,1-.942-.643,6.768,6.768,0,0,0-.734-1.684h0A.89.89,0,0,1,41.7,34.2c.208-.216.463-.407.459-.625a.342.342,0,0,0-.105-.24l-1.141-1.1a.347.347,0,0,0-.49.008l-.361.375a.889.889,0,0,1-1.072.161,6.959,6.959,0,0,0-.832-.391ZM35.535,34.31v0A4.566,4.566,0,0,1,40.171,38.8l0,.014h0a4.567,4.567,0,0,1-4.487,4.635l-.014,0v0a4.569,4.569,0,1,1-.148-9.137Z" fill="#6c9bb5" fill-rule="evenodd"/>
        <path id="Path_1281324" data-name="Path 1281324" d="M64.547,40.909A.89.89,0,1,1,65.654,42.3l-3.285,2.6a.89.89,0,0,1-1.25-.143l-2.6-3.285a.89.89,0,1,1,1.393-1.108l1.354,1.708a25.868,25.868,0,0,0-20.4-28.517.889.889,0,1,1,.355-1.742A27.65,27.65,0,0,1,63.238,38.881,28.066,28.066,0,0,1,63.05,42.1Z" fill="#121209" fill-rule="evenodd"/>
        <path id="Path_1281325" data-name="Path 1281325" d="M6.659,36.854a.89.89,0,1,1-1.108-1.393l3.285-2.6a.89.89,0,0,1,1.25.143l2.6,3.285A.89.89,0,1,1,11.3,37.392L9.944,35.684A25.868,25.868,0,0,0,30.341,64.2a.889.889,0,0,1-.355,1.742A27.65,27.65,0,0,1,7.967,38.881a28.1,28.1,0,0,1,.188-3.214Z" fill="#121209" fill-rule="evenodd"/>
      </g>
    </g>
  </g>
</svg>
