<svg xmlns="http://www.w3.org/2000/svg" xmlns:xlink="http://www.w3.org/1999/xlink" width="79.83" height="77.054" viewBox="0 0 79.83 77.054">
  <defs>
    <clipPath id="clip-path">
      <rect id="Rectangle_410685" data-name="Rectangle 410685" width="67" height="67" transform="translate(769.051 1898)" fill="#fff" stroke="#707070" stroke-width="1"/>
    </clipPath>
  </defs>
  <g id="Group_1209561" data-name="Group 1209561" transform="translate(-756.221 -1887.946)">
    <g id="Rectangle_410684" data-name="Rectangle 410684" transform="translate(756.221 1887.946)" fill="#e2dbf9" stroke="#b7a8f1" stroke-width="3">
      <rect width="70" height="70" rx="10" stroke="none"/>
      <rect x="1.5" y="1.5" width="67" height="67" rx="8.5" fill="none"/>
    </g>
    <g id="Mask_Group_1099342" data-name="Mask Group 1099342" clip-path="url(#clip-path)">
      <g id="test_1465427" transform="translate(770.131 1898)">
        <path id="Path_1281326" data-name="Path 1281326" d="M63.758,34.581v6.484l-4.279,1.07A27.774,27.774,0,0,1,56.9,48.369l2.269,3.782L49.99,61.327l-3.782-2.269a27.774,27.774,0,0,1-6.235,2.583L38.9,65.919H32.419V57.274a22.593,22.593,0,0,0,15.81-6.43l1.481-1.588a22.6,22.6,0,0,0,5.4-14.675Zm0,0" fill="#fcd770"/>
        <path id="Path_1281327" data-name="Path 1281327" d="M9.726,34.581A22.691,22.691,0,0,0,32.419,57.274v8.645H25.935l-1.07-4.279a27.774,27.774,0,0,1-6.235-2.583l-3.782,2.269L5.673,52.152l2.269-3.782A27.774,27.774,0,0,1,5.36,42.135l-4.279-1.07V34.581Zm0,0" fill="#fcd770"/>
        <g id="Group_1210118" data-name="Group 1210118">
          <path id="Path_1281328" data-name="Path 1281328" d="M50.79,1.081V7.132L42.534,1.351a1.533,1.533,0,0,0-.854-.27Zm0,0" fill="#e6e9ed"/>
          <path id="Path_1281329" data-name="Path 1281329" d="M44.306,33.5v1.081a11.887,11.887,0,1,1-23.774,0h8.645V30.258H44.306Zm0,0" fill="#e6e9ed"/>
          <path id="Path_1281330" data-name="Path 1281330" d="M29.177,18.371H39.984v2.81a4.313,4.313,0,0,0,.951,2.7l2.421,3.026a4.307,4.307,0,0,1,.929,2.269c.011.14.022.292.022.432v.648H29.177V23.774H18.371V34.581H14.048V1.081H41.475a1.494,1.494,0,0,0-1.491,1.491,1.479,1.479,0,0,0,.508,1.113l8.137,7.121v3.242H44.306V10.806a3.237,3.237,0,0,0-3.242-3.242,1.084,1.084,0,0,0-1.081,1.081v5.4H29.177V5.4H18.371V16.21h8.645Zm0,0" fill="#e6e9ed"/>
        </g>
        <path id="Path_1281331" data-name="Path 1281331" d="M50.79,33.5v.594c0,10.3-8.429,19.052-18.717,18.858A18.383,18.383,0,0,1,14.048,34.581h6.484a11.887,11.887,0,1,0,23.774,0V33.5Zm0,0" fill="#5cd6b3"/>
        <path id="Path_1281332" data-name="Path 1281332" d="M50.79,29.177V33.5H44.306V29.61c0-.14-.011-.292-.022-.432Zm0,0" fill="#37bc9b"/>
        <path id="Path_1281333" data-name="Path 1281333" d="M52.952,9.769v4.279H48.629V10.806L40.492,3.685a1.479,1.479,0,0,1-.508-1.113,1.494,1.494,0,0,1,1.491-1.491h.205a1.533,1.533,0,0,1,.854.27L50.79,7.132,52.033,8a2.186,2.186,0,0,1,.919,1.772Zm0,0" fill="#f0d0b4"/>
        <path id="Path_1281334" data-name="Path 1281334" d="M59.435,14.048A2.168,2.168,0,0,1,61.6,16.21a2.176,2.176,0,0,1-2.161,2.161H44.306V14.048Zm0,0" fill="#fcd770"/>
        <path id="Path_1281335" data-name="Path 1281335" d="M39.984,14.048v4.323H29.177L27.016,16.21l2.161-2.161Zm0,0" fill="#fcd770"/>
        <path id="Path_1281336" data-name="Path 1281336" d="M44.306,18.371h8.645v2.54a4.249,4.249,0,0,1-.227,1.372l-1.707,5.144A4.249,4.249,0,0,0,50.79,28.8v.378H44.285a4.307,4.307,0,0,0-.929-2.269l-2.421-3.026a4.313,4.313,0,0,1-.951-2.7V8.645a1.084,1.084,0,0,1,1.081-1.081,3.237,3.237,0,0,1,3.242,3.242Zm0,0" fill="#f0d0b4"/>
        <path id="Path_1281337" data-name="Path 1281337" d="M29.177,24.855v9.726H18.371V23.774H29.177Zm0,0" fill="#ff826e"/>
        <path id="Path_1281338" data-name="Path 1281338" d="M18.371,16.21V5.4H29.177v8.645L27.016,16.21Zm0,0" fill="#ff826e"/>
        <path id="Path_1281339" data-name="Path 1281339" d="M31.339,60.516H33.5v2.161H31.339Zm0,0"/>
        <path id="Path_1281340" data-name="Path 1281340" d="M49.994,53.684l1.528-1.528,1.529,1.528-1.529,1.528Zm0,0"/>
        <path id="Path_1281341" data-name="Path 1281341" d="M11.787,53.684l1.528-1.528,1.528,1.528-1.528,1.528Zm0,0"/>
        <path id="Path_1281342" data-name="Path 1281342" d="M32.047,54.029q.179,0,.357,0A19.051,19.051,0,0,0,45.81,48.466,20.264,20.264,0,0,0,51.871,34.1V28.8a3.266,3.266,0,0,1,.165-1.025l1.72-5.154a5.406,5.406,0,0,0,.276-1.709v-1.46h5.4a3.242,3.242,0,0,0,0-6.484h-5.4V9.77a3.248,3.248,0,0,0-1.383-2.656l-.9-.63h.122V0h-38.9V34.581a19.547,19.547,0,0,0,19.08,19.448Zm13.34-23.771H49.71v2.161H45.387Zm6.484-9.346a3.266,3.266,0,0,1-.165,1.025l-1.72,5.154a5.374,5.374,0,0,0-.221,1.007H45.152a5.412,5.412,0,0,0-.949-1.86L41.776,23.2a3.251,3.251,0,0,1-.711-2.025V8.645a2.163,2.163,0,0,1,2.161,2.161v9.726h2.161V19.452h6.484Zm-4.323-7.944H45.387V10.806a4.3,4.3,0,0,0-.358-1.714l2.519,2.2ZM60.516,16.21a1.081,1.081,0,0,1-1.081,1.081H45.387V15.129H59.435A1.081,1.081,0,0,1,60.516,16.21ZM49.71,5.057l-4.137-2.9H49.71Zm-8.034-2.9a.409.409,0,0,1,.234.073l9.5,6.65a1.083,1.083,0,0,1,.463.886v3.2H49.71V10.316L41.2,2.874a.406.406,0,0,1,.267-.712Zm-26.547,0H38.944a2.512,2.512,0,0,0-.041.406A2.568,2.568,0,0,0,39.781,4.5l2.485,2.175a4.276,4.276,0,0,0-1.2-.191A2.163,2.163,0,0,0,38.9,8.645v4.323H30.258V10.806H28.1V13.6l-1.528,1.528H19.452V6.484h3.242V4.323h-5.4V17.29h9.278l2.161,2.161H38.9v1.726a5.431,5.431,0,0,0,1.185,3.376l2.427,3.035a3.245,3.245,0,0,1,.711,2.024v4.968a10.806,10.806,0,0,1-21.558,1.081h8.59V29.177H28.1V33.5H19.452V24.855h3.242V22.694h-5.4V35.661h2.216a12.963,12.963,0,0,0,25.881-1.081h4.3A18.1,18.1,0,0,1,44.3,46.923,16.9,16.9,0,0,1,32.4,51.871c-.1,0-.208,0-.314,0A17.373,17.373,0,0,1,15.129,34.581ZM38.9,17.29H29.625L28.544,16.21l1.081-1.081H38.9Zm0,0"/>
        <path id="Path_1281343" data-name="Path 1281343" d="M20.849,10.49l2.925,2.925L32.1,5.087,30.575,3.559l-6.8,6.8-1.4-1.4Zm0,0"/>
        <path id="Path_1281344" data-name="Path 1281344" d="M20.849,28.861l2.925,2.925L32.1,23.458l-1.528-1.528-6.8,6.8-1.4-1.4Zm0,0"/>
        <path id="Path_1281345" data-name="Path 1281345" d="M32.419,29.177h8.645v2.161H32.419Zm0,0"/>
        <path id="Path_1281346" data-name="Path 1281346" d="M32.419,33.5h8.645v2.161H32.419Zm0,0"/>
        <path id="Path_1281347" data-name="Path 1281347" d="M30.258,37.823H38.9v2.161H30.258Zm0,0"/>
        <path id="Path_1281348" data-name="Path 1281348" d="M25.935,37.823H28.1v2.161H25.935Zm0,0"/>
        <path id="Path_1281349" data-name="Path 1281349" d="M64.839,41.908V33.5H54.032v1.081a21.613,21.613,0,0,1-5.147,13.981l1.646,1.4a23.789,23.789,0,0,0,5.638-14.3h6.509v4.559l-4.07,1.017-.167.606a26.761,26.761,0,0,1-2.488,6l-.309.549,2.16,3.6-7.978,7.978-3.6-2.16-.549.309a26.821,26.821,0,0,1-6,2.488l-.606.167-1.016,4.068H26.779l-1.017-4.07-.606-.167a26.762,26.762,0,0,1-6-2.488l-.549-.309-3.6,2.16L7.035,51.988l2.16-3.6-.309-.549a26.821,26.821,0,0,1-2.488-6l-.167-.605-4.07-1.017V35.661H8.669A23.762,23.762,0,0,0,48.985,51.616l-1.508-1.55A21.6,21.6,0,0,1,10.806,34.581V33.5H0v8.408l4.494,1.123A29.013,29.013,0,0,0,6.7,48.35L4.314,52.324,14.676,62.686,18.649,60.3a28.983,28.983,0,0,0,5.319,2.2L25.092,67H39.747l1.123-4.494a29.014,29.014,0,0,0,5.319-2.2l3.973,2.384L60.524,52.324,58.14,48.35a28.983,28.983,0,0,0,2.2-5.319Zm0,0"/>
      </g>
    </g>
  </g>
</svg>
