<svg xmlns="http://www.w3.org/2000/svg" xmlns:xlink="http://www.w3.org/1999/xlink" width="79.83" height="77.054" viewBox="0 0 79.83 77.054">
  <defs>
    <clipPath id="clip-path">
      <rect id="Rectangle_410685" data-name="Rectangle 410685" width="67" height="67" transform="translate(769.051 1898)" fill="#fff" stroke="#707070" stroke-width="1"/>
    </clipPath>
  </defs>
  <g id="Group_1209596" data-name="Group 1209596" transform="translate(-756.221 -1887.946)">
    <g id="Rectangle_410684" data-name="Rectangle 410684" transform="translate(756.221 1887.946)" fill="#e2dbf9" stroke="#b7a8f1" stroke-width="3">
      <rect width="70" height="70" rx="10" stroke="none"/>
      <rect x="1.5" y="1.5" width="67" height="67" rx="8.5" fill="none"/>
    </g>
    <g id="Mask_Group_1099343" data-name="Mask Group 1099343" clip-path="url(#clip-path)">
      <g id="reports_9540631" transform="translate(767.97 1896.919)">
        <path id="Path_1281350" data-name="Path 1281350" d="M46.661,12.138v.494a.946.946,0,0,1-.946.946H24.767a.946.946,0,0,1-.946-.946v-.494H17.79v15.7l.193-.126a.946.946,0,0,1,1.185.125L21.626,30.3a.945.945,0,0,1,.124,1.183l-.928,1.429.47,1.137,1.669.356a.946.946,0,0,1,.748.925v3.481a.945.945,0,0,1-.75.925l-1.667.352-.47,1.14.928,1.429a.945.945,0,0,1-.124,1.183L19.168,46.3a.945.945,0,0,1-1.185.125L17.79,46.3v8.611h6.142a.946.946,0,0,1,.946.946V62H52.692V12.139H46.661Z" fill="#eaecef"/>
        <path id="Path_1281351" data-name="Path 1281351" d="M55.916,6.055H46.661V5.56a.946.946,0,0,0-.946-.946H39.622a4.483,4.483,0,0,0-8.763,0H24.767a.946.946,0,0,0-.946.946v.494H14.566a2.863,2.863,0,0,0-2.86,2.86V25.751H10.657a.946.946,0,0,0-.925.748l-.356,1.67-1.137.472-1.432-.931a.946.946,0,0,0-1.185.125L3.164,30.3a.945.945,0,0,0-.124,1.183l.928,1.429L3.5,34.047,1.829,34.4a.945.945,0,0,0-.748.925v3.481a.945.945,0,0,0,.75.925l1.668.352.47,1.14-.928,1.429a.945.945,0,0,0,.124,1.183L5.623,46.3a.945.945,0,0,0,1.185.125l1.432-.931,1.137.472.356,1.67a.946.946,0,0,0,.925.748h1.049V65.221a2.863,2.863,0,0,0,2.86,2.86h41.35a2.863,2.863,0,0,0,2.86-2.86V8.915a2.864,2.864,0,0,0-2.86-2.86Zm-30.2.451H31.7a.946.946,0,0,0,.946-.946,2.591,2.591,0,0,1,5.181,0,.946.946,0,0,0,.946.946H44.77v5.181H25.712Zm20,7.072a.946.946,0,0,0,.946-.946v-.494h6.031V62H24.878V55.855a.946.946,0,0,0-.946-.946H17.79V46.3l.193.126a.946.946,0,0,0,1.185-.125l2.458-2.462a.945.945,0,0,0,.124-1.183l-.928-1.429.47-1.14,1.667-.352a.946.946,0,0,0,.75-.925V35.327a.946.946,0,0,0-.748-.925l-1.669-.356-.47-1.137.928-1.429a.945.945,0,0,0-.124-1.183l-2.458-2.462a.945.945,0,0,0-1.185-.125l-.193.126v-15.7h6.031v.494a.946.946,0,0,0,.946.946ZM22.986,60.659,19.127,56.8h3.859Zm-5.2-2.522L21.649,62H17.79ZM13.6,8.915a.97.97,0,0,1,.969-.969h9.255v2.3H16.845a.946.946,0,0,0-.946.946V28.371l-.485-.2-.356-1.67a.945.945,0,0,0-.925-.748H13.6V8.915ZM11.122,45.086a.946.946,0,0,0-.562-.676L8.5,43.556a.946.946,0,0,0-.878.081l-1.207.784L5.043,43.042l.782-1.2a.945.945,0,0,0,.081-.876l-.85-2.06a.946.946,0,0,0-.679-.564l-1.406-.3V36.092l1.407-.3a.946.946,0,0,0,.677-.564l.85-2.056a.946.946,0,0,0-.081-.876l-.782-1.2,1.376-1.378,1.207.784a.946.946,0,0,0,.878.081l2.056-.854a.946.946,0,0,0,.562-.676l.3-1.407h1.946l.3,1.407a.945.945,0,0,0,.562.676l2.056.854a.946.946,0,0,0,.878-.081l1.207-.784,1.376,1.378-.782,1.2a.946.946,0,0,0-.081.876l.85,2.056a.945.945,0,0,0,.677.564l1.407.3v1.949l-1.406.3a.945.945,0,0,0-.679.564l-.85,2.06a.945.945,0,0,0,.081.876l.782,1.2L18.372,44.42l-1.207-.784a.946.946,0,0,0-.878-.081l-2.056.854a.945.945,0,0,0-.562.676l-.3,1.407H11.422ZM56.885,65.22a.97.97,0,0,1-.969.969H14.566a.97.97,0,0,1-.969-.969V48.384h.536a.946.946,0,0,0,.925-.748l.356-1.67.485-.2V62.942a.946.946,0,0,0,.946.946H53.638a.946.946,0,0,0,.946-.946V11.193a.946.946,0,0,0-.946-.946H46.661v-2.3h9.255a.97.97,0,0,1,.969.969V65.22ZM17.79,37.066A5.395,5.395,0,1,0,12.4,42.46,5.4,5.4,0,0,0,17.79,37.066Zm-8.9,0a3.507,3.507,0,0,1,2.815-3.432V40.5A3.51,3.51,0,0,1,8.892,37.066ZM13.6,40.357V33.778a3.5,3.5,0,0,1,0,6.579Zm8.646,7.955a.946.946,0,0,1,.946-.946h5.028a.946.946,0,1,1,0,1.891H23.189A.946.946,0,0,1,22.244,48.311Zm26.041,0a.946.946,0,0,1-.946.946H30.832a.946.946,0,1,1,0-1.891H47.339A.946.946,0,0,1,48.284,48.311Zm0,3.645a.946.946,0,0,1-.946.946h-24.2a.946.946,0,1,1,0-1.891h24.2A.946.946,0,0,1,48.284,51.957Zm0,3.641a.946.946,0,0,1-.946.946H42.311a.946.946,0,0,1,0-1.891h5.028A.946.946,0,0,1,48.284,55.6ZM24.56,19.785a.946.946,0,0,1,1.891,0V40.673H47.339a.946.946,0,0,1,0,1.891H26.451v1.417a.946.946,0,1,1-1.891,0V42.564H23.143a.946.946,0,1,1,0-1.891H24.56Zm2.665,19.444V37.05a.946.946,0,1,1,1.891,0v2.179a.946.946,0,0,1-1.891,0Zm3.411-6.13a.946.946,0,0,1,.946.946v5.185a.946.946,0,0,1-1.891,0V34.045A.946.946,0,0,1,30.637,33.1Zm2.466.4a.946.946,0,0,1,.946.946v4.783a.946.946,0,0,1-1.891,0V34.447A.945.945,0,0,1,33.1,33.5Zm2.466-2.137a.946.946,0,0,1,.946.946v6.919a.946.946,0,0,1-1.891,0V32.31A.946.946,0,0,1,35.568,31.364Zm3.411,2.443v5.422a.946.946,0,0,1-1.891,0V33.807a.946.946,0,1,1,1.891,0Zm2.466-3.695v9.117a.946.946,0,0,1-1.891,0V30.112a.946.946,0,1,1,1.891,0Zm1.52,1.723a.946.946,0,0,1,.946.946v6.448a.946.946,0,0,1-1.891,0V32.781A.946.946,0,0,1,42.966,31.835Zm3.412-4.522V39.229a.946.946,0,0,1-1.891,0V27.313a.946.946,0,1,1,1.891,0Zm-18.871,4.6a.946.946,0,0,1-.009-1.337l2.688-2.722a.946.946,0,0,1,.673-.281h3.364l3.609-3.613a.946.946,0,0,1,.669-.277h2.446l2.2-2.2H42.1a.946.946,0,1,1,0-1.891h3.331c.031,0,.063,0,.094,0l.04.006.051.008.046.011.044.011.044.015.043.016.04.019.044.021.037.022.042.025.039.029.036.026c.021.018.042.036.062.056l.007.006.008.008c.019.019.038.04.055.061l.028.037c.009.012.019.024.027.037s.018.029.027.044l.021.035c.008.015.015.03.022.046s.012.025.018.038.011.03.016.045.011.028.015.042.008.031.012.046.008.029.011.044.006.036.008.054,0,.025.005.037q0,.047,0,.094v3.331a.946.946,0,1,1-1.891,0V22.818L42.008,25.3a.946.946,0,0,1-.669.277H38.894l-3.609,3.613a.946.946,0,0,1-.669.277H31.254l-2.411,2.441a.945.945,0,0,1-1.337.009Zm1.929-8.09L29.2,25.436a.946.946,0,0,0,1.353.984l1.463-.718,1.464.718a.946.946,0,0,0,1.352-.986l-.235-1.61,1.138-1.17a.946.946,0,0,0-.517-1.591l-1.605-.277-.759-1.441a.946.946,0,0,0-.836-.5h0a.945.945,0,0,0-.836.5l-.763,1.443-1.606.277a.946.946,0,0,0-.517,1.591ZM31.2,22.57a.945.945,0,0,0,.675-.49l.143-.27.141.269a.945.945,0,0,0,.676.491l.3.051-.213.219a.945.945,0,0,0-.258.8l.043.295-.268-.132a.946.946,0,0,0-.833,0l-.272.133.043-.3a.946.946,0,0,0-.258-.794l-.213-.219Zm33.76-9.332a3.124,3.124,0,0,0-3.12,3.12V55.276a.945.945,0,0,0,.088.4L64.1,60.35a.946.946,0,0,0,1.715,0l2.175-4.675a.944.944,0,0,0,.088-.4V16.358a3.124,3.124,0,0,0-3.12-3.12Zm0,1.891a1.231,1.231,0,0,1,1.229,1.229v2.6H63.731v-2.6a1.231,1.231,0,0,1,1.229-1.229Zm-1.229,39.2V23.568h2.458V54.331H63.731Zm0-32.654v-.831h2.458v.831Zm.537,34.545h1.384L64.96,57.71Z"/>
        <path id="Path_1281352" data-name="Path 1281352" d="M22.986,56.8H19.127l3.859,3.859Z" fill="#d3dce2"/>
        <path id="Path_1281353" data-name="Path 1281353" d="M17.79,62h3.859L17.79,58.138Z" fill="#eaecef"/>
        <path id="Path_1281354" data-name="Path 1281354" d="M31.374,23.634l-.043.3L31.6,23.8a.946.946,0,0,1,.833,0l.268.132-.043-.295a.946.946,0,0,1,.258-.8l.213-.219-.3-.051a.946.946,0,0,1-.676-.491l-.141-.269-.143.27a.945.945,0,0,1-.675.49l-.3.051.213.219A.946.946,0,0,1,31.374,23.634Z" fill="#ffd54d"/>
        <g id="Group_1210119" data-name="Group 1210119">
          <path id="Path_1281355" data-name="Path 1281355" d="M15.058,26.5l.356,1.67.485.2V11.193a.946.946,0,0,1,.946-.946h6.977v-2.3H14.566a.97.97,0,0,0-.969.969V25.751h.536a.946.946,0,0,1,.925.748Z" fill="#bacace"/>
          <path id="Path_1281356" data-name="Path 1281356" d="M64.96,57.71l.692-1.488H64.268Z" fill="#bacace"/>
          <path id="Path_1281357" data-name="Path 1281357" d="M55.916,7.946H46.661v2.3h6.977a.946.946,0,0,1,.946.946V62.942a.946.946,0,0,1-.946.946H16.845a.946.946,0,0,1-.946-.946V45.764l-.485.2-.356,1.67a.945.945,0,0,1-.925.748H13.6V65.221a.97.97,0,0,0,.969.969h41.35a.97.97,0,0,0,.969-.969V8.915a.97.97,0,0,0-.969-.969Z" fill="#bacace"/>
          <path id="Path_1281358" data-name="Path 1281358" d="M13.6,33.778v6.579a3.5,3.5,0,0,0,0-6.579Z" fill="#bacace"/>
        </g>
        <path id="Path_1281359" data-name="Path 1281359" d="M63.731,23.568h2.458V54.331H63.731Z" fill="#ffd54d"/>
        <path id="Path_1281360" data-name="Path 1281360" d="M64.96,15.129a1.231,1.231,0,0,0-1.229,1.229v2.6h2.459v-2.6a1.231,1.231,0,0,0-1.229-1.229Z" fill="#ff8ccc"/>
        <path id="Path_1281361" data-name="Path 1281361" d="M63.731,20.846h2.458v.831H63.731Z" fill="#bacace"/>
        <path id="Path_1281362" data-name="Path 1281362" d="M44.77,6.506H38.777a.946.946,0,0,1-.946-.946,2.591,2.591,0,0,0-5.181,0,.946.946,0,0,1-.946.946H25.713v5.181H44.77V6.506Z" fill="#ffd54d"/>
        <path id="Path_1281363" data-name="Path 1281363" d="M14.231,44.409l2.056-.854a.946.946,0,0,1,.878.081l1.207.784,1.376-1.378-.782-1.2a.945.945,0,0,1-.081-.876l.85-2.06a.946.946,0,0,1,.679-.564l1.406-.3V36.093l-1.407-.3a.945.945,0,0,1-.677-.564l-.85-2.056a.946.946,0,0,1,.081-.876l.782-1.2-1.376-1.378-1.207.784a.946.946,0,0,1-.878.081l-2.056-.854a.945.945,0,0,1-.562-.676l-.3-1.407H11.422l-.3,1.407a.946.946,0,0,1-.562.676L8.5,30.58a.946.946,0,0,1-.878-.081l-1.207-.784L5.043,31.093l.782,1.2a.946.946,0,0,1,.081.876l-.85,2.056a.946.946,0,0,1-.677.564l-1.407.3v1.949l1.406.3a.945.945,0,0,1,.679.564l.85,2.06a.945.945,0,0,1-.081.876l-.782,1.2,1.376,1.378,1.207-.784a.946.946,0,0,1,.878-.081l2.056.854a.946.946,0,0,1,.562.676l.3,1.407h1.946l.3-1.407A.945.945,0,0,1,14.231,44.409ZM12.4,42.46a5.393,5.393,0,1,1,5.395-5.395A5.4,5.4,0,0,1,12.4,42.46Z" fill="#8c93ba"/>
      </g>
    </g>
  </g>
</svg>
