<svg xmlns="http://www.w3.org/2000/svg" xmlns:xlink="http://www.w3.org/1999/xlink" width="100" height="100" viewBox="0 0 100 100">
  <defs>
    <clipPath id="clip-path">
      <rect id="Rectangle_412380" data-name="Rectangle 412380" width="100" height="100" transform="translate(335.781 4440)" fill="#fff" stroke="#707070" stroke-width="1"/>
    </clipPath>
  </defs>
  <g id="Mask_Group_1099279" data-name="Mask Group 1099279" transform="translate(-335.781 -4440)" clip-path="url(#clip-path)">
    <g id="Group_1203656" data-name="Group 1203656" transform="translate(-470.656 2458.387)">
      <g id="Rectangle_412379" data-name="Rectangle 412379" transform="translate(806.951 1984)" fill="#b7a8f1" stroke="#7f74a8" stroke-width="3">
        <rect width="79.44" height="79.44" rx="10" stroke="none"/>
        <rect x="1.5" y="1.5" width="76.44" height="76.44" rx="8.5" fill="none"/>
      </g>
      <g id="calculation_7650833" transform="translate(819.449 1996.643)">
        <g id="Group_1203652" data-name="Group 1203652" transform="translate(0 0)">
          <g id="Group_1203612" data-name="Group 1203612" transform="translate(1.02 1.02)">
            <g id="Group_1203570" data-name="Group 1203570" transform="translate(9.426)">
              <path id="Path_1243252" data-name="Path 1243252" d="M62.713,4.05H24.14L8.73,19.46V62.1h6.692a12.579,12.579,0,1,1,9.616,20.687h26.6a5.439,5.439,0,0,1-5.44-5.44v-38.3a5.439,5.439,0,0,1,5.44-5.44H65.488V6.825A2.786,2.786,0,0,0,62.713,4.05Z" transform="translate(-8.73 -4.05)" fill="#e2e2e2"/>
            </g>
            <g id="Group_1203571" data-name="Group 1203571" transform="translate(34.139 0)" opacity="0.3">
              <path id="Path_1243253" data-name="Path 1243253" d="M56.211,4.05H26.9V24.261A21.37,21.37,0,0,0,48.268,45.629H58.931V6.77a2.719,2.719,0,0,0-2.72-2.72Z" transform="translate(-26.9 -4.05)" fill="#fff"/>
            </g>
            <g id="Group_1203572" data-name="Group 1203572" transform="translate(39.784 0)" opacity="0.5">
              <path id="Path_1243254" data-name="Path 1243254" d="M54.716,4.05H31.05a4.284,4.284,0,0,0,4.284,4.284H53.669v6.2A3.767,3.767,0,0,0,57.436,18.3V6.77a2.719,2.719,0,0,0-2.72-2.72Z" transform="translate(-31.05 -4.05)" fill="#fff"/>
            </g>
            <g id="Group_1203581" data-name="Group 1203581" transform="translate(0 48.371)">
              <g id="Group_1203573" data-name="Group 1203573" transform="translate(7.934 0)">
                <circle id="Ellipse_12578" data-name="Ellipse 12578" cx="12.581" cy="12.581" r="12.581" transform="translate(0 17.79) rotate(-45)" fill="#ffab03"/>
              </g>
              <g id="Group_1203574" data-name="Group 1203574" transform="translate(0 23.485)">
                <path id="Path_1243255" data-name="Path 1243255" d="M16.313,56.88H3.065A1.263,1.263,0,0,0,1.8,58.145v4.366a1.263,1.263,0,0,0,1.265,1.265H24.324a1.348,1.348,0,0,0,.721-.245A12.608,12.608,0,0,1,16.313,56.88Z" transform="translate(-1.8 -56.88)" fill="#ffab03"/>
              </g>
              <g id="Group_1203575" data-name="Group 1203575" transform="translate(0 16.589)">
                <path id="Path_1243256" data-name="Path 1243256" d="M14.939,53.021a11.814,11.814,0,0,1,.068-1.211H3.065A1.263,1.263,0,0,0,1.8,53.075v4.366a1.263,1.263,0,0,0,1.265,1.265H16.313A12.528,12.528,0,0,1,14.939,53.021Z" transform="translate(-1.8 -51.81)" fill="#ffab03"/>
              </g>
              <g id="Group_1203576" data-name="Group 1203576" transform="translate(5.06 9.68)">
                <path id="Path_1243257" data-name="Path 1243257" d="M16.578,46.73H6.785A1.263,1.263,0,0,0,5.52,47.995v4.366a1.263,1.263,0,0,0,1.265,1.265h6.882a12.506,12.506,0,0,1,2.911-6.9Z" transform="translate(-5.52 -46.73)" fill="#ffab03"/>
              </g>
              <g id="Group_1203577" data-name="Group 1203577" transform="translate(9.725 9.68)" opacity="0.3">
                <path id="Path_1243258" data-name="Path 1243258" d="M15.343,46.73H8.95v2.135a1.263,1.263,0,0,0,1.265,1.265h3.074a12.746,12.746,0,0,1,2.054-3.4Z" transform="translate(-8.95 -46.73)" fill="#fff"/>
              </g>
              <g id="Group_1203578" data-name="Group 1203578" transform="translate(4.665 16.589)" opacity="0.3">
                <path id="Path_1243259" data-name="Path 1243259" d="M13.7,53.021a11.814,11.814,0,0,1,.068-1.211H5.23v2.135A1.263,1.263,0,0,0,6.495,55.21h7.413A12.983,12.983,0,0,1,13.7,53.021Z" transform="translate(-5.23 -51.81)" fill="#fff"/>
              </g>
              <g id="Group_1203579" data-name="Group 1203579" transform="translate(4.665 23.485)" opacity="0.3">
                <path id="Path_1243260" data-name="Path 1243260" d="M15.077,56.88H5.23v2.135A1.263,1.263,0,0,0,6.495,60.28h11.1a12.911,12.911,0,0,1-2.516-3.4Z" transform="translate(-5.23 -56.88)" fill="#fff"/>
              </g>
              <g id="Group_1203580" data-name="Group 1203580" transform="translate(19.273 5.218)" opacity="0.3">
                <path id="Path_1243261" data-name="Path 1243261" d="M22.431,43.45a12.757,12.757,0,0,0-5.291,1.17,12.576,12.576,0,0,0,16.7,16.7A12.576,12.576,0,0,0,22.431,43.45Z" transform="translate(-15.97 -43.45)" fill="#fff"/>
              </g>
            </g>
            <g id="Group_1203582" data-name="Group 1203582" transform="translate(46.897 29.555)">
              <path id="Path_1243262" data-name="Path 1243262" d="M68.814,25.78H41.72a5.439,5.439,0,0,0-5.44,5.44V69.535a5.439,5.439,0,0,0,5.44,5.44H68.814a5.439,5.439,0,0,0,5.44-5.44V31.22a5.439,5.439,0,0,0-5.44-5.44Z" transform="translate(-36.28 -25.78)" fill="#4e6575"/>
            </g>
            <g id="Group_1203583" data-name="Group 1203583" transform="translate(60.498 29.555)" opacity="0.3">
              <path id="Path_1243263" data-name="Path 1243263" d="M65.213,25.78H46.28V57.294a5.439,5.439,0,0,0,5.44,5.44H70.653V31.22a5.439,5.439,0,0,0-5.44-5.44Z" transform="translate(-46.28 -25.78)" fill="#e2e2e2"/>
            </g>
            <g id="Group_1203584" data-name="Group 1203584" transform="translate(52.338 34.996)">
              <path id="Path_1243264" data-name="Path 1243264" d="M40.28,29.78H67.387V39.3H40.28Z" transform="translate(-40.28 -29.78)" fill="#7cb5e8"/>
            </g>
            <g id="Group_1203585" data-name="Group 1203585" transform="translate(59.138 34.996)" opacity="0.3">
              <path id="Path_1243265" data-name="Path 1243265" d="M45.28,31.14a4.075,4.075,0,0,0,4.08,4.08H65.573V29.78H45.28Z" transform="translate(-45.28 -29.78)" fill="#fff"/>
            </g>
            <g id="Group_1203586" data-name="Group 1203586" transform="translate(52.338 49.957)">
              <path id="Path_1243266" data-name="Path 1243266" d="M40.28,40.78h6.311v5.06H40.28Z" transform="translate(-40.28 -40.78)" fill="#ef4a51"/>
            </g>
            <g id="Group_1203587" data-name="Group 1203587" transform="translate(62.729 49.957)">
              <path id="Path_1243267" data-name="Path 1243267" d="M47.92,40.78h6.311v5.06H47.92Z" transform="translate(-47.92 -40.78)" fill="#ef4a51"/>
            </g>
            <g id="Group_1203588" data-name="Group 1203588" transform="translate(73.12 49.957)">
              <path id="Path_1243268" data-name="Path 1243268" d="M55.56,40.78h6.311v5.06H55.56Z" transform="translate(-55.56 -40.78)" fill="#ef4a51"/>
            </g>
            <g id="Group_1203589" data-name="Group 1203589" transform="translate(52.338 59.097)">
              <path id="Path_1243269" data-name="Path 1243269" d="M40.28,47.5h6.311v5.06H40.28Z" transform="translate(-40.28 -47.5)" fill="#ef4a51"/>
            </g>
            <g id="Group_1203590" data-name="Group 1203590" transform="translate(62.729 59.097)">
              <path id="Path_1243270" data-name="Path 1243270" d="M47.92,47.5h6.311v5.06H47.92Z" transform="translate(-47.92 -47.5)" fill="#ef4a51"/>
            </g>
            <g id="Group_1203591" data-name="Group 1203591" transform="translate(73.12 59.097)">
              <path id="Path_1243271" data-name="Path 1243271" d="M55.56,47.5h6.311v5.06H55.56Z" transform="translate(-55.56 -47.5)" fill="#ef4a51"/>
            </g>
            <g id="Group_1203592" data-name="Group 1203592" transform="translate(52.338 68.237)">
              <path id="Path_1243272" data-name="Path 1243272" d="M40.28,54.22h6.311v5.06H40.28Z" transform="translate(-40.28 -54.22)" fill="#ef4a51"/>
            </g>
            <g id="Group_1203593" data-name="Group 1203593" transform="translate(62.729 68.237)">
              <path id="Path_1243273" data-name="Path 1243273" d="M47.92,54.22h6.311v5.06H47.92Z" transform="translate(-47.92 -54.22)" fill="#ef4a51"/>
            </g>
            <g id="Group_1203594" data-name="Group 1203594" transform="translate(73.12 68.237)">
              <path id="Path_1243274" data-name="Path 1243274" d="M55.56,54.22h6.311v5.06H55.56Z" transform="translate(-55.56 -54.22)" fill="#ef4a51"/>
            </g>
            <g id="Group_1203595" data-name="Group 1203595" transform="translate(40.804 5.25)">
              <path id="Path_1243275" data-name="Path 1243275" d="M41.321,7.91a9.521,9.521,0,1,0,9.521,9.521H41.321Z" transform="translate(-31.8 -7.91)" fill="#8aba55"/>
            </g>
            <g id="Group_1203596" data-name="Group 1203596" transform="translate(50.325 5.25)">
              <path id="Path_1243276" data-name="Path 1243276" d="M38.8,7.91v9.521h9.521A9.531,9.531,0,0,0,38.8,7.91Z" transform="translate(-38.8 -7.91)" fill="#ffab03"/>
            </g>
            <g id="Group_1203597" data-name="Group 1203597" transform="translate(44.789 5.25)" opacity="0.3">
              <path id="Path_1243277" data-name="Path 1243277" d="M40.266,7.91a9.392,9.392,0,0,0-4.434,1.1A9.525,9.525,0,0,0,48.685,21.878,9.543,9.543,0,0,0,40.266,7.91Z" transform="translate(-34.73 -7.91)" fill="#fff"/>
            </g>
            <g id="Group_1203598" data-name="Group 1203598" transform="translate(9.426 0)">
              <path id="Path_1243278" data-name="Path 1243278" d="M21.379,19.46A2.763,2.763,0,0,0,24.14,16.7V4.05L8.73,19.46Z" transform="translate(-8.73 -4.05)" fill="#5e7588"/>
            </g>
            <g id="Group_1203599" data-name="Group 1203599" transform="translate(22.524 78.506)">
              <path id="Path_1243279" data-name="Path 1243279" d="M18.36,62.015h3.21a12.459,12.459,0,0,1-2.489-.245A1.348,1.348,0,0,1,18.36,62.015Z" transform="translate(-18.36 -61.77)" fill="#e2e2e2"/>
            </g>
            <g id="Group_1203609" data-name="Group 1203609" transform="translate(54.024 49.957)" opacity="0.3">
              <g id="Group_1203600" data-name="Group 1203600" transform="translate(20.783)">
                <path id="Path_1243280" data-name="Path 1243280" d="M56.8,41.025a2.728,2.728,0,0,0,2.72,2.72h1.9V40.78H56.8Z" transform="translate(-56.8 -40.78)" fill="#fff"/>
              </g>
              <g id="Group_1203601" data-name="Group 1203601" transform="translate(20.783 9.14)">
                <path id="Path_1243281" data-name="Path 1243281" d="M56.8,47.745a2.728,2.728,0,0,0,2.72,2.72h1.9V47.5H56.8Z" transform="translate(-56.8 -47.5)" fill="#fff"/>
              </g>
              <g id="Group_1203602" data-name="Group 1203602" transform="translate(20.783 18.294)">
                <path id="Path_1243282" data-name="Path 1243282" d="M56.8,54.475a2.728,2.728,0,0,0,2.72,2.72h1.9V54.23H56.8Z" transform="translate(-56.8 -54.23)" fill="#fff"/>
              </g>
              <g id="Group_1203603" data-name="Group 1203603" transform="translate(10.391)">
                <path id="Path_1243283" data-name="Path 1243283" d="M49.16,41.025a2.728,2.728,0,0,0,2.72,2.72h1.9V40.78H49.16Z" transform="translate(-49.16 -40.78)" fill="#fff"/>
              </g>
              <g id="Group_1203604" data-name="Group 1203604" transform="translate(10.391 9.14)">
                <path id="Path_1243284" data-name="Path 1243284" d="M49.16,47.745a2.728,2.728,0,0,0,2.72,2.72h1.9V47.5H49.16Z" transform="translate(-49.16 -47.5)" fill="#fff"/>
              </g>
              <g id="Group_1203605" data-name="Group 1203605" transform="translate(10.391 18.294)">
                <path id="Path_1243285" data-name="Path 1243285" d="M49.16,54.475a2.728,2.728,0,0,0,2.72,2.72h1.9V54.23H49.16Z" transform="translate(-49.16 -54.23)" fill="#fff"/>
              </g>
              <g id="Group_1203606" data-name="Group 1203606">
                <path id="Path_1243286" data-name="Path 1243286" d="M41.52,41.025a2.728,2.728,0,0,0,2.72,2.72h1.9V40.78H41.52Z" transform="translate(-41.52 -40.78)" fill="#fff"/>
              </g>
              <g id="Group_1203607" data-name="Group 1203607" transform="translate(0 9.14)">
                <path id="Path_1243287" data-name="Path 1243287" d="M41.52,47.745a2.728,2.728,0,0,0,2.72,2.72h1.9V47.5H41.52Z" transform="translate(-41.52 -47.5)" fill="#fff"/>
              </g>
              <g id="Group_1203608" data-name="Group 1203608" transform="translate(0 18.294)">
                <path id="Path_1243288" data-name="Path 1243288" d="M41.52,54.475a2.728,2.728,0,0,0,2.72,2.72h1.9V54.23H41.52Z" transform="translate(-41.52 -54.23)" fill="#fff"/>
              </g>
            </g>
            <g id="Group_1203610" data-name="Group 1203610" transform="translate(16.362 0)" opacity="0.3">
              <path id="Path_1243289" data-name="Path 1243289" d="M21.841,18.222A2.792,2.792,0,0,0,22.3,16.7V4.05L13.83,12.524A10.253,10.253,0,0,0,21.841,18.222Z" transform="translate(-13.83 -4.05)" fill="#e2e2e2"/>
            </g>
            <g id="Group_1203611" data-name="Group 1203611" transform="translate(66.673 29.542)" opacity="0.5">
              <path id="Path_1243290" data-name="Path 1243290" d="M63.578,25.77H50.82a2.949,2.949,0,0,0,2.951,2.951h9.915a2.728,2.728,0,0,1,2.72,2.72v4.271a2.6,2.6,0,0,0,2.6,2.6V31.2a5.416,5.416,0,0,0-5.427-5.427Z" transform="translate(-50.82 -25.77)" fill="#fff"/>
            </g>
          </g>
          <g id="Group_1203651" data-name="Group 1203651">
            <g id="Group_1203613" data-name="Group 1203613" transform="translate(9.426 0)">
              <path id="Path_1243291" data-name="Path 1243291" d="M9,60.67a1.028,1.028,0,0,1-1.02-1.02V19.73a1.019,1.019,0,0,1,.3-.721L23.689,3.6a1.019,1.019,0,0,1,.721-.3H62.983a3.791,3.791,0,0,1,3.781,3.781v18.77a1.02,1.02,0,1,1-2.04,0V7.095a1.744,1.744,0,0,0-1.741-1.741H24.832L10.02,20.152v39.5A1.01,1.01,0,0,1,9,60.67Z" transform="translate(-7.98 -3.3)"/>
            </g>
            <g id="Group_1203614" data-name="Group 1203614" transform="translate(66.17 25.217)">
              <path id="Path_1243292" data-name="Path 1243292" d="M50.72,28.219A1.028,1.028,0,0,1,49.7,27.2V22.86a1.02,1.02,0,1,1,2.04,0V27.2A1.019,1.019,0,0,1,50.72,28.219Z" transform="translate(-49.7 -21.84)"/>
            </g>
            <g id="Group_1203615" data-name="Group 1203615" transform="translate(34.425 78.751)">
              <path id="Path_1243293" data-name="Path 1243293" d="M45.293,63.24H27.38a1.02,1.02,0,0,1,0-2.04H45.293a1.02,1.02,0,0,1,0,2.04Z" transform="translate(-26.36 -61.2)"/>
            </g>
            <g id="Group_1203616" data-name="Group 1203616" transform="translate(46.897 29.555)">
              <path id="Path_1243294" data-name="Path 1243294" d="M69.084,76.266H41.991a6.466,6.466,0,0,1-6.461-6.461V43.256a1.02,1.02,0,0,1,2.04,0v26.55a4.429,4.429,0,0,0,4.42,4.42H69.084a4.429,4.429,0,0,0,4.42-4.42V31.491a4.429,4.429,0,0,0-4.42-4.42H41.991a4.429,4.429,0,0,0-4.42,4.42V39a1.02,1.02,0,0,1-2.04,0V31.491a6.466,6.466,0,0,1,6.461-6.461H69.084a6.466,6.466,0,0,1,6.461,6.461V69.805a6.466,6.466,0,0,1-6.461,6.461Z" transform="translate(-35.53 -25.03)"/>
            </g>
            <g id="Group_1203617" data-name="Group 1203617" transform="translate(9.426)">
              <path id="Path_1243295" data-name="Path 1243295" d="M21.649,20.75H9a1.02,1.02,0,0,1,0-2.04H21.649a1.744,1.744,0,0,0,1.741-1.741V4.32a1.02,1.02,0,0,1,2.04,0V16.969A3.782,3.782,0,0,1,21.649,20.75Z" transform="translate(-7.98 -3.3)"/>
            </g>
            <g id="Group_1203618" data-name="Group 1203618" transform="translate(52.338 34.996)">
              <path id="Path_1243296" data-name="Path 1243296" d="M67.644,40.591H40.55a1.028,1.028,0,0,1-1.02-1.02V30.05a1.028,1.028,0,0,1,1.02-1.02H67.644a1.028,1.028,0,0,1,1.02,1.02v9.521a1.019,1.019,0,0,1-1.02,1.02ZM41.57,38.551H66.624V31.07H41.57Z" transform="translate(-39.53 -29.03)"/>
            </g>
            <g id="Group_1203619" data-name="Group 1203619" transform="translate(52.338 49.957)">
              <path id="Path_1243297" data-name="Path 1243297" d="M46.861,47.13H40.55a1.028,1.028,0,0,1-1.02-1.02V41.05a1.028,1.028,0,0,1,1.02-1.02h6.311a1.028,1.028,0,0,1,1.02,1.02v5.06A1.028,1.028,0,0,1,46.861,47.13ZM41.57,45.09h4.271V42.07H41.57Z" transform="translate(-39.53 -40.03)"/>
            </g>
            <g id="Group_1203620" data-name="Group 1203620" transform="translate(62.729 49.957)">
              <path id="Path_1243298" data-name="Path 1243298" d="M54.5,47.13H48.19a1.028,1.028,0,0,1-1.02-1.02V41.05a1.028,1.028,0,0,1,1.02-1.02H54.5a1.028,1.028,0,0,1,1.02,1.02v5.06A1.019,1.019,0,0,1,54.5,47.13ZM49.21,45.09h4.271V42.07H49.21Z" transform="translate(-47.17 -40.03)"/>
            </g>
            <g id="Group_1203621" data-name="Group 1203621" transform="translate(73.12 49.957)">
              <path id="Path_1243299" data-name="Path 1243299" d="M62.141,47.13H55.83a1.028,1.028,0,0,1-1.02-1.02V41.05a1.028,1.028,0,0,1,1.02-1.02h6.311a1.028,1.028,0,0,1,1.02,1.02v5.06A1.019,1.019,0,0,1,62.141,47.13ZM56.85,45.09h4.271V42.07H56.85Z" transform="translate(-54.81 -40.03)"/>
            </g>
            <g id="Group_1203622" data-name="Group 1203622" transform="translate(52.338 59.097)">
              <path id="Path_1243300" data-name="Path 1243300" d="M46.861,53.85H40.55a1.028,1.028,0,0,1-1.02-1.02V47.77a1.028,1.028,0,0,1,1.02-1.02h6.311a1.028,1.028,0,0,1,1.02,1.02v5.06A1.019,1.019,0,0,1,46.861,53.85ZM41.57,51.81h4.271V48.79H41.57Z" transform="translate(-39.53 -46.75)"/>
            </g>
            <g id="Group_1203623" data-name="Group 1203623" transform="translate(62.729 59.097)">
              <path id="Path_1243301" data-name="Path 1243301" d="M54.5,53.85H48.19a1.028,1.028,0,0,1-1.02-1.02V47.77a1.028,1.028,0,0,1,1.02-1.02H54.5a1.028,1.028,0,0,1,1.02,1.02v5.06A1.01,1.01,0,0,1,54.5,53.85ZM49.21,51.81h4.271V48.79H49.21Z" transform="translate(-47.17 -46.75)"/>
            </g>
            <g id="Group_1203624" data-name="Group 1203624" transform="translate(73.12 59.097)">
              <path id="Path_1243302" data-name="Path 1243302" d="M62.141,53.85H55.83a1.028,1.028,0,0,1-1.02-1.02V47.77a1.028,1.028,0,0,1,1.02-1.02h6.311a1.028,1.028,0,0,1,1.02,1.02v5.06A1.01,1.01,0,0,1,62.141,53.85ZM56.85,51.81h4.271V48.79H56.85Z" transform="translate(-54.81 -46.75)"/>
            </g>
            <g id="Group_1203625" data-name="Group 1203625" transform="translate(52.338 68.251)">
              <path id="Path_1243303" data-name="Path 1243303" d="M46.861,60.58H40.55a1.028,1.028,0,0,1-1.02-1.02V54.5a1.028,1.028,0,0,1,1.02-1.02h6.311a1.028,1.028,0,0,1,1.02,1.02v5.06A1.028,1.028,0,0,1,46.861,60.58ZM41.57,58.54h4.271V55.52H41.57Z" transform="translate(-39.53 -53.48)"/>
            </g>
            <g id="Group_1203626" data-name="Group 1203626" transform="translate(62.729 68.251)">
              <path id="Path_1243304" data-name="Path 1243304" d="M54.5,60.58H48.19a1.028,1.028,0,0,1-1.02-1.02V54.5a1.028,1.028,0,0,1,1.02-1.02H54.5a1.028,1.028,0,0,1,1.02,1.02v5.06A1.019,1.019,0,0,1,54.5,60.58ZM49.21,58.54h4.271V55.52H49.21Z" transform="translate(-47.17 -53.48)"/>
            </g>
            <g id="Group_1203627" data-name="Group 1203627" transform="translate(73.12 68.251)">
              <path id="Path_1243305" data-name="Path 1243305" d="M62.141,60.58H55.83a1.028,1.028,0,0,1-1.02-1.02V54.5a1.028,1.028,0,0,1,1.02-1.02h6.311a1.028,1.028,0,0,1,1.02,1.02v5.06A1.019,1.019,0,0,1,62.141,60.58ZM56.85,58.54h4.271V55.52H56.85Z" transform="translate(-54.81 -53.48)"/>
            </g>
            <g id="Group_1203628" data-name="Group 1203628" transform="translate(13.152 53.589)">
              <path id="Path_1243306" data-name="Path 1243306" d="M24.321,69.9a13.6,13.6,0,1,1,13.6-13.6A13.624,13.624,0,0,1,24.321,69.9Zm0-25.162A11.561,11.561,0,1,0,35.882,56.3,11.569,11.569,0,0,0,24.321,44.74Z" transform="translate(-10.72 -42.7)"/>
            </g>
            <g id="Group_1203629" data-name="Group 1203629" transform="translate(5.046 58.064)">
              <path id="Path_1243307" data-name="Path 1243307" d="M7.045,54.926A2.281,2.281,0,0,1,4.76,52.641V48.275A2.281,2.281,0,0,1,7.045,45.99h9.793a1.02,1.02,0,1,1,0,2.04H7.045a.244.244,0,0,0-.245.245v4.366a.244.244,0,0,0,.245.245,1.02,1.02,0,1,1,0,2.04Z" transform="translate(-4.76 -45.99)"/>
            </g>
            <g id="Group_1203630" data-name="Group 1203630" transform="translate(0 64.959)">
              <path id="Path_1243308" data-name="Path 1243308" d="M3.335,60A2.281,2.281,0,0,1,1.05,57.711V53.345A2.281,2.281,0,0,1,3.335,51.06H15.277a1.02,1.02,0,1,1,0,2.04H3.335a.244.244,0,0,0-.245.245v4.366a.244.244,0,0,0,.245.245,1.02,1.02,0,1,1,0,2.04Z" transform="translate(-1.05 -51.06)"/>
            </g>
            <g id="Group_1203631" data-name="Group 1203631" transform="translate(0 71.855)">
              <path id="Path_1243309" data-name="Path 1243309" d="M24.58,65.066H3.335A2.281,2.281,0,0,1,1.05,62.781V58.415A2.281,2.281,0,0,1,3.335,56.13H16.583a1.02,1.02,0,1,1,0,2.04H3.335a.244.244,0,0,0-.245.245v4.366a.244.244,0,0,0,.245.245H24.594a1.02,1.02,0,1,1-.014,2.04Z" transform="translate(-1.05 -56.13)"/>
            </g>
            <g id="Group_1203632" data-name="Group 1203632" transform="translate(16.825 57.261)">
              <path id="Path_1243310" data-name="Path 1243310" d="M23.349,65.258a9.919,9.919,0,1,1,6.6-2.5,1.028,1.028,0,0,1-1.442-.082,1.016,1.016,0,0,1,.082-1.442,7.88,7.88,0,1,0-5.236,2,7.71,7.71,0,0,0,2.775-.5,1.024,1.024,0,1,1,.721,1.918,10.563,10.563,0,0,1-3.5.612Z" transform="translate(-13.42 -45.4)"/>
            </g>
            <g id="Group_1203633" data-name="Group 1203633" transform="translate(23.503 61.709)">
              <path id="Path_1243311" data-name="Path 1243311" d="M21.581,59.633a3.251,3.251,0,0,1-3.251-3.251,1.02,1.02,0,0,1,2.04,0,1.211,1.211,0,1,0,1.211-1.211,3.251,3.251,0,1,1,3.251-3.251,1.02,1.02,0,0,1-2.04,0,1.211,1.211,0,1,0-1.211,1.211,3.251,3.251,0,1,1,0,6.5Z" transform="translate(-18.33 -48.67)"/>
            </g>
            <g id="Group_1203634" data-name="Group 1203634" transform="translate(25.734 60.172)">
              <path id="Path_1243312" data-name="Path 1243312" d="M20.99,51.117a1.028,1.028,0,0,1-1.02-1.02V48.56a1.02,1.02,0,0,1,2.04,0V50.1A1.028,1.028,0,0,1,20.99,51.117Z" transform="translate(-19.97 -47.54)"/>
            </g>
            <g id="Group_1203635" data-name="Group 1203635" transform="translate(25.734 70.631)">
              <path id="Path_1243313" data-name="Path 1243313" d="M20.99,58.807a1.028,1.028,0,0,1-1.02-1.02V56.25a1.02,1.02,0,1,1,2.04,0v1.537A1.028,1.028,0,0,1,20.99,58.807Z" transform="translate(-19.97 -55.23)"/>
            </g>
            <g id="Group_1203636" data-name="Group 1203636" transform="translate(40.804 5.25)">
              <path id="Path_1243314" data-name="Path 1243314" d="M41.591,28.242a10.541,10.541,0,0,1,0-21.082,1.028,1.028,0,0,1,1.02,1.02v8.5h8.5a1.028,1.028,0,0,1,1.02,1.02A10.55,10.55,0,0,1,41.591,28.242ZM40.571,9.268a8.5,8.5,0,1,0,9.466,9.466H41.591a1.028,1.028,0,0,1-1.02-1.02Z" transform="translate(-31.05 -7.16)"/>
            </g>
            <g id="Group_1203637" data-name="Group 1203637" transform="translate(50.325 5.25)">
              <path id="Path_1243315" data-name="Path 1243315" d="M48.591,18.721H39.07a1.028,1.028,0,0,1-1.02-1.02V8.18a1.028,1.028,0,0,1,1.02-1.02A10.559,10.559,0,0,1,49.611,17.7,1.019,1.019,0,0,1,48.591,18.721Zm-8.5-2.04H47.5a8.534,8.534,0,0,0-7.426-7.426v7.426Z" transform="translate(-38.05 -7.16)"/>
            </g>
            <g id="Group_1203641" data-name="Group 1203641" transform="translate(14.118 22.755)">
              <g id="Group_1203640" data-name="Group 1203640" transform="translate(0 0)">
                <g id="Group_1203638" data-name="Group 1203638">
                  <path id="Path_1243316" data-name="Path 1243316" d="M23.209,22.07H12.45a1.02,1.02,0,0,1,0-2.04H23.209a1.02,1.02,0,1,1,0,2.04Z" transform="translate(-11.43 -20.03)"/>
                </g>
                <g id="Group_1203639" data-name="Group 1203639" transform="translate(15.682)">
                  <path id="Path_1243317" data-name="Path 1243317" d="M26.537,22.07H23.98a1.02,1.02,0,1,1,0-2.04h2.557a1.02,1.02,0,0,1,0,2.04Z" transform="translate(-22.96 -20.03)"/>
                </g>
              </g>
            </g>
            <g id="Group_1203645" data-name="Group 1203645" transform="translate(14.118 27.379)">
              <g id="Group_1203644" data-name="Group 1203644">
                <g id="Group_1203642" data-name="Group 1203642">
                  <path id="Path_1243318" data-name="Path 1243318" d="M23.209,25.47H12.45a1.02,1.02,0,0,1,0-2.04H23.209a1.02,1.02,0,0,1,0,2.04Z" transform="translate(-11.43 -23.43)"/>
                </g>
                <g id="Group_1203643" data-name="Group 1203643" transform="translate(15.682)">
                  <path id="Path_1243319" data-name="Path 1243319" d="M26.537,25.47H23.98a1.02,1.02,0,0,1,0-2.04h2.557a1.02,1.02,0,0,1,0,2.04Z" transform="translate(-22.96 -23.43)"/>
                </g>
              </g>
            </g>
            <g id="Group_1203649" data-name="Group 1203649" transform="translate(14.118 32.017)">
              <g id="Group_1203648" data-name="Group 1203648">
                <g id="Group_1203646" data-name="Group 1203646">
                  <path id="Path_1243320" data-name="Path 1243320" d="M23.209,28.88H12.45a1.02,1.02,0,0,1,0-2.04H23.209a1.02,1.02,0,1,1,0,2.04Z" transform="translate(-11.43 -26.84)"/>
                </g>
                <g id="Group_1203647" data-name="Group 1203647" transform="translate(15.682)">
                  <path id="Path_1243321" data-name="Path 1243321" d="M26.537,28.88H23.98a1.02,1.02,0,1,1,0-2.04h2.557a1.02,1.02,0,0,1,0,2.04Z" transform="translate(-22.96 -26.84)"/>
                </g>
              </g>
            </g>
            <g id="Group_1203650" data-name="Group 1203650" transform="translate(22.524 78.499)">
              <path id="Path_1243322" data-name="Path 1243322" d="M21.84,63.307H18.63a1.02,1.02,0,1,1,0-2.04.266.266,0,0,0,.122-.068,1.019,1.019,0,0,1,.789-.163,11.765,11.765,0,0,0,2.3.231,1.02,1.02,0,0,1,0,2.04Z" transform="translate(-17.61 -61.015)"/>
            </g>
          </g>
        </g>
        <g id="Group_1203655" data-name="Group 1203655" transform="translate(14.135 37.879)">
          <g id="Group_1203653" data-name="Group 1203653" transform="translate(0 0.534)">
            <path id="Path_1243323" data-name="Path 1243323" d="M12.459,47.1a1.009,1.009,0,0,1-.721-.3,1.026,1.026,0,0,1,0-1.442L19.5,37.592a1.018,1.018,0,0,1,1.442,0l3.482,3.482,9.235-9.235a1.019,1.019,0,0,1,1.442,1.442l-9.956,9.956a1.052,1.052,0,0,1-1.442,0l-3.482-3.482L13.18,46.8A1.069,1.069,0,0,1,12.459,47.1Z" transform="translate(-11.442 -31.542)"/>
          </g>
          <g id="Group_1203654" data-name="Group 1203654" transform="translate(17.637)">
            <path id="Path_1243324" data-name="Path 1243324" d="M29.932,37.692a1.028,1.028,0,0,1-1.02-1.02V33.19H25.43a1.02,1.02,0,0,1,0-2.04h4.5a1.028,1.028,0,0,1,1.02,1.02v4.5A1.019,1.019,0,0,1,29.932,37.692Z" transform="translate(-24.41 -31.15)"/>
          </g>
        </g>
      </g>
    </g>
  </g>
</svg>
