<svg xmlns="http://www.w3.org/2000/svg" xmlns:xlink="http://www.w3.org/1999/xlink" width="79.83" height="77.054" viewBox="0 0 79.83 77.054">
  <defs>
    <clipPath id="clip-path">
      <rect id="Rectangle_410685" data-name="Rectangle 410685" width="67" height="67" transform="translate(769.051 1898)" fill="#fff" stroke="#707070" stroke-width="1"/>
    </clipPath>
  </defs>
  <g id="Group_1209595" data-name="Group 1209595" transform="translate(-756.221 -1887.946)">
    <g id="Rectangle_410684" data-name="Rectangle 410684" transform="translate(756.221 1887.946)" fill="#e2dbf9" stroke="#b7a8f1" stroke-width="3">
      <rect width="70" height="70" rx="10" stroke="none"/>
      <rect x="1.5" y="1.5" width="67" height="67" rx="8.5" fill="none"/>
    </g>
    <g id="Mask_Group_1099346" data-name="Mask Group 1099346" clip-path="url(#clip-path)">
      <g id="witness_9200608" transform="translate(769.016 1898)">
        <g id="Group_1210122" data-name="Group 1210122">
          <path id="Path_1281402" data-name="Path 1281402" d="M49,62.124H18.04a2.812,2.812,0,0,1-1.99-.825L9.23,54.469a2.813,2.813,0,0,1-.822-1.987V7.781a.563.563,0,0,1,.563-.563H49a.563.563,0,0,1,.563.563V61.561A.563.563,0,0,1,49,62.124Z" fill="#9ad2f2"/>
          <path id="Path_1281403" data-name="Path 1281403" d="M27.994,3.885a2.9,2.9,0,0,0-3.009-2.9,2.949,2.949,0,0,0-2.8,2.971V5.823h5.807V3.885Z" fill="#fbc96d"/>
          <path id="Path_1281404" data-name="Path 1281404" d="M44.262,12.769l.9,52.171a.562.562,0,0,1-.563.563l-4.194.516H16.1a2.605,2.605,0,0,1-1.085-.236l-.563-8.848a.523.523,0,0,0-.523-.523l-9.178-.906a2.6,2.6,0,0,1-.236-1.084V11.675a.564.564,0,0,1,.563-.563H42.659L43.7,12.206A.563.563,0,0,1,44.262,12.769Z" fill="#c0ecfc"/>
          <path id="Path_1281405" data-name="Path 1281405" d="M34.185,13.3H16a.523.523,0,0,1-.523-.523V6.832a1.963,1.963,0,0,1,1.963-1.963H32.745a1.963,1.963,0,0,1,1.963,1.963v5.939A.523.523,0,0,1,34.185,13.3Z" fill="#ffda8f"/>
          <path id="Path_1281406" data-name="Path 1281406" d="M45.106,11.113H42.659V63.132a2.887,2.887,0,0,1-2.887,2.887h5.334a.563.563,0,0,0,.563-.563V11.675A.563.563,0,0,0,45.106,11.113Z" fill="#aee0f4"/>
          <path id="Path_1281407" data-name="Path 1281407" d="M15.013,56.029v9.754a2.6,2.6,0,0,1-.767-.533L5.279,56.272a2.613,2.613,0,0,1-.53-.767H14.49A.523.523,0,0,1,15.013,56.029Z" fill="#aee0f4"/>
          <path id="Path_1281408" data-name="Path 1281408" d="M10.236,39.262H40.59a.262.262,0,0,1,.262.262v10.6a.262.262,0,0,1-.262.262H10.236a.262.262,0,0,1-.262-.262v-10.6A.262.262,0,0,1,10.236,39.262Z" fill="#9ad2f2"/>
          <path id="Path_1281409" data-name="Path 1281409" d="M10.236,18.529H40.59a.262.262,0,0,1,.262.262v4.379a.262.262,0,0,1-.262.262H10.236a.262.262,0,0,1-.262-.262V18.791A.262.262,0,0,1,10.236,18.529Z" fill="#9ad2f2"/>
          <path id="Path_1281410" data-name="Path 1281410" d="M62.2,34.57a1.307,1.307,0,0,1,0,1.633c-1.394,1.744-5.006,5.828-9.614,7.714l-4.72.288-4.7-.279c-4.616-1.883-8.236-5.976-9.632-7.723a1.307,1.307,0,0,1,0-1.633c1.394-1.745,5.009-5.832,9.621-7.717l4.713-.334,4.716.334C57.192,28.739,60.807,32.825,62.2,34.57Z" fill="#dff8ff"/>
          <g id="Group_1210120" data-name="Group 1210120">
            <path id="Path_1281411" data-name="Path 1281411" d="M57.11,35.387a9.3,9.3,0,0,1-5.019,8.252,9.924,9.924,0,0,1-4.225.8,10.709,10.709,0,0,1-4.4-.628s.312-.409,0,0a19.963,19.963,0,0,1-3.545-2.77,9.749,9.749,0,0,1,3.228-14.188h0a11.777,11.777,0,0,1,9.428,0,9.766,9.766,0,0,1,1.51,1.034A11.643,11.643,0,0,1,57.11,35.387Z" fill="#9b8f96"/>
          </g>
          <g id="Group_1210121" data-name="Group 1210121">
            <path id="Path_1281412" data-name="Path 1281412" d="M57.616,35.387a9.744,9.744,0,0,1-5.029,8.531,11.779,11.779,0,0,1-9.423.009l-.005,0a9.77,9.77,0,0,1-3.234-2.883A10.028,10.028,0,0,0,54.093,27.887,9.718,9.718,0,0,1,57.616,35.387Z" fill="#8c7f8a"/>
          </g>
          <circle id="Ellipse_12646" data-name="Ellipse 12646" cx="4.625" cy="4.625" r="4.625" transform="translate(43.241 30.761)" fill="#8c7f8a"/>
        </g>
        <g id="Group_1210123" data-name="Group 1210123">
          <path id="Path_1281413" data-name="Path 1281413" d="M40.851,42.943v7.446H9.974V39.262H36.181" fill="none" stroke="#000" stroke-linecap="round" stroke-linejoin="round" stroke-miterlimit="10" stroke-width="1.963"/>
          <path id="Path_1281414" data-name="Path 1281414" d="M20.351,18.53h20.5v4.9H9.974v-4.9h5.8" fill="none" stroke="#000" stroke-linecap="round" stroke-linejoin="round" stroke-miterlimit="10" stroke-width="1.963"/>
          <line id="Line_739" data-name="Line 739" x2="17.701" transform="translate(15.208 28.667)" fill="none" stroke="#000" stroke-linecap="round" stroke-linejoin="round" stroke-miterlimit="10" stroke-width="1.963"/>
          <line id="Line_740" data-name="Line 740" x2="13.543" transform="translate(15.208 33.901)" fill="none" stroke="#000" stroke-linecap="round" stroke-linejoin="round" stroke-miterlimit="10" stroke-width="1.963"/>
          <line id="Line_741" data-name="Line 741" transform="translate(9.974 28.667)" fill="none" stroke="#000" stroke-linecap="round" stroke-linejoin="round" stroke-miterlimit="10" stroke-width="1.963"/>
          <line id="Line_742" data-name="Line 742" transform="translate(9.974 33.901)" fill="none" stroke="#000" stroke-linecap="round" stroke-linejoin="round" stroke-miterlimit="10" stroke-width="1.963"/>
          <line id="Line_743" data-name="Line 743" x2="20.49" transform="translate(20.247 55.505)" fill="none" stroke="#000" stroke-linecap="round" stroke-linejoin="round" stroke-miterlimit="10" stroke-width="1.963"/>
          <line id="Line_744" data-name="Line 744" x2="13.543" transform="translate(20.247 60.74)" fill="none" stroke="#000" stroke-linecap="round" stroke-linejoin="round" stroke-miterlimit="10" stroke-width="1.963"/>
          <path id="Path_1281415" data-name="Path 1281415" d="M62.2,34.57a1.307,1.307,0,0,1,0,1.633c-1.842,2.306-7.563,8.7-14.334,8.7s-12.492-6.4-14.334-8.7a1.307,1.307,0,0,1,0-1.633c1.842-2.306,7.563-8.7,14.334-8.7S60.358,32.264,62.2,34.57Z" fill="none" stroke="#000" stroke-linecap="round" stroke-linejoin="round" stroke-miterlimit="10" stroke-width="1.963"/>
          <path id="Path_1281416" data-name="Path 1281416" d="M43.312,43.959a9.709,9.709,0,0,1,0-17.146" fill="none" stroke="#000" stroke-linecap="round" stroke-linejoin="round" stroke-miterlimit="10" stroke-width="1.963"/>
          <path id="Path_1281417" data-name="Path 1281417" d="M52.419,26.814a9.709,9.709,0,0,1,0,17.146" fill="none" stroke="#000" stroke-linecap="round" stroke-linejoin="round" stroke-miterlimit="10" stroke-width="1.963"/>
          <circle id="Ellipse_12647" data-name="Ellipse 12647" cx="4.625" cy="4.625" r="4.625" transform="translate(43.241 30.761)" fill="none" stroke="#000" stroke-linecap="round" stroke-linejoin="round" stroke-miterlimit="10" stroke-width="1.963"/>
          <path id="Path_1281418" data-name="Path 1281418" d="M8.408,10.979v-3.2a.563.563,0,0,1,.563-.563h6.222" fill="none" stroke="#000" stroke-linecap="round" stroke-linejoin="round" stroke-miterlimit="10" stroke-width="1.963"/>
          <path id="Path_1281419" data-name="Path 1281419" d="M49.563,45.087V61.561a.563.563,0,0,1-.563.563H45.822" fill="none" stroke="#000" stroke-linecap="round" stroke-linejoin="round" stroke-miterlimit="10" stroke-width="1.963"/>
          <path id="Path_1281420" data-name="Path 1281420" d="M35,7.218H49a.563.563,0,0,1,.563.563V25.868" fill="none" stroke="#000" stroke-linecap="round" stroke-linejoin="round" stroke-miterlimit="10" stroke-width="1.963"/>
          <path id="Path_1281421" data-name="Path 1281421" d="M27.994,4.749V3.885a2.9,2.9,0,1,0-5.807,0v.847" fill="none" stroke="#000" stroke-linecap="round" stroke-linejoin="round" stroke-miterlimit="10" stroke-width="1.963"/>
          <path id="Path_1281422" data-name="Path 1281422" d="M4.513,51.553v2.868a2.622,2.622,0,0,0,.766,1.85l8.968,8.978a2.615,2.615,0,0,0,1.852.768h10.92" fill="none" stroke="#000" stroke-linecap="round" stroke-linejoin="round" stroke-miterlimit="10" stroke-width="1.963"/>
          <path id="Path_1281423" data-name="Path 1281423" d="M4.513,46.973v-35.3a.564.564,0,0,1,.563-.563H15.192" fill="none" stroke="#000" stroke-linecap="round" stroke-linejoin="round" stroke-miterlimit="10" stroke-width="1.963"/>
          <line id="Line_745" data-name="Line 745" y1="3.545" transform="translate(45.668 45.088)" fill="none" stroke="#000" stroke-linecap="round" stroke-linejoin="round" stroke-miterlimit="10" stroke-width="1.963"/>
          <path id="Path_1281424" data-name="Path 1281424" d="M45.668,53.213V65.456a.562.562,0,0,1-.563.563H31.6" fill="none" stroke="#000" stroke-linecap="round" stroke-linejoin="round" stroke-miterlimit="10" stroke-width="1.963"/>
          <path id="Path_1281425" data-name="Path 1281425" d="M35.2,11.113h9.9a.563.563,0,0,1,.563.563V25.868" fill="none" stroke="#000" stroke-linecap="round" stroke-linejoin="round" stroke-miterlimit="10" stroke-width="1.963"/>
          <path id="Path_1281426" data-name="Path 1281426" d="M15.013,65.583V55.505H4.935" fill="none" stroke="#000" stroke-linecap="round" stroke-linejoin="round" stroke-miterlimit="10" stroke-width="1.963"/>
          <path id="Path_1281427" data-name="Path 1281427" d="M34.185,13.3H16a.523.523,0,0,1-.523-.523V6.832a1.963,1.963,0,0,1,1.963-1.963H32.745a1.963,1.963,0,0,1,1.963,1.963v5.939A.523.523,0,0,1,34.185,13.3Z" fill="none" stroke="#000" stroke-linecap="round" stroke-linejoin="round" stroke-miterlimit="10" stroke-width="1.963"/>
        </g>
      </g>
    </g>
  </g>
</svg>
