<svg xmlns="http://www.w3.org/2000/svg" xmlns:xlink="http://www.w3.org/1999/xlink" width="79.83" height="77.054" viewBox="0 0 79.83 77.054">
  <defs>
    <clipPath id="clip-path">
      <rect id="Rectangle_410685" data-name="Rectangle 410685" width="67" height="67" transform="translate(769.051 1898)" fill="#fff" stroke="#707070" stroke-width="1"/>
    </clipPath>
  </defs>
  <g id="Group_1205996" data-name="Group 1205996" transform="translate(-756.221 -1887.946)">
    <g id="Rectangle_410684" data-name="Rectangle 410684" transform="translate(756.221 1887.946)" fill="#e2dbf9" stroke="#b7a8f1" stroke-width="3">
      <rect width="70" height="70" rx="10" stroke="none"/>
      <rect x="1.5" y="1.5" width="67" height="67" rx="8.5" fill="none"/>
    </g>
    <g id="Mask_Group_1099321" data-name="Mask Group 1099321" clip-path="url(#clip-path)">
      <g id="oversight_17862156" transform="translate(768.92 1897.869)">
        <g id="Group_1210006" data-name="Group 1210006">
          <g id="Group_1210002" data-name="Group 1210002">
            <rect id="Rectangle_425923" data-name="Rectangle 425923" width="46.56" height="54.171" rx="3.06" transform="translate(7.876 4.573)" fill="#dee8ee"/>
            <path id="Path_1280786" data-name="Path 1280786" d="M10.937,4.573h40.44a3.069,3.069,0,0,1,3.06,3.06v48.05A3.069,3.069,0,0,1,52.78,58.4a3.033,3.033,0,0,0,.343-1.4V8.947a3.069,3.069,0,0,0-3.06-3.06H9.623a3.033,3.033,0,0,0-1.4.343,3.069,3.069,0,0,1,2.717-1.657Z" fill="#cedde5" fill-rule="evenodd"/>
            <rect id="Rectangle_425924" data-name="Rectangle 425924" width="46.56" height="54.171" rx="3.06" transform="translate(3.527 1.182)" fill="#eff4f7"/>
            <path id="Path_1280787" data-name="Path 1280787" d="M6.587,1.182h40.44a3.069,3.069,0,0,1,2.717,1.657,3.033,3.033,0,0,0-1.4-.343H7.9a3.069,3.069,0,0,0-3.06,3.06v48.05a3.034,3.034,0,0,0,.343,1.4,3.069,3.069,0,0,1-1.657-2.717V4.243a3.069,3.069,0,0,1,3.06-3.06Z" fill="#dee8ee" fill-rule="evenodd"/>
            <path id="Path_1280788" data-name="Path 1280788" d="M11.99,25.658H41.624V49.991H11.99Z" fill="#ffda2d"/>
            <path id="Path_1280789" data-name="Path 1280789" d="M32.322,11.263a2.289,2.289,0,1,1-2.289,2.289A2.289,2.289,0,0,1,32.322,11.263ZM14.058,17.017a2.289,2.289,0,1,1-2.289,2.289A2.289,2.289,0,0,1,14.058,17.017ZM23.19,5.144A2.289,2.289,0,1,1,20.9,7.433,2.289,2.289,0,0,1,23.19,5.144Z" fill="#64b5f6" fill-rule="evenodd"/>
          </g>
          <g id="Group_1210004" data-name="Group 1210004">
            <g id="Group_1210003" data-name="Group 1210003">
              <path id="Path_1280790" data-name="Path 1280790" d="M51.372,55.972l2.181-2.331-4.407-4.407-2.337,2.175Z" fill="#b4d2d7" fill-rule="evenodd"/>
              <path id="Path_1280791" data-name="Path 1280791" d="M51.372,55.972l2.181-2.331-.024-.024-1.22,1.3-4.471-4.471-1.029.958Z" fill="#9bb9c3" fill-rule="evenodd"/>
              <path id="Path_1280792" data-name="Path 1280792" d="M53.347,52.066l-3.626,3.626a.258.258,0,0,0,0,.364l9.2,9.2a2.821,2.821,0,1,0,3.99-3.99l-9.2-9.2a.258.258,0,0,0-.364,0Z" fill="#8d9ca8" fill-rule="evenodd"/>
              <path id="Path_1280793" data-name="Path 1280793" d="M50.4,55.008l-.683.683a.258.258,0,0,0,0,.364l9.2,9.2a2.821,2.821,0,0,0,4.3-.372,2.832,2.832,0,0,1-3.618-.313l-9.2-9.2a.258.258,0,0,1,0-.363Z" fill="#7a8c98" fill-rule="evenodd"/>
              <path id="Path_1280794" data-name="Path 1280794" d="M49.722,55.691a.258.258,0,0,0,0,.364l2.387,2.388,3.99-3.99-2.387-2.387a.258.258,0,0,0-.364,0Z" fill="#7a8c98" fill-rule="evenodd"/>
              <path id="Path_1280795" data-name="Path 1280795" d="M49.722,55.691a.258.258,0,0,0,0,.364l2.387,2.388.685-.685-2.388-2.388a.258.258,0,0,1,0-.363l-.683.683Z" fill="#596c76" fill-rule="evenodd"/>
            </g>
            <circle id="Ellipse_12617" data-name="Ellipse 12617" cx="13.359" cy="13.359" r="13.359" transform="translate(20.611 41.855) rotate(-45)" fill="#64b5f6"/>
            <path id="Path_1280796" data-name="Path 1280796" d="M47.446,31.106A13.36,13.36,0,1,1,29.91,51.145,13.36,13.36,0,0,0,47.447,31.106Z" fill="#42a5f5" fill-rule="evenodd"/>
            <path id="Path_1280797" data-name="Path 1280797" d="M39.512,51.939A10.083,10.083,0,1,0,29.429,41.856,10.1,10.1,0,0,0,39.512,51.939Z" fill="#e6f8ff" fill-rule="evenodd"/>
            <path id="Path_1280798" data-name="Path 1280798" d="M39.512,31.773A10.061,10.061,0,0,1,47.256,35.4a10.083,10.083,0,0,0-14.2,14.2,10.083,10.083,0,0,1,6.456-17.827Z" fill="#cbf0ff" fill-rule="evenodd"/>
          </g>
          <g id="Group_1210005" data-name="Group 1210005">
            <path id="Path_1280799" data-name="Path 1280799" d="M39.509,36.7a8.964,8.964,0,0,1,8.383,5.611c.2.556-3.91,4.692-8.54,4.692s-8.137-4.341-8.225-4.692S33.465,36.7,39.509,36.7Z" fill="#64b5f6" fill-rule="evenodd"/>
            <path id="Path_1280800" data-name="Path 1280800" d="M46.571,40.072a8.832,8.832,0,0,1,1.321,2.243c.2.556-3.91,4.692-8.54,4.692s-8.137-4.341-8.225-4.692a.34.34,0,0,1,.018-.139c1.312,1.391,4.064,3.644,7.4,3.644,4.63,0,8.741-4.136,8.54-4.692a7.279,7.279,0,0,0-.514-1.056Z" fill="#42a5f5" fill-rule="evenodd"/>
            <circle id="Ellipse_12618" data-name="Ellipse 12618" cx="3.654" cy="3.654" r="3.654" transform="matrix(0.949, -0.316, 0.316, 0.949, 34.893, 39.565)" fill="#2d90f1"/>
            <path id="Path_1280801" data-name="Path 1280801" d="M35.858,41.856a3.653,3.653,0,0,1,6.556-2.219,3.653,3.653,0,0,0-5.121,5.121,3.647,3.647,0,0,1-1.434-2.9Z" fill="#1d83d4" fill-rule="evenodd"/>
          </g>
        </g>
        <path id="Path_1280802" data-name="Path 1280802" d="M14.056,18.066a1.239,1.239,0,1,1-1.239,1.239A1.24,1.24,0,0,1,14.056,18.066ZM23.188,6.193A1.239,1.239,0,1,1,21.95,7.432,1.24,1.24,0,0,1,23.188,6.193Zm10.371,7.359a1.238,1.238,0,1,1-1.239-1.239,1.24,1.24,0,0,1,1.239,1.239Zm-19.5,9.094a3.34,3.34,0,0,0,2.765-5.213l5.267-6.847a3.33,3.33,0,0,0,3.147-.517L29.1,12.661a3.34,3.34,0,1,0,6.26-.486l4.915-4.539-.155.854a1.052,1.052,0,0,0,.846,1.222,1.162,1.162,0,0,0,.189.017,1.051,1.051,0,0,0,1.033-.864l.689-3.791a1.051,1.051,0,0,0-.984-1.237l-3.85-.182a1.051,1.051,0,1,0-.1,2.1l1.21.058-5.22,4.819a3.33,3.33,0,0,0-3.663.285l-3.867-2.59a3.34,3.34,0,1,0-5.983.98l-5.267,6.848a3.34,3.34,0,1,0-1.1,6.494ZM39.511,32.47A9.4,9.4,0,0,1,48.9,41.855c0,.029,0,.058,0,.088a7.624,7.624,0,0,0-1.3-2.357,10.061,10.061,0,0,0-8.062-3.933h-.016a9.992,9.992,0,0,0-9.37,6.3c0,.015-.008.028-.012.041,0-.047,0-.095,0-.142a9.4,9.4,0,0,1,9.385-9.385ZM37.3,45.574a4.371,4.371,0,0,1-.409-7.416,7.457,7.457,0,0,0-3.018,1.884,8.559,8.559,0,0,0-1.606,2.275A11.563,11.563,0,0,0,37.3,45.574Zm6.476-3.837a4.382,4.382,0,0,1-2.827,4.091,10.954,10.954,0,0,0,5.789-3.68,8.207,8.207,0,0,0-4.98-4.095,4.376,4.376,0,0,1,2.018,3.683Zm-4.375-2.274a2.273,2.273,0,1,0,2.273,2.274A2.276,2.276,0,0,0,39.406,39.464Zm.1,11.776A9.4,9.4,0,0,1,30.186,42.9a2.507,2.507,0,0,0,.282.495,12.822,12.822,0,0,0,9.2,4.659,10.853,10.853,0,0,0,6.457-2.432,10.817,10.817,0,0,0,2.725-2.885,9.4,9.4,0,0,1-9.341,8.5Zm0,2.1A11.487,11.487,0,1,0,28.024,41.855,11.5,11.5,0,0,0,39.511,53.342Zm22.657,11.17a1.774,1.774,0,0,1-2.5,0L53.632,58.48,56.1,55.944l6.064,6.064a1.773,1.773,0,0,1,0,2.5ZM10.936,57.693A2.013,2.013,0,0,1,9.062,56.4H47.026a4.069,4.069,0,0,0,1.579-.32,1.279,1.279,0,0,0,.359.7l.907.908Zm-6.359-5.4A2.011,2.011,0,0,0,6.586,54.3H32.253a14.489,14.489,0,0,1-3.839-3.259H11.989a1.051,1.051,0,0,1-1.051-1.051V25.657a1.051,1.051,0,0,1,1.051-1.051H41.623a1.051,1.051,0,0,1,1.051,1.051v2.138a14.379,14.379,0,0,1,6.361,3.255V4.242a2.012,2.012,0,0,0-2.009-2.01H6.586a2.012,2.012,0,0,0-2.01,2.01v48.05ZM53.385,7.633V37.952a14.358,14.358,0,0,0-2.248-4.6V5.623h.238a2.011,2.011,0,0,1,2.01,2.009ZM47.652,53.74l.319.319a2,2,0,0,1-.946.242h-.258c.3-.176.6-.364.885-.561Zm5.732-2.8a1.281,1.281,0,0,0-.721.326L51.395,50a14.362,14.362,0,0,0,1.99-4.239V50.94ZM49.3,52.417c.266-.246.523-.5.769-.769l1.1,1.1-.77.77ZM27.2,41.855A12.31,12.31,0,1,0,39.51,29.545,12.323,12.323,0,0,0,27.2,41.855Zm-3.868.874h1.793a14.311,14.311,0,0,0,1.838,6.211H23.333V42.728Zm2.482-9.021H13.04V32.282s0,0,0,0V26.708H25.814v7Zm-12.774,2.1h8.191v4.817H13.04Zm10.293,4.817V35.809h3.1a14.3,14.3,0,0,0-1.278,4.817ZM40.572,26.708H27.916v6.6A14.4,14.4,0,0,1,39.51,27.444q.536,0,1.062.038v-.774ZM13.04,48.94V42.728h8.191V48.94Zm37.985,6.933,1.12,1.119,2.472-2.535-1.088-1.088-2.5,2.5Zm12.629,4.648-8.167-8.166V7.633a4.116,4.116,0,0,0-4.111-4.112h-.3A4.117,4.117,0,0,0,47.026.131H6.586A4.116,4.116,0,0,0,2.475,4.242v48.05A4.115,4.115,0,0,0,6.586,56.4h.3a4.118,4.118,0,0,0,4.047,3.392h40.44a3.923,3.923,0,0,0,.558-.041L58.178,66a3.872,3.872,0,1,0,5.476-5.477Z" fill-rule="evenodd"/>
      </g>
    </g>
  </g>
</svg>
