<svg xmlns="http://www.w3.org/2000/svg" xmlns:xlink="http://www.w3.org/1999/xlink" width="79.83" height="77.054" viewBox="0 0 79.83 77.054">
  <defs>
    <clipPath id="clip-path">
      <rect id="Rectangle_410685" data-name="Rectangle 410685" width="67" height="67" transform="translate(769.051 1898)" fill="#fff" stroke="#707070" stroke-width="1"/>
    </clipPath>
  </defs>
  <g id="Group_1205994" data-name="Group 1205994" transform="translate(-756.221 -1887.946)">
    <g id="Rectangle_410684" data-name="Rectangle 410684" transform="translate(756.221 1887.946)" fill="#e2dbf9" stroke="#b7a8f1" stroke-width="3">
      <rect width="70" height="70" rx="10" stroke="none"/>
      <rect x="1.5" y="1.5" width="67" height="67" rx="8.5" fill="none"/>
    </g>
    <g id="Mask_Group_1099323" data-name="Mask Group 1099323" clip-path="url(#clip-path)">
      <g id="event-analysis_15165795" transform="translate(768.807 1897.868)">
        <g id="Group_1210014" data-name="Group 1210014">
          <g id="Group_1210011" data-name="Group 1210011">
            <path id="Path_1280813" data-name="Path 1280813" d="M5.762,5.326a1.7,1.7,0,0,0-1.7,1.7v41.96a1.7,1.7,0,0,0,1.7,1.7H55.546a1.7,1.7,0,0,0,1.7-1.7V7.025a1.7,1.7,0,0,0-1.7-1.7Z" fill="#eff4f7" fill-rule="evenodd"/>
            <path id="Path_1280814" data-name="Path 1280814" d="M53.1,50.684h2.445a1.7,1.7,0,0,0,1.7-1.7V7.025a1.7,1.7,0,0,0-1.7-1.7H53.1a1.7,1.7,0,0,1,1.7,1.7v41.96A1.7,1.7,0,0,1,53.1,50.684Z" fill="#e2e3e3" fill-rule="evenodd"/>
            <path id="Path_1280815" data-name="Path 1280815" d="M4.063,7.025V13.93H57.246V7.025a1.7,1.7,0,0,0-1.7-1.7H5.762a1.7,1.7,0,0,0-1.7,1.7Z" fill="#64b5f6" fill-rule="evenodd"/>
            <path id="Path_1280816" data-name="Path 1280816" d="M10.319,1.182h2.226a1.066,1.066,0,0,1,1.063,1.063V8.406a1.066,1.066,0,0,1-1.063,1.063H10.319A1.066,1.066,0,0,1,9.256,8.406V2.245a1.066,1.066,0,0,1,1.063-1.063Zm38.444,0H50.99a1.066,1.066,0,0,1,1.063,1.063V8.406A1.066,1.066,0,0,1,50.99,9.469H48.763A1.066,1.066,0,0,1,47.7,8.406V2.245a1.066,1.066,0,0,1,1.063-1.063Zm-12.815,0h2.226a1.066,1.066,0,0,1,1.063,1.063V8.406a1.066,1.066,0,0,1-1.063,1.063H35.949a1.066,1.066,0,0,1-1.063-1.063V2.245a1.066,1.066,0,0,1,1.063-1.063Zm-12.815,0H25.36a1.066,1.066,0,0,1,1.063,1.063V8.406A1.066,1.066,0,0,1,25.36,9.469H23.134a1.066,1.066,0,0,1-1.063-1.063V2.245a1.066,1.066,0,0,1,1.063-1.063Z" fill="#b4d2d7" fill-rule="evenodd"/>
            <path id="Path_1280817" data-name="Path 1280817" d="M12.386,1.182h.159a1.066,1.066,0,0,1,1.063,1.063V8.406a1.066,1.066,0,0,1-1.063,1.063H10.319A1.066,1.066,0,0,1,9.256,8.406V8.247h2.067a1.066,1.066,0,0,0,1.063-1.063Zm38.444,0h.159a1.066,1.066,0,0,1,1.063,1.063V8.406A1.066,1.066,0,0,1,50.99,9.469H48.764A1.066,1.066,0,0,1,47.7,8.406V8.247h2.067A1.066,1.066,0,0,0,50.83,7.183Zm-12.815,0h.159a1.066,1.066,0,0,1,1.063,1.063V8.406a1.066,1.066,0,0,1-1.063,1.063H35.949a1.066,1.066,0,0,1-1.063-1.063V8.247h2.067a1.066,1.066,0,0,0,1.063-1.063Zm-12.815,0h.159a1.066,1.066,0,0,1,1.063,1.063V8.406A1.066,1.066,0,0,1,25.36,9.469H23.134a1.066,1.066,0,0,1-1.063-1.063V8.247h2.067A1.066,1.066,0,0,0,25.2,7.183Z" fill="#9bb9c3" fill-rule="evenodd"/>
            <path id="Path_1280818" data-name="Path 1280818" d="M54.8,13.93h2.445V7.025a1.7,1.7,0,0,0-1.7-1.7H53.1a1.7,1.7,0,0,1,1.7,1.7Z" fill="#42a5f5" fill-rule="evenodd"/>
            <path id="Path_1280819" data-name="Path 1280819" d="M42.334,25.088H37.807a.612.612,0,0,1-.611-.611V19.949a.612.612,0,0,1,.611-.611h4.527a.612.612,0,0,1,.611.611v4.527a.612.612,0,0,1-.611.611ZM14.086,45.276H9.559a.612.612,0,0,1-.611-.611V40.137a.612.612,0,0,1,.611-.611h4.527a.612.612,0,0,1,.611.611v4.527A.613.613,0,0,1,14.086,45.276Zm9.416,0H18.975a.613.613,0,0,1-.611-.611V40.137a.612.612,0,0,1,.611-.611H23.5a.612.612,0,0,1,.611.611v4.527A.612.612,0,0,1,23.5,45.276Zm9.416-10.094H28.391a.612.612,0,0,1-.611-.611V30.043a.612.612,0,0,1,.611-.611h4.527a.612.612,0,0,1,.611.611v4.527A.612.612,0,0,1,32.918,35.182Zm0,10.094H28.391a.612.612,0,0,1-.611-.611V40.137a.612.612,0,0,1,.611-.611h4.527a.612.612,0,0,1,.611.611v4.527A.612.612,0,0,1,32.918,45.276Zm9.416-10.094H37.807a.612.612,0,0,1-.611-.611V30.043a.612.612,0,0,1,.611-.611h4.527a.612.612,0,0,1,.611.611v4.527A.612.612,0,0,1,42.334,35.182Zm0,10.094H37.807a.612.612,0,0,1-.611-.611V40.137a.612.612,0,0,1,.611-.611h4.527a.612.612,0,0,1,.611.611v4.527A.612.612,0,0,1,42.334,45.276ZM51.75,35.182H47.223a.612.612,0,0,1-.611-.611V30.043a.612.612,0,0,1,.611-.611H51.75a.612.612,0,0,1,.611.611v4.527A.612.612,0,0,1,51.75,35.182Zm0,10.094H47.223a.612.612,0,0,1-.611-.611V40.137a.612.612,0,0,1,.611-.611H51.75a.612.612,0,0,1,.611.611v4.527A.612.612,0,0,1,51.75,45.276Zm0-20.188H47.223a.612.612,0,0,1-.611-.611V19.949a.612.612,0,0,1,.611-.611H51.75a.612.612,0,0,1,.611.611v4.527A.612.612,0,0,1,51.75,25.088Z" fill="#64b5f6" fill-rule="evenodd"/>
            <path id="Path_1280820" data-name="Path 1280820" d="M32.918,25.088H28.391a.612.612,0,0,1-.611-.611V19.949a.612.612,0,0,1,.611-.611h4.527a.612.612,0,0,1,.611.611v4.527A.612.612,0,0,1,32.918,25.088ZM23.5,35.182H18.975a.613.613,0,0,1-.611-.611V30.043a.612.612,0,0,1,.611-.611H23.5a.612.612,0,0,1,.611.611v4.527a.612.612,0,0,1-.611.611Zm-9.416,0H9.559a.612.612,0,0,1-.611-.611V30.043a.612.612,0,0,1,.611-.611h4.527a.612.612,0,0,1,.611.611v4.527a.613.613,0,0,1-.611.611ZM23.5,25.088H18.975a.613.613,0,0,1-.611-.611V19.949a.612.612,0,0,1,.611-.611H23.5a.612.612,0,0,1,.611.611v4.527A.612.612,0,0,1,23.5,25.088Z" fill="#fc685b" fill-rule="evenodd"/>
            <path id="Path_1280821" data-name="Path 1280821" d="M10.17,35.182H9.559a.612.612,0,0,1-.611-.611V30.043a.612.612,0,0,1,.611-.611h4.527a.612.612,0,0,1,.611.611v.611H10.781a.612.612,0,0,0-.611.611ZM29,25.088h-.611a.612.612,0,0,1-.611-.611V19.949a.612.612,0,0,1,.611-.611h4.527a.612.612,0,0,1,.611.611v.611H29.613a.612.612,0,0,0-.611.611ZM19.586,35.182h-.611a.613.613,0,0,1-.611-.611V30.043a.612.612,0,0,1,.611-.611H23.5a.612.612,0,0,1,.611.611v.611H20.2a.612.612,0,0,0-.611.611Zm0-10.094h-.611a.613.613,0,0,1-.611-.611V19.949a.612.612,0,0,1,.611-.611H23.5a.612.612,0,0,1,.611.611v.611H20.2a.612.612,0,0,0-.611.611Z" fill="#f35244" fill-rule="evenodd"/>
            <path id="Path_1280822" data-name="Path 1280822" d="M10.17,45.276H9.559a.612.612,0,0,1-.611-.611V40.137a.612.612,0,0,1,.611-.611h4.527a.612.612,0,0,1,.611.611v.611H10.781a.612.612,0,0,0-.611.611ZM47.834,25.088h-.611a.612.612,0,0,1-.611-.611V19.949a.612.612,0,0,1,.611-.611H51.75a.612.612,0,0,1,.611.611v.611H48.445a.612.612,0,0,0-.611.611Zm-9.416,0h-.611a.612.612,0,0,1-.611-.611V19.949a.612.612,0,0,1,.611-.611h4.527a.612.612,0,0,1,.611.611v.611H39.029a.612.612,0,0,0-.611.611Zm0,10.094h-.611a.612.612,0,0,1-.611-.611V30.043a.612.612,0,0,1,.611-.611h4.527a.612.612,0,0,1,.611.611v.611H39.029a.613.613,0,0,0-.611.611Zm-9.416,0h-.611a.612.612,0,0,1-.611-.611V30.043a.612.612,0,0,1,.611-.611h4.527a.612.612,0,0,1,.611.611v.611H29.613a.612.612,0,0,0-.611.611Zm18.832,0h-.611a.612.612,0,0,1-.611-.611V30.043a.612.612,0,0,1,.611-.611H51.75a.612.612,0,0,1,.611.611v.611H48.445a.612.612,0,0,0-.611.611Zm0,10.094h-.611a.612.612,0,0,1-.611-.611V40.137a.612.612,0,0,1,.611-.611H51.75a.612.612,0,0,1,.611.611v.611H48.445a.612.612,0,0,0-.611.611Zm-9.416,0h-.611a.612.612,0,0,1-.611-.611V40.137a.612.612,0,0,1,.611-.611h4.527a.612.612,0,0,1,.611.611v.611H39.029a.613.613,0,0,0-.611.611Zm-9.416,0h-.611a.612.612,0,0,1-.611-.611V40.137a.612.612,0,0,1,.611-.611h4.527a.612.612,0,0,1,.611.611v.611H29.613A.612.612,0,0,0,29,41.36Zm-9.416,0h-.611a.613.613,0,0,1-.611-.611V40.137a.612.612,0,0,1,.611-.611H23.5a.612.612,0,0,1,.611.611v.611H20.2a.612.612,0,0,0-.611.611Z" fill="#42a5f5" fill-rule="evenodd"/>
            <path id="Path_1280823" data-name="Path 1280823" d="M14.581,20.63a.975.975,0,1,1,1.383,1.375l-4.045,4.083a.975.975,0,0,1-1.371.011L8.292,23.9a.975.975,0,0,1,1.36-1.4l1.564,1.525Z" fill="#e2e3e3" fill-rule="evenodd"/>
          </g>
          <g id="Group_1210012" data-name="Group 1210012">
            <path id="Path_1280824" data-name="Path 1280824" d="M38.163,56.048,36,53.734l4.376-4.376,2.32,2.159Z" fill="#b4d2d7" fill-rule="evenodd"/>
            <path id="Path_1280825" data-name="Path 1280825" d="M38.163,56.048,36,53.734l.024-.024L37.233,55l4.439-4.439,1.022.951Z" fill="#9bb9c3" fill-rule="evenodd"/>
            <path id="Path_1280826" data-name="Path 1280826" d="M36.2,52.17l3.6,3.6a.256.256,0,0,1,0,.362l-9.134,9.133A2.8,2.8,0,0,1,26.707,61.3L35.84,52.17A.256.256,0,0,1,36.2,52.17Z" fill="#8d9ca8" fill-rule="evenodd"/>
            <path id="Path_1280827" data-name="Path 1280827" d="M39.123,55.09l.678.678a.256.256,0,0,1,0,.362l-9.134,9.133a2.8,2.8,0,0,1-4.271-.369,2.811,2.811,0,0,0,3.592-.31l9.134-9.133a.257.257,0,0,0,0-.36Z" fill="#7a8c98" fill-rule="evenodd"/>
            <path id="Path_1280828" data-name="Path 1280828" d="M39.8,55.769a.256.256,0,0,1,0,.362l-2.37,2.37L33.47,54.54l2.37-2.37a.256.256,0,0,1,.362,0l3.6,3.6Z" fill="#7a8c98" fill-rule="evenodd"/>
            <path id="Path_1280829" data-name="Path 1280829" d="M39.8,55.769a.256.256,0,0,1,0,.362l-2.37,2.37-.68-.68,2.37-2.37a.256.256,0,0,0,0-.36Z" fill="#596c76" fill-rule="evenodd"/>
            <ellipse id="Ellipse_12622" data-name="Ellipse 12622" cx="13.258" cy="13.258" rx="13.258" ry="13.258" transform="translate(35.324 30.241) rotate(-6.03)" fill="#688d97"/>
            <path id="Path_1280830" data-name="Path 1280830" d="M57.815,31.362A13.264,13.264,0,1,1,40.4,51.255a13.263,13.263,0,0,0,17.41-19.893Z" fill="#557983" fill-rule="evenodd"/>
            <circle id="Ellipse_12623" data-name="Ellipse 12623" cx="10.012" cy="10.012" r="10.012" transform="matrix(0.021, -1, 1, 0.021, 39.735, 51.83)" fill="#e6f8ff"/>
            <path id="Path_1280831" data-name="Path 1280831" d="M49.937,32.024a9.988,9.988,0,0,1,7.688,3.6,10.01,10.01,0,0,0-14.1,14.1,10.01,10.01,0,0,1,6.41-17.7Z" fill="#d0f1ff" fill-rule="evenodd"/>
          </g>
          <g id="Group_1210013" data-name="Group 1210013">
            <path id="Path_1280832" data-name="Path 1280832" d="M49.937,35.457l1.686,4.009,4.334.364-3.292,2.842.993,4.234-3.72-2.253-3.72,2.253.993-4.234L43.918,39.83l4.334-.364,1.685-4.009Z" fill="#ffda2d" fill-rule="evenodd"/>
            <path id="Path_1280833" data-name="Path 1280833" d="M49.937,35.457l.581,1.382-1.062,2.526-1.2.1,1.685-4.009Zm3.493,10.481.227.968-3.72-2.253.686-.415Zm-5.837.135-1.377.834.993-4.234L43.918,39.83l1.2-.1,3.292,2.842Z" fill="#ffc700" fill-rule="evenodd"/>
          </g>
        </g>
        <path id="Path_1280834" data-name="Path 1280834" d="M15.71,19.426a1.05,1.05,0,0,1,.008,1.486l-4.045,4.083a1.051,1.051,0,0,1-1.481.013l-2.255-2.2A1.051,1.051,0,1,1,9.4,21.3l1.509,1.472,3.311-3.342a1.051,1.051,0,0,1,1.486-.007Zm7.35,4.612H19.412V20.39H23.06Zm1.051-5.749h-5.75A1.051,1.051,0,0,0,17.31,19.34v5.749a1.051,1.051,0,0,0,1.051,1.051h5.75a1.05,1.05,0,0,0,1.051-1.051V19.34A1.05,1.05,0,0,0,24.111,18.288Zm8.365,25.937H28.829V40.577h3.647Zm1.051-5.75H27.778a1.051,1.051,0,0,0-1.051,1.051v5.751a1.051,1.051,0,0,0,1.051,1.051h5.749a1.051,1.051,0,0,0,1.052-1.051V39.526A1.051,1.051,0,0,0,33.527,38.475ZM23.06,44.225H19.412V40.577H23.06Zm1.051-5.75h-5.75a1.051,1.051,0,0,0-1.051,1.051v5.751a1.051,1.051,0,0,0,1.051,1.051h5.75a1.05,1.05,0,0,0,1.051-1.051V39.526A1.05,1.05,0,0,0,24.111,38.475Zm-10.467,5.75H10V40.577h3.648v3.648Zm1.052-5.75H8.946a1.051,1.051,0,0,0-1.051,1.051v5.751a1.051,1.051,0,0,0,1.051,1.051H14.7a1.052,1.052,0,0,0,1.051-1.051V39.526A1.052,1.052,0,0,0,14.7,38.475Zm17.78-4.343H28.829V30.483h3.647Zm1.051-5.75H27.778a1.051,1.051,0,0,0-1.051,1.051v5.751a1.051,1.051,0,0,0,1.051,1.051h5.749a1.052,1.052,0,0,0,1.052-1.051V29.432A1.051,1.051,0,0,0,33.527,28.382ZM23.06,34.132H19.412V30.483H23.06Zm1.051-5.75h-5.75a1.051,1.051,0,0,0-1.051,1.051v5.751a1.051,1.051,0,0,0,1.051,1.051h5.75a1.051,1.051,0,0,0,1.051-1.051V29.432A1.05,1.05,0,0,0,24.111,28.382Zm-10.467,5.75H10V30.483h3.648v3.648Zm1.052-5.75H8.946a1.051,1.051,0,0,0-1.051,1.051v5.751a1.051,1.051,0,0,0,1.051,1.051H14.7a1.053,1.053,0,0,0,1.051-1.051V29.432A1.052,1.052,0,0,0,14.7,28.382ZM47.66,20.39h3.648v3.647H47.66ZM46.61,26.139h5.75a1.051,1.051,0,0,0,1.051-1.051V19.34a1.051,1.051,0,0,0-1.051-1.052H46.61a1.052,1.052,0,0,0-1.052,1.052v5.749A1.052,1.052,0,0,0,46.61,26.139ZM38.245,20.39h3.648v3.647H38.245Zm-1.051,5.749h5.75a1.051,1.051,0,0,0,1.051-1.051V19.34a1.051,1.051,0,0,0-1.051-1.052h-5.75a1.051,1.051,0,0,0-1.051,1.052v5.749A1.051,1.051,0,0,0,37.194,26.139Zm-4.718-2.1H28.829V20.39h3.647Zm1.051-5.749H27.778a1.051,1.051,0,0,0-1.051,1.052v5.749a1.051,1.051,0,0,0,1.051,1.051h5.749a1.051,1.051,0,0,0,1.052-1.051V19.34A1.051,1.051,0,0,0,33.527,18.288ZM51.88,41.825a1.051,1.051,0,0,0-.336,1.035l.388,1.652-1.452-.879a1.054,1.054,0,0,0-1.088,0l-1.452.879.388-1.652a1.051,1.051,0,0,0-.336-1.035l-1.285-1.109,1.691-.143a1.05,1.05,0,0,0,.882-.639l.657-1.563.658,1.563a1.047,1.047,0,0,0,.88.639l1.691.143Zm4.863-2.273a1.052,1.052,0,0,0-.911-.723l-3.547-.3L50.905,35.25a1.051,1.051,0,0,0-1.937,0l-1.381,3.283-3.547.3a1.051,1.051,0,0,0-.6,1.843L46.135,43l-.812,3.467a1.051,1.051,0,0,0,1.567,1.139l3.045-1.845,3.045,1.845a1.051,1.051,0,0,0,1.567-1.139L53.737,43l2.695-2.327a1.049,1.049,0,0,0,.312-1.12ZM49.935,50.758a8.725,8.725,0,1,0-8.724-8.724,8.737,8.737,0,0,0,8.724,8.724Zm0-19.552A10.827,10.827,0,1,0,60.764,42.034,10.84,10.84,0,0,0,49.935,31.206Zm0,23.04A12.213,12.213,0,1,0,37.723,42.034,12.225,12.225,0,0,0,49.935,54.247ZM39.12,53.6l-.753-.753,1.083-1.082q.363.389.753.753Zm-1.69,3.412-2.475-2.475,1.064-1.064,2.475,2.475Zm-7.507,7.507,6.02-6.02-2.474-2.475-6.021,6.02a1.75,1.75,0,0,0,2.475,2.475Zm8.321-30.739v-3.3h3.246A14.459,14.459,0,0,0,38.245,33.782ZM5.113,48.985a.649.649,0,0,0,.647.649H37.81a14.3,14.3,0,0,1-.937-13.452,1.049,1.049,0,0,1-.729-1V29.432a1.051,1.051,0,0,1,1.051-1.051h5.75a1.051,1.051,0,0,1,.977.665,14.305,14.305,0,0,1,12.273.114V14.982H5.113ZM5.76,6.377H8.2v2.03a2.117,2.117,0,0,0,2.114,2.115h2.227a2.117,2.117,0,0,0,2.114-2.115V6.377h6.36v2.03a2.117,2.117,0,0,0,2.115,2.115h2.226a2.116,2.116,0,0,0,2.114-2.115V6.377h6.361v2.03a2.117,2.117,0,0,0,2.114,2.115h2.225a2.117,2.117,0,0,0,2.115-2.115V6.377h6.36v2.03a2.117,2.117,0,0,0,2.114,2.115h2.227A2.117,2.117,0,0,0,53.1,8.406V6.377h2.444a.65.65,0,0,1,.648.649v5.853H5.113V7.026a.649.649,0,0,1,.647-.649Zm4.546-4.13v6.16a.017.017,0,0,0,.012.013h2.227s.012-.008.012-.013V2.246s-.009-.012-.011-.012H10.318a.017.017,0,0,0-.012.013Zm12.814,0v6.16a.017.017,0,0,0,.013.013h2.226s.012-.008.012-.013V2.246a.016.016,0,0,0-.011-.012H23.133a.017.017,0,0,0-.013.013Zm12.815,0v6.16a.018.018,0,0,0,.012.013h2.225s.013-.008.013-.013V2.246s-.009-.012-.01-.013H35.947a.017.017,0,0,0-.012.013Zm12.815,0v6.16a.017.017,0,0,0,.012.013h2.227S51,8.412,51,8.407V2.246s-.01-.012-.011-.012H48.762a.017.017,0,0,0-.012.013Zm9.545,28.174V7.026a2.754,2.754,0,0,0-2.749-2.751H53.1V2.246A2.116,2.116,0,0,0,50.988.132H48.761a2.117,2.117,0,0,0-2.114,2.115V4.275h-6.36V2.246A2.117,2.117,0,0,0,38.172.132H35.947a2.117,2.117,0,0,0-2.114,2.115V4.275H27.472V2.246A2.116,2.116,0,0,0,25.358.132H23.133a2.117,2.117,0,0,0-2.115,2.115V4.275h-6.36V2.246A2.116,2.116,0,0,0,12.544.132H10.317A2.116,2.116,0,0,0,8.2,2.246V4.275H5.76A2.754,2.754,0,0,0,3.01,7.026V48.985A2.753,2.753,0,0,0,5.76,51.736H34.787l-8.824,8.825a3.851,3.851,0,0,0,5.447,5.446l9.145-9.146a1.289,1.289,0,0,0,.049-1.77l1.249-1.249A14.309,14.309,0,0,0,58.295,30.421Z" fill-rule="evenodd"/>
      </g>
    </g>
  </g>
</svg>
