<svg xmlns="http://www.w3.org/2000/svg" xmlns:xlink="http://www.w3.org/1999/xlink" width="79.83" height="77.054" viewBox="0 0 79.83 77.054">
  <defs>
    <clipPath id="clip-path">
      <rect id="Rectangle_410685" data-name="Rectangle 410685" width="67" height="67" transform="translate(769.051 1898)" fill="#fff" stroke="#707070" stroke-width="1"/>
    </clipPath>
  </defs>
  <g id="Group_1209484" data-name="Group 1209484" transform="translate(-756.221 -1887.946)">
    <g id="Rectangle_410684" data-name="Rectangle 410684" transform="translate(756.221 1887.946)" fill="#e2dbf9" stroke="#b7a8f1" stroke-width="3">
      <rect width="70" height="70" rx="10" stroke="none"/>
      <rect x="1.5" y="1.5" width="67" height="67" rx="8.5" fill="none"/>
    </g>
    <g id="Mask_Group_1099336" data-name="Mask Group 1099336" clip-path="url(#clip-path)">
      <g id="Page-1" transform="translate(769.051 1897.997)">
        <g id="_026---Presenter" data-name="026---Presenter">
          <g id="Icons" transform="translate(1.117 1.117)">
            <path id="Shape" d="M41.317,25.694A4.467,4.467,0,0,1,36.85,30.15v2.434a4.476,4.476,0,0,1-1.53,3.372l-3.048,2.669-3.093,2.7a4.443,4.443,0,0,1-2.937,1.105h-3.35a4.443,4.443,0,0,1-2.937-1.105l-3.093-2.7-3.048-2.669a4.476,4.476,0,0,1-1.53-3.372V30.15a4.455,4.455,0,1,1,0-8.911v-.022s0-10.05,6.7-7.817,6.7,4.467,15.633,3.35a4.839,4.839,0,0,1,2.233,4.467v.022a4.467,4.467,0,0,1,4.467,4.455Z" fill="#ffe0b2"/>
            <path id="Shape-2" data-name="Shape" d="M36.85,21.239v-.022a4.839,4.839,0,0,0-2.233-4.467c-1.117.14-2.087.223-2.952.268a5.066,5.066,0,0,1,1.836,4.2v.022a4.455,4.455,0,1,1,0,8.911v2.434a4.476,4.476,0,0,1-1.53,3.372l-3.048,2.669-3.093,2.7a4.443,4.443,0,0,1-2.937,1.105h3.35a4.443,4.443,0,0,0,2.937-1.105l3.093-2.7,3.048-2.669a4.476,4.476,0,0,0,1.53-3.372V30.15a4.455,4.455,0,0,0,0-8.911Z" fill="#dfc49c"/>
            <path id="Shape-3" data-name="Shape" d="M39.083,13.433c0,6.689-2.233,7.805-2.233,7.805v-.022a4.839,4.839,0,0,0-2.233-4.467c-8.933,1.117-8.933-1.117-15.633-3.35s-6.7,7.817-6.7,7.817v.022s-6.7-11.144,2.233-15.6c0,0,5.181-9.3,17.532-4.009a.558.558,0,0,1,.022,1.016,3.908,3.908,0,0,0-1.507,1.217.558.558,0,0,0,.268.871c2.1.681,8.252,3.16,8.252,8.7Z" fill="sienna"/>
            <path id="Shape-4" data-name="Shape" d="M30.831,4.735a.558.558,0,0,1-.268-.871,3.908,3.908,0,0,1,1.507-1.217.558.558,0,0,0-.022-1.016A16.893,16.893,0,0,0,23.218.112,19.66,19.66,0,0,1,28.7,1.63a.558.558,0,0,1,.022,1.016,3.908,3.908,0,0,0-1.507,1.217.558.558,0,0,0,.268.871c2.1.681,8.252,3.16,8.252,8.7a20.784,20.784,0,0,1-.335,3.933,5.229,5.229,0,0,1,1.452,3.85v.022s2.233-1.117,2.233-7.805c0-5.539-6.153-8.018-8.252-8.7Z" fill="#783e22"/>
            <path id="Shape-5" data-name="Shape" d="M32.7,45.727,24.567,50.25l-8.129-4.522a18.553,18.553,0,0,0,.424-7.1l3.093,2.7a4.443,4.443,0,0,0,2.937,1.105h3.35a4.443,4.443,0,0,0,2.937-1.105l3.093-2.7a18.553,18.553,0,0,0,.424,7.1Z" fill="#ffe0b2"/>
            <path id="Shape-6" data-name="Shape" d="M29.033,64.767H20.1l2.233-7.817H26.8Z" fill="#f44335"/>
            <path id="Shape-7" data-name="Shape" d="M40.2,64.767H29.033L26.8,56.95l1.485-2.981,1.865,1.865,7.817-5.862V62.533A2.24,2.24,0,0,0,40.2,64.767Z" fill="#f5f5f5"/>
            <path id="Shape-8" data-name="Shape" d="M37.967,62.533V49.971l-3.35,2.512v10.05a2.24,2.24,0,0,0,2.233,2.233H40.2A2.24,2.24,0,0,1,37.967,62.533Z" fill="#cfd8dc"/>
            <path id="Shape-9" data-name="Shape" d="M22.333,56.95,20.1,64.767H1.117A1.117,1.117,0,0,1,0,63.65V55.208a1.09,1.09,0,0,1,.357-.826c2.133-1.82,6.689-3.607,10.273-4.813l8.353,6.264,1.865-1.865Z" fill="#f5f5f5"/>
            <path id="Shape-10" data-name="Shape" d="M37.967,48.017v1.954L30.15,55.833l-1.865-1.865L24.567,50.25,32.7,45.727l.447-.246a2.25,2.25,0,0,1,2.669.38Z" fill="#f5f5f5"/>
            <path id="Shape-11" data-name="Shape" d="M35.811,45.861a2.25,2.25,0,0,0-2.669-.38l-.447.246-.237.132,2.157,2.157v1.954l-5.9,4.426,1.436,1.436,7.817-5.862V48.017Z" fill="#cfd8dc"/>
            <path id="Shape-12" data-name="Shape" d="M28.285,53.968,26.8,56.95H22.333l-1.485-2.981,3.718-3.718Z" fill="#f44335"/>
            <path id="Shape-13" data-name="Shape" d="M24.567,50.25l-3.718,3.718-1.865,1.865-8.933-6.7,3.272-3.272a2.25,2.25,0,0,1,2.669-.38l.447.246Z" fill="#f5f5f5"/>
            <path id="Shape-14" data-name="Shape" d="M64.767,44.667V62.533a2.24,2.24,0,0,1-2.233,2.233H40.2a2.24,2.24,0,0,1-2.233-2.233V44.667A2.24,2.24,0,0,1,40.2,42.433h1.117a1.117,1.117,0,0,0,1.117-1.117V36.85l7.526,5.371a1.117,1.117,0,0,0,.648.212H62.533A2.24,2.24,0,0,1,64.767,44.667Z" fill="#02a9f4"/>
            <path id="Shape-15" data-name="Shape" d="M62.533,42.433h-3.35a2.24,2.24,0,0,1,2.233,2.233V62.533a2.24,2.24,0,0,1-2.233,2.233h3.35a2.24,2.24,0,0,0,2.233-2.233V44.667A2.24,2.24,0,0,0,62.533,42.433Z" fill="#0377bc"/>
          </g>
          <g id="Icons_copy">
            <path id="Shape-16" data-name="Shape" d="M27.917,34.617H23.45a1.117,1.117,0,0,0,0,2.233h4.467a1.117,1.117,0,1,0,0-2.233Z"/>
            <path id="Shape-17" data-name="Shape" d="M26.8,37.967H24.567a1.117,1.117,0,1,0,0,2.233H26.8a1.117,1.117,0,1,0,0-2.233Z"/>
            <path id="Shape-18" data-name="Shape" d="M22.333,25.683a1.117,1.117,0,0,0-1.117-1.117H18.983a1.117,1.117,0,1,0,0,2.233,1.117,1.117,0,1,0,2.233,0A1.117,1.117,0,0,0,22.333,25.683Z"/>
            <path id="Shape-19" data-name="Shape" d="M32.383,24.567H30.15a1.117,1.117,0,1,0,0,2.233,1.117,1.117,0,1,0,2.233,0,1.117,1.117,0,1,0,0-2.233Z"/>
            <path id="Shape-20" data-name="Shape" d="M24.567,32.383H26.8a1.117,1.117,0,1,0,0-2.233H24.567a1.117,1.117,0,1,0,0,2.233Z"/>
            <path id="Shape-21" data-name="Shape" d="M22.333,23.45a1.117,1.117,0,0,0,0-2.233H17.867a1.117,1.117,0,1,0,0,2.233Z"/>
            <path id="Shape-22" data-name="Shape" d="M29.033,23.45H33.5a1.117,1.117,0,1,0,0-2.233H29.033a1.117,1.117,0,1,0,0,2.233Z"/>
            <path id="Shape-23" data-name="Shape" d="M63.65,42.433H51.724L44.2,37.059a1.117,1.117,0,0,0-1.765.908v4.467H41.317a3.35,3.35,0,0,0-3.35,3.35v.654l-.249-.249a3.371,3.371,0,0,0-3.1-.893,17.633,17.633,0,0,1-.17-5l2.73-2.389a5.583,5.583,0,0,0,1.907-4.2V32.272A5.571,5.571,0,0,0,40,21.622a15.121,15.121,0,0,0,1.312-7.066c0-5.653-5.49-8.445-8.177-9.474a2.755,2.755,0,0,1,.507-.3,1.675,1.675,0,0,0-.035-3.069C21.81-3.332,15.96,4.243,14.852,5.9a8.822,8.822,0,0,0-4.594,5.414c-1.117,3.83.43,8.04,1.439,10.185a5.571,5.571,0,0,0,.586,10.77v1.435a5.583,5.583,0,0,0,1.907,4.2l2.73,2.389a17.633,17.633,0,0,1-.171,5,3.37,3.37,0,0,0-3.1.893l-3.272,3.272a1.1,1.1,0,0,0-.288.616c-3.36,1.194-7.3,2.839-9.34,4.575A2.193,2.193,0,0,0,0,56.325v8.442A2.233,2.233,0,0,0,2.233,67H63.65A3.35,3.35,0,0,0,67,63.65V45.783A3.35,3.35,0,0,0,63.65,42.433ZM25.683,52.946l2.361,2.361-.819,1.644H24.141l-.819-1.644Zm-1.39,6.238h2.78l1.6,5.583H22.7Zm4.817-1.005.6-1.2.767.767a1.117,1.117,0,0,0,1.459.1l6.03-4.522V63.65a3.312,3.312,0,0,0,.205,1.117H30.993ZM36.139,47.77,37.967,49.6v.934l-6.6,4.947L27.52,51.623,34.8,47.575a1.137,1.137,0,0,1,1.341.192ZM12.405,11.934a6.682,6.682,0,0,1,3.726-4.177,1.147,1.147,0,0,0,.476-.447,10.9,10.9,0,0,1,9.382-5.076,16.381,16.381,0,0,1,5.724,1.128,5.08,5.08,0,0,0-.929.947,1.675,1.675,0,0,0,.825,2.6c1.753.572,7.482,2.814,7.482,7.648A16.638,16.638,0,0,1,38.5,19.42a5.429,5.429,0,0,0-2.26-2.553,1.089,1.089,0,0,0-.638-.112c-5.975.748-7.655-.047-10.436-1.361a39,39,0,0,0-4.706-1.941,5.281,5.281,0,0,0-4.99.51,7.7,7.7,0,0,0-2.629,4.329,11.11,11.11,0,0,1-.437-6.359Zm2.112,21.773v-2.44A1.117,1.117,0,0,0,13.4,30.15a3.33,3.33,0,0,1-1.117-6.477v2.01a1.117,1.117,0,0,0,2.233,0v-3.35c0-1.372.4-5.223,2.251-6.554a3.148,3.148,0,0,1,2.979-.2A37.158,37.158,0,0,1,24.2,17.42c2.869,1.356,4.958,2.345,11.259,1.608a4.008,4.008,0,0,1,1.387,3.305v3.35a1.117,1.117,0,1,0,2.233,0v-2.01a3.33,3.33,0,0,1-1.117,6.477,1.117,1.117,0,0,0-1.117,1.117v2.44a3.35,3.35,0,0,1-1.143,2.521L29.565,41.6a3.35,3.35,0,0,1-2.207.829h-3.35A3.35,3.35,0,0,1,21.8,41.6L15.66,36.228a3.35,3.35,0,0,1-1.143-2.521Zm5.818,9.579a5.583,5.583,0,0,0,3.674,1.381h3.35a5.574,5.574,0,0,0,3.676-1.381l1.082-.947a19.318,19.318,0,0,0,.424,3.94l-6.857,3.811-6.854-3.811a19.312,19.312,0,0,0,.424-3.938Zm-5.107,4.482a1.13,1.13,0,0,1,1.34-.193l7.282,4.049L20,55.476,12.87,50.129ZM2.2,56.348c1.523-1.3,4.841-2.86,9.354-4.413l7.876,5.908a1.117,1.117,0,0,0,1.459-.1l.767-.767.6,1.2-1.883,6.591H11.167V62.533a1.117,1.117,0,1,0-2.233,0v2.233h-6.7Zm62.567,7.3a1.117,1.117,0,0,1-1.117,1.117H41.317A1.117,1.117,0,0,1,40.2,63.65V45.783a1.117,1.117,0,0,1,1.117-1.117h1.117a2.233,2.233,0,0,0,2.233-2.233v-2.3l5.761,4.115a2.213,2.213,0,0,0,1.3.415H63.65a1.117,1.117,0,0,1,1.117,1.117Z"/>
            <path id="Shape-24" data-name="Shape" d="M60.3,48.017H44.667a1.117,1.117,0,0,0,0,2.233H60.3a1.117,1.117,0,0,0,0-2.233Z"/>
            <path id="Shape-25" data-name="Shape" d="M60.3,53.6H44.667a1.117,1.117,0,0,0,0,2.233H60.3a1.117,1.117,0,0,0,0-2.233Z"/>
            <path id="Shape-26" data-name="Shape" d="M60.3,59.183H44.667a1.117,1.117,0,1,0,0,2.233H60.3a1.117,1.117,0,0,0,0-2.233Z"/>
          </g>
        </g>
      </g>
    </g>
  </g>
</svg>
