<svg xmlns="http://www.w3.org/2000/svg" xmlns:xlink="http://www.w3.org/1999/xlink" width="79.83" height="77.054" viewBox="0 0 79.83 77.054">
  <defs>
    <clipPath id="clip-path">
      <rect id="Rectangle_410685" data-name="Rectangle 410685" width="67" height="67" transform="translate(769.051 1898)" fill="#fff" stroke="#707070" stroke-width="1"/>
    </clipPath>
  </defs>
  <g id="Group_1209483" data-name="Group 1209483" transform="translate(-756.221 -1887.946)">
    <g id="Rectangle_410684" data-name="Rectangle 410684" transform="translate(756.221 1887.946)" fill="#e2dbf9" stroke="#b7a8f1" stroke-width="3">
      <rect width="70" height="70" rx="10" stroke="none"/>
      <rect x="1.5" y="1.5" width="67" height="67" rx="8.5" fill="none"/>
    </g>
    <g id="Mask_Group_1099337" data-name="Mask Group 1099337" clip-path="url(#clip-path)">
      <g id="Layer_5" data-name="Layer 5" transform="translate(767.97 1896.919)">
        <rect id="Rectangle_425944" data-name="Rectangle 425944" width="64.839" height="64.839" rx="4.323" transform="translate(2.161 2.161)" fill="#4c99f8"/>
        <rect id="Rectangle_425945" data-name="Rectangle 425945" width="62.677" height="64.839" rx="4.323" transform="translate(4.323 2.161)" fill="#64aaf8"/>
        <path id="Path_1281239" data-name="Path 1281239" d="M6.484,6.484H62.677V62.677H6.484Z" fill="#c8cded"/>
        <path id="Path_1281240" data-name="Path 1281240" d="M12.968,6.484A3.242,3.242,0,0,0,9.726,9.726v49.71a3.242,3.242,0,0,0,3.242,3.242h49.71V6.484Z" fill="#e2e7f6"/>
        <rect id="Rectangle_425946" data-name="Rectangle 425946" width="43.226" height="30.258" rx="4.323" transform="translate(12.968 25.935)" fill="#f4b357"/>
        <rect id="Rectangle_425947" data-name="Rectangle 425947" width="39.984" height="30.258" rx="4.323" transform="translate(16.21 25.935)" fill="#f6c866"/>
        <path id="Path_1281241" data-name="Path 1281241" d="M51.871,25.935H17.29A4.309,4.309,0,0,0,14.24,27.2L30.76,42.811a5.627,5.627,0,0,0,7.641,0L54.738,27.045a4.29,4.29,0,0,0-2.867-1.109Z" fill="#fae16f"/>
        <path id="Path_1281242" data-name="Path 1281242" d="M16.356,29.2l14.4,13.613a5.627,5.627,0,0,0,7.641,0L54.738,27.045a4.29,4.29,0,0,0-2.867-1.109H20.532A4.313,4.313,0,0,0,16.356,29.2Z" fill="#fdf384"/>
        <path id="Path_1281243" data-name="Path 1281243" d="M40.23,41.046,38.4,42.811a5.627,5.627,0,0,1-7.641,0l-1.848-1.746L14.24,54.932a4.309,4.309,0,0,0,3.051,1.261H51.871a4.309,4.309,0,0,0,3.051-1.261Z" fill="#fae16f"/>
        <path id="Path_1281244" data-name="Path 1281244" d="M47.548,12.968a9.716,9.716,0,0,0-7.068,16.394,10.685,10.685,0,0,1-1.215,2.514l-.363.545,1.034-.207a7.025,7.025,0,0,0,2.672-1.151,9.722,9.722,0,1,0,4.939-18.094Z" fill="#4c99f8"/>
        <path id="Path_1281245" data-name="Path 1281245" d="M42.609,31.061a9.721,9.721,0,1,0,6.02-18.03,9.712,9.712,0,0,0-5.987,16.33,10.826,10.826,0,0,1-1.1,2.313,7.1,7.1,0,0,0,1.068-.613Z" fill="#64aaf8"/>
        <path id="Path_1281246" data-name="Path 1281246" d="M55.112,65.919H6.484a3.246,3.246,0,0,1-3.242-3.242V6.484A3.246,3.246,0,0,1,6.484,3.242H9.726a1.081,1.081,0,0,0,0-2.161H6.484a5.41,5.41,0,0,0-5.4,5.4V62.677a5.41,5.41,0,0,0,5.4,5.4H55.112a1.081,1.081,0,1,0,0-2.161Z"/>
        <path id="Path_1281247" data-name="Path 1281247" d="M62.677,1.081H14.048a1.081,1.081,0,0,0,0,2.161H62.677a3.246,3.246,0,0,1,3.242,3.242V62.677a3.246,3.246,0,0,1-3.242,3.242H59.435a1.081,1.081,0,1,0,0,2.161h3.242a5.41,5.41,0,0,0,5.4-5.4V6.484a5.41,5.41,0,0,0-5.4-5.4Z"/>
        <path id="Path_1281248" data-name="Path 1281248" d="M5.4,6.484V62.677a1.081,1.081,0,0,0,1.081,1.081H62.677a1.081,1.081,0,0,0,1.081-1.081V6.484A1.081,1.081,0,0,0,62.677,5.4H6.484A1.081,1.081,0,0,0,5.4,6.484ZM7.565,7.565H61.6V61.6H7.565Z"/>
        <path id="Path_1281249" data-name="Path 1281249" d="M47.548,11.887a10.768,10.768,0,0,0-10.58,12.968H17.29a5.41,5.41,0,0,0-5.4,5.4V51.871a5.41,5.41,0,0,0,5.4,5.4h2.161a1.081,1.081,0,0,0,0-2.161H17.29a3.205,3.205,0,0,1-1.376-.318l13-12.285,1.125,1.064a6.7,6.7,0,0,0,9.085,0l1.125-1.064,13,12.285a3.205,3.205,0,0,1-1.376.318h-28.1a1.081,1.081,0,0,0,0,2.161h28.1a5.41,5.41,0,0,0,5.4-5.4V30.258a5.414,5.414,0,0,0-.423-2.093,10.785,10.785,0,0,0-9.3-16.278Zm0,2.161a8.645,8.645,0,1,1-4.389,16.083,1.081,1.081,0,0,0-1.173.047,6.043,6.043,0,0,1-.855.5q.2-.472.374-.975a1.081,1.081,0,0,0-.238-1.089,8.635,8.635,0,0,1,6.282-14.571ZM14.409,53.326a3.2,3.2,0,0,1-.361-1.455V30.258a3.2,3.2,0,0,1,.361-1.455L27.383,41.065ZM37.68,42.047a4.568,4.568,0,0,1-6.2,0L15.914,27.334a3.205,3.205,0,0,1,1.376-.318H37.655a10.815,10.815,0,0,0,1.589,2.578,9.274,9.274,0,0,1-.876,1.682L38,31.82a1.081,1.081,0,0,0,1.111,1.659l1.034-.207a8.032,8.032,0,0,0,2.5-.954,10.778,10.778,0,0,0,4.12,1.136Zm12.445-8.87A10.8,10.8,0,0,0,55.113,30.4V51.871a3.2,3.2,0,0,1-.361,1.455L41.779,41.065Z"/>
        <path id="Path_1281250" data-name="Path 1281250" d="M46.151,21.3l.317-.317v6.036a1.081,1.081,0,0,0,2.161,0V18.371a1.081,1.081,0,0,0-1.845-.764l-2.161,2.161A1.081,1.081,0,1,0,46.151,21.3Z"/>
      </g>
    </g>
  </g>
</svg>
