<svg xmlns="http://www.w3.org/2000/svg" xmlns:xlink="http://www.w3.org/1999/xlink" width="79.83" height="77.054" viewBox="0 0 79.83 77.054">
  <defs>
    <clipPath id="clip-path">
      <rect id="Rectangle_410685" data-name="Rectangle 410685" width="67" height="67" transform="translate(769.051 1898)" fill="#fff" stroke="#707070" stroke-width="1"/>
    </clipPath>
  </defs>
  <g id="Group_1209488" data-name="Group 1209488" transform="translate(-756.221 -1887.946)">
    <g id="Rectangle_410684" data-name="Rectangle 410684" transform="translate(756.221 1887.946)" fill="#e2dbf9" stroke="#b7a8f1" stroke-width="3">
      <rect width="70" height="70" rx="10" stroke="none"/>
      <rect x="1.5" y="1.5" width="67" height="67" rx="8.5" fill="none"/>
    </g>
    <g id="Mask_Group_1099334" data-name="Mask Group 1099334" clip-path="url(#clip-path)">
      <g id="mail_7286179" transform="translate(769.051 1898)">
        <rect id="Rectangle_425942" data-name="Rectangle 425942" width="50.457" height="34.778" rx="4.236" transform="translate(0.626 22.113)" fill="#6bddb3"/>
        <path id="Path_1281204" data-name="Path 1281204" d="M47.8,56.891H3.906a3.271,3.271,0,0,1-3.28-3.264V26.486l23,15.486h4.458l23-15.486V53.628a3.271,3.271,0,0,1-3.28,3.263Z" fill="#fcee86"/>
        <path id="Path_1281205" data-name="Path 1281205" d="M43.669,24.718H65.075a1.271,1.271,0,0,1,1.271,1.271v11.84a6.388,6.388,0,0,1-6.388,6.388H48.786A6.388,6.388,0,0,1,42.4,37.828V25.989a1.271,1.271,0,0,1,1.271-1.271Z" fill="#ff5364"/>
        <path id="Path_1281206" data-name="Path 1281206" d="M59.561,24.391V18.571a5.216,5.216,0,1,0-10.432,0v5.821H46.494V18.663a7.85,7.85,0,0,1,15.7,0v5.729Z" fill="#ff5364"/>
        <path id="Path_1281207" data-name="Path 1281207" d="M57.382,32.7a3.01,3.01,0,1,0-4.58,2.568v2.76a1.478,1.478,0,0,0,1.478,1.478h.186a1.478,1.478,0,0,0,1.478-1.478v-2.76A3.008,3.008,0,0,0,57.382,32.7Z" fill="#fcee86"/>
        <path id="Path_1281208" data-name="Path 1281208" d="M64.27,23.737h-.632V18.663a9.293,9.293,0,1,0-18.587,0v5.074h-.632a2.733,2.733,0,0,0-2.73,2.73V37.341a7.553,7.553,0,0,0,7.544,7.544H59.456A7.553,7.553,0,0,0,67,37.341V26.467A2.733,2.733,0,0,0,64.27,23.737ZM47.149,18.663a7.2,7.2,0,1,1,14.391,0v5.074H60.215V18.571a5.87,5.87,0,1,0-11.741,0v5.166H47.149Zm10.968,5.074H50.572V18.571a3.773,3.773,0,1,1,7.545,0Zm6.785,13.6a5.453,5.453,0,0,1-5.447,5.446H49.234a5.453,5.453,0,0,1-5.446-5.446V26.467a.633.633,0,0,1,.632-.632H64.271a.633.633,0,0,1,.632.632Z"/>
        <path id="Path_1281209" data-name="Path 1281209" d="M54.345,28.881A3.772,3.772,0,0,0,51.868,35.5v1.845a2.476,2.476,0,0,0,4.953,0V35.5a3.772,3.772,0,0,0-2.476-6.619Zm.877,5.2-.5.307v2.957a.378.378,0,1,1-.757,0V34.387l-.5-.307a1.676,1.676,0,1,1,1.753,0Z"/>
        <path id="Path_1281210" data-name="Path 1281210" d="M51.027,46.918a1.049,1.049,0,0,0-1.049,1.049v5a2.551,2.551,0,0,1-.334,1.262L37.62,40.611A1.049,1.049,0,1,0,36.047,42l11.9,13.475a2.562,2.562,0,0,1-.539.058H4.666a2.562,2.562,0,0,1-.565-.065L16.028,42a1.049,1.049,0,1,0-1.57-1.391L2.418,54.2a2.552,2.552,0,0,1-.321-1.24V28.393L21.623,41.848a7.823,7.823,0,0,0,8.829,0l8.864-6.108a1.049,1.049,0,1,0-1.191-1.727L29.262,40.12a5.713,5.713,0,0,1-6.448,0L2.1,25.849a2.57,2.57,0,0,1,2.563-2.465H39.325a1.049,1.049,0,1,0,0-2.1H4.666A4.672,4.672,0,0,0,0,25.953V52.964A4.672,4.672,0,0,0,4.666,57.63H47.409a4.672,4.672,0,0,0,4.666-4.667v-5a1.049,1.049,0,0,0-1.049-1.049Z"/>
        <path id="Path_1281211" data-name="Path 1281211" d="M64.27,23.737h-.632V18.663a9.293,9.293,0,1,0-18.587,0v5.074h-.632a2.733,2.733,0,0,0-2.73,2.73V37.341a7.553,7.553,0,0,0,7.544,7.544H59.456A7.553,7.553,0,0,0,67,37.341V26.467A2.733,2.733,0,0,0,64.27,23.737ZM47.149,18.663a7.2,7.2,0,1,1,14.391,0v5.074H60.215V18.571a5.87,5.87,0,1,0-11.741,0v5.166H47.149Zm10.968,5.074H50.572V18.571a3.773,3.773,0,1,1,7.545,0Zm6.785,13.6a5.453,5.453,0,0,1-5.447,5.446H49.234a5.453,5.453,0,0,1-5.446-5.446V26.467a.633.633,0,0,1,.632-.632H64.271a.633.633,0,0,1,.632.632Z"/>
      </g>
    </g>
  </g>
</svg>
