<svg xmlns="http://www.w3.org/2000/svg" xmlns:xlink="http://www.w3.org/1999/xlink" width="79.83" height="77.054" viewBox="0 0 79.83 77.054">
  <defs>
    <clipPath id="clip-path">
      <rect id="Rectangle_410685" data-name="Rectangle 410685" width="67" height="67" transform="translate(769.051 1898)" fill="#fff" stroke="#707070" stroke-width="1"/>
    </clipPath>
  </defs>
  <g id="Group_1209487" data-name="Group 1209487" transform="translate(-756.221 -1887.946)">
    <g id="Rectangle_410684" data-name="Rectangle 410684" transform="translate(756.221 1887.946)" fill="#e2dbf9" stroke="#b7a8f1" stroke-width="3">
      <rect width="70" height="70" rx="10" stroke="none"/>
      <rect x="1.5" y="1.5" width="67" height="67" rx="8.5" fill="none"/>
    </g>
    <g id="Mask_Group_1099335" data-name="Mask Group 1099335" clip-path="url(#clip-path)">
      <g id="Layer_31" data-name="Layer 31" transform="translate(767.97 1896.919)">
        <path id="Path_1281212" data-name="Path 1281212" d="M38.9,22.694H37.823l-3.242,4.323-3.242-4.323H30.258a6.484,6.484,0,0,0-6.484,6.484V33.5H45.387V29.177A6.484,6.484,0,0,0,38.9,22.694Z" fill="#2763bb"/>
        <g id="Group_1210092" data-name="Group 1210092">
          <path id="Path_1281213" data-name="Path 1281213" d="M34.581,10.806a7.273,7.273,0,0,1-5.4,3.2V17.29a5.4,5.4,0,1,0,10.806,0V14.007a7.267,7.267,0,0,1-5.4-3.2Z" fill="#fddfb1"/>
          <path id="Path_1281214" data-name="Path 1281214" d="M29.177,17.29V14.048H27.016a2.161,2.161,0,0,0,0,4.323h2.269a5.39,5.39,0,0,1-.108-1.081Z" fill="#fddfb1"/>
          <path id="Path_1281215" data-name="Path 1281215" d="M42.145,14.048H39.984V17.29a5.39,5.39,0,0,1-.108,1.081h2.269a2.161,2.161,0,1,0,0-4.323Z" fill="#fddfb1"/>
        </g>
        <path id="Path_1281216" data-name="Path 1281216" d="M42.145,14.048H40.639a7.281,7.281,0,0,1-6.058-3.242,7.284,7.284,0,0,1-6.051,3.242H27.016V12.968a7.565,7.565,0,1,1,15.129,0Z" fill="#686868"/>
        <path id="Path_1281217" data-name="Path 1281217" d="M34.581,10.806a7.273,7.273,0,0,1-5.4,3.2V17.29a5.356,5.356,0,0,0,1.105,3.242H33.5a4.323,4.323,0,0,0,4.323-4.323V13.471a7.268,7.268,0,0,1-3.242-2.665Z" fill="#feecd0"/>
        <path id="Path_1281218" data-name="Path 1281218" d="M31.339,22.694l3.242,4.323,3.242-4.323Z" fill="#fddfb1"/>
        <path id="Path_1281219" data-name="Path 1281219" d="M38.9,22.694H37.823l-3.242,4.323-3.242-4.323H30.258a6.484,6.484,0,0,0-6.484,6.484v2.161H37.823A3.242,3.242,0,0,0,41.065,28.1V23.071a6.452,6.452,0,0,0-2.161-.377Z" fill="#3079e6"/>
        <path id="Path_1281220" data-name="Path 1281220" d="M21.613,15.129V2.161H2.161V15.129h8.645l3.242,3.242V15.129Z" fill="#2763bb"/>
        <path id="Path_1281221" data-name="Path 1281221" d="M2.161,2.161V12.968H15.129a4.323,4.323,0,0,0,4.323-4.323V2.161Z" fill="#3079e6"/>
        <path id="Path_1281222" data-name="Path 1281222" d="M47.548,15.129V2.161H67V15.129H58.355l-3.242,3.242V15.129Z" fill="#f3a845"/>
        <path id="Path_1281223" data-name="Path 1281223" d="M47.548,2.161v9.726H61.6a3.242,3.242,0,0,0,3.242-3.242V2.161Z" fill="#eecc61"/>
        <path id="Path_1281224" data-name="Path 1281224" d="M4.323,37.823H64.839V67H4.323Z" fill="#686868"/>
        <path id="Path_1281225" data-name="Path 1281225" d="M4.323,37.823V62.677h49.71a5.4,5.4,0,0,0,5.4-5.4V37.823Z" fill="#939393"/>
        <rect id="Rectangle_425943" data-name="Rectangle 425943" width="30.258" height="12.968" rx="3.242" transform="translate(10.806 44.306)" fill="#bebebe"/>
        <path id="Path_1281226" data-name="Path 1281226" d="M2.161,33.5H67v4.323H2.161Z" fill="#bebebe"/>
        <path id="Path_1281227" data-name="Path 1281227" d="M36.742,49.71v8.645h3.242v4.323H29.177V58.355h3.242V54.032H29.177V49.71Z" fill="#fff"/>
        <circle id="Ellipse_12632" data-name="Ellipse 12632" cx="2.161" cy="2.161" r="2.161" transform="translate(32.419 42.145)" fill="#fff"/>
        <path id="Path_1281228" data-name="Path 1281228" d="M67,32.419H46.468V29.177a7.565,7.565,0,0,0-7.09-7.541,6.477,6.477,0,0,0,1.309-2.185h1.459a3.234,3.234,0,0,0,1.081-6.285v-.2a8.645,8.645,0,0,0-17.29,0v.2a3.234,3.234,0,0,0,1.081,6.285h1.459a6.477,6.477,0,0,0,1.309,2.185,7.565,7.565,0,0,0-7.09,7.541v3.242H2.161A1.081,1.081,0,0,0,1.081,33.5v4.323A1.081,1.081,0,0,0,2.161,38.9H3.242V67a1.081,1.081,0,0,0,1.081,1.081H64.839A1.081,1.081,0,0,0,65.919,67V38.9H67a1.081,1.081,0,0,0,1.081-1.081V33.5A1.081,1.081,0,0,0,67,32.419ZM30.258,17.29V14.946a8.342,8.342,0,0,0,4.323-2.411A8.321,8.321,0,0,0,38.9,14.95V17.29a4.323,4.323,0,1,1-8.645,0Zm5.4,6.484-1.081,1.44L33.5,23.774Zm6.484-6.484H41.065V15.129h1.081a1.081,1.081,0,1,1,0,2.161ZM34.581,6.484a6.49,6.49,0,0,1,6.484,6.484h-.432a6.188,6.188,0,0,1-5.158-2.76,1.081,1.081,0,0,0-1.8,0,6.192,6.192,0,0,1-5.147,2.76H28.1a6.49,6.49,0,0,1,6.484-6.484ZM27.016,17.29a1.081,1.081,0,0,1,0-2.161H28.1V17.29ZM24.855,29.177a5.41,5.41,0,0,1,5.4-5.4h.54l2.918,3.89a1.081,1.081,0,0,0,1.729,0l2.918-3.89h.54a5.41,5.41,0,0,1,5.4,5.4v3.242H42.145V28.1H39.984v4.323H29.177V28.1H27.016v4.323H24.855Zm38.9,36.742H5.4V38.9H63.758Zm2.161-29.177H3.242V34.581H65.919Z"/>
        <path id="Path_1281229" data-name="Path 1281229" d="M67,1.081H47.548a1.081,1.081,0,0,0-1.081,1.081V15.129a1.081,1.081,0,0,0,1.081,1.081h6.484v2.161a1.081,1.081,0,0,0,.667,1,1.067,1.067,0,0,0,.414.082,1.081,1.081,0,0,0,.764-.316L58.8,16.21H67a1.081,1.081,0,0,0,1.081-1.081V2.161A1.081,1.081,0,0,0,67,1.081ZM65.919,14.048H58.355a1.08,1.08,0,0,0-.764.316l-1.4,1.4v-.633a1.081,1.081,0,0,0-1.081-1.081H48.629V3.242h17.29Z"/>
        <path id="Path_1281230" data-name="Path 1281230" d="M50.79,5.4H63.758V7.565H50.79Z"/>
        <path id="Path_1281231" data-name="Path 1281231" d="M50.79,9.726h8.645v2.161H50.79Z"/>
        <path id="Path_1281232" data-name="Path 1281232" d="M61.6,9.726h2.161v2.161H61.6Z"/>
        <path id="Path_1281233" data-name="Path 1281233" d="M2.161,16.21h8.2l2.925,2.925a1.081,1.081,0,0,0,.764.317,1.067,1.067,0,0,0,.414-.082,1.081,1.081,0,0,0,.667-1V16.21h6.484a1.081,1.081,0,0,0,1.081-1.081V2.161a1.081,1.081,0,0,0-1.081-1.081H2.161A1.081,1.081,0,0,0,1.081,2.161V15.129A1.081,1.081,0,0,0,2.161,16.21ZM3.242,3.242h17.29V14.048H14.048a1.081,1.081,0,0,0-1.081,1.081v.633l-1.4-1.4a1.081,1.081,0,0,0-.764-.317H3.242Z"/>
        <path id="Path_1281234" data-name="Path 1281234" d="M5.4,5.4H18.371V7.565H5.4Z"/>
        <path id="Path_1281235" data-name="Path 1281235" d="M9.726,9.726h8.645v2.161H9.726Z"/>
        <path id="Path_1281236" data-name="Path 1281236" d="M5.4,9.726H7.565v2.161H5.4Z"/>
        <path id="Path_1281237" data-name="Path 1281237" d="M29.177,57.274A1.081,1.081,0,0,0,28.1,58.355v4.323a1.081,1.081,0,0,0,1.081,1.081H39.984a1.081,1.081,0,0,0,1.081-1.081V58.355a1.081,1.081,0,0,0-1.081-1.081H37.823V49.71a1.081,1.081,0,0,0-1.081-1.081H29.177A1.081,1.081,0,0,0,28.1,49.71v4.323a1.081,1.081,0,0,0,1.081,1.081h2.161v2.161Zm3.242-4.323H30.258V50.79h5.4v7.565a1.081,1.081,0,0,0,1.081,1.081H38.9V61.6H30.258V59.435h2.161A1.081,1.081,0,0,0,33.5,58.355V54.032A1.081,1.081,0,0,0,32.419,52.952Z"/>
        <path id="Path_1281238" data-name="Path 1281238" d="M34.581,47.548a3.242,3.242,0,1,0-3.242-3.242A3.242,3.242,0,0,0,34.581,47.548Zm0-4.323A1.081,1.081,0,1,1,33.5,44.306,1.081,1.081,0,0,1,34.581,43.226Z"/>
      </g>
    </g>
  </g>
</svg>
