<svg xmlns="http://www.w3.org/2000/svg" xmlns:xlink="http://www.w3.org/1999/xlink" width="79.83" height="77.054" viewBox="0 0 79.83 77.054">
  <defs>
    <clipPath id="clip-path">
      <rect id="Rectangle_410685" data-name="Rectangle 410685" width="67" height="67" transform="translate(769.051 1898)" fill="#fff" stroke="#707070" stroke-width="1"/>
    </clipPath>
    <clipPath id="clip-path-2">
      <path id="path6888" d="M0-67H67V0H0Z"/>
    </clipPath>
  </defs>
  <g id="Group_1209489" data-name="Group 1209489" transform="translate(-756.221 -1887.946)">
    <g id="Rectangle_410684" data-name="Rectangle 410684" transform="translate(756.221 1887.946)" fill="#e2dbf9" stroke="#b7a8f1" stroke-width="3">
      <rect width="70" height="70" rx="10" stroke="none"/>
      <rect x="1.5" y="1.5" width="67" height="67" rx="8.5" fill="none"/>
    </g>
    <g id="Mask_Group_1099333" data-name="Mask Group 1099333" clip-path="url(#clip-path)">
      <g id="g6882" transform="translate(769.051 1965)">
        <g id="g6884">
          <g id="g6886" clip-path="url(#clip-path-2)">
            <g id="g6892" transform="translate(6.824 -52.609)">
              <path id="path6894" d="M0,0H29.87a5.843,5.843,0,0,1,5.843,5.843V17.01a5.843,5.843,0,0,1-5.843,5.843H2.21l-8.053,5.876V5.843A5.843,5.843,0,0,1,0,0" fill="#da4a54"/>
            </g>
            <g id="g6896" transform="translate(11.003 -52.609)">
              <path id="path6898" d="M0,0A5.843,5.843,0,0,0-5.843,5.843V25.681l-4.178,3.049V5.843A5.843,5.843,0,0,1-4.178,0Z" fill="#c32430"/>
            </g>
            <g id="g6900" transform="translate(26.753 -29.756)">
              <path id="path6902" d="M0,0H-17.718l-8.053,5.876V-17.01a5.843,5.843,0,0,1,5.843-5.843H4.945" fill="none" stroke="#000" stroke-linecap="round" stroke-linejoin="round" stroke-miterlimit="10" stroke-width="1.963"/>
            </g>
            <g id="g6904" transform="translate(42.537 -36.533)">
              <path id="path6906" d="M0,0V.934A5.829,5.829,0,0,1-2.29,5.572" fill="none" stroke="#000" stroke-linecap="round" stroke-linejoin="round" stroke-miterlimit="10" stroke-width="1.963"/>
            </g>
            <g id="g6908" transform="translate(6.598 -41.145)">
              <path id="path6910" d="M0,0H30.323" fill="none" stroke="#000" stroke-linecap="round" stroke-linejoin="round" stroke-miterlimit="10" stroke-width="1.963"/>
            </g>
            <g id="g6912" transform="translate(6.598 -45.872)">
              <path id="path6914" d="M0,0H30.323" fill="none" stroke="#000" stroke-linecap="round" stroke-linejoin="round" stroke-miterlimit="10" stroke-width="1.963"/>
            </g>
            <g id="g6916" transform="translate(6.598 -36.417)">
              <path id="path6918" d="M0,0H17.8" fill="none" stroke="#000" stroke-linecap="round" stroke-linejoin="round" stroke-miterlimit="10" stroke-width="1.963"/>
            </g>
            <g id="g6920" transform="translate(60.176 -30.961)">
              <path id="path6922" d="M0,0H-29.87a5.843,5.843,0,0,0-5.843,5.843V17.01a5.843,5.843,0,0,0,5.843,5.843H-2.21l8.053,5.876V5.843A5.843,5.843,0,0,0,0,0" fill="#7ad0df"/>
            </g>
            <g id="g6924" transform="translate(28.641 -25.117)">
              <path id="path6926" d="M0,0V11.166a5.843,5.843,0,0,0,5.843,5.843H1.665a5.843,5.843,0,0,1-5.843-5.843V0A5.843,5.843,0,0,1,1.665-5.843H5.843A5.843,5.843,0,0,0,0,0" fill="#6bbcd5"/>
            </g>
            <g id="g6928" transform="translate(24.463 -16.93)">
              <path id="path6930" d="M0,0V2.98A5.843,5.843,0,0,0,5.843,8.823H33.5L41.556,14.7V-8.188a5.844,5.844,0,0,0-5.843-5.843H5.843A5.844,5.844,0,0,0,0-8.188v4.265" fill="none" stroke="#000" stroke-linecap="round" stroke-linejoin="round" stroke-miterlimit="10" stroke-width="1.963"/>
            </g>
            <g id="g6932" transform="translate(30.079 -19.496)">
              <path id="path6934" d="M0,0H30.323" fill="none" stroke="#000" stroke-linecap="round" stroke-linejoin="round" stroke-miterlimit="10" stroke-width="1.963"/>
            </g>
            <g id="g6936" transform="translate(30.079 -24.224)">
              <path id="path6938" d="M0,0H30.323" fill="none" stroke="#000" stroke-linecap="round" stroke-linejoin="round" stroke-miterlimit="10" stroke-width="1.963"/>
            </g>
            <g id="g6940" transform="translate(30.079 -14.769)">
              <path id="path6942" d="M0,0H17.8" fill="none" stroke="#000" stroke-linecap="round" stroke-linejoin="round" stroke-miterlimit="10" stroke-width="1.963"/>
            </g>
            <g id="g6944" transform="translate(31.538 -50.458)">
              <path id="path6946" d="M0,0A14.311,14.311,0,0,0,14.311,14.311,14.311,14.311,0,0,0,28.622,0,14.311,14.311,0,0,0,14.311-14.311,14.311,14.311,0,0,0,0,0" fill="#80e29d"/>
            </g>
            <g id="g6948" transform="translate(47.664 -36.26)">
              <path id="path6950" d="M0,0A14.324,14.324,0,0,1-1.814.114,14.312,14.312,0,0,1-16.126-14.2,14.312,14.312,0,0,1-1.814-28.509,14.324,14.324,0,0,1,0-28.4,14.314,14.314,0,0,0-12.5-14.2,14.314,14.314,0,0,0,0,0" fill="#6ec186"/>
            </g>
            <g id="g6952" transform="translate(58.567 -57.026)">
              <path id="path6954" d="M0,0A14.247,14.247,0,0,1,1.593,6.568,14.311,14.311,0,0,1-12.718,20.879,14.312,14.312,0,0,1-27.03,6.568,14.312,14.312,0,0,1-12.718-7.743,14.263,14.263,0,0,1-2.261-3.2" fill="none" stroke="#000" stroke-linecap="round" stroke-linejoin="round" stroke-miterlimit="10" stroke-width="1.963"/>
            </g>
            <path id="path6956" d="M45.849-45.13H39.631V-55.786h6.217Z" fill="#f6e4c1"/>
            <g id="g6958" transform="translate(52.066 -41.986)">
              <path id="path6960" d="M0,0-6.218-3.144V-13.8L0-16.944Z" fill="#f6e4c1"/>
            </g>
            <path id="path6962" d="M45.849-45.13H39.631V-55.786h6.217Z" fill="none" stroke="#000" stroke-linecap="round" stroke-linejoin="round" stroke-miterlimit="10" stroke-width="1.963"/>
            <g id="g6964" transform="translate(52.066 -41.986)">
              <path id="path6966" d="M0,0-6.218-3.144V-13.8L0-16.944Z" fill="none" stroke="#000" stroke-linecap="round" stroke-linejoin="round" stroke-miterlimit="10" stroke-width="1.963"/>
            </g>
            <g id="g6968" transform="translate(36.791 -55.987)">
              <path id="path6970" d="M0,0,18.116,11.059" fill="none" stroke="#000" stroke-linecap="round" stroke-linejoin="round" stroke-miterlimit="10" stroke-width="1.963"/>
            </g>
          </g>
        </g>
      </g>
    </g>
  </g>
</svg>
