<svg xmlns="http://www.w3.org/2000/svg" xmlns:xlink="http://www.w3.org/1999/xlink" width="79.83" height="77.054" viewBox="0 0 79.83 77.054">
  <defs>
    <clipPath id="clip-path">
      <rect id="Rectangle_410685" data-name="Rectangle 410685" width="67" height="67" transform="translate(769.051 1898)" fill="#fff" stroke="#707070" stroke-width="1"/>
    </clipPath>
  </defs>
  <g id="Group_1209565" data-name="Group 1209565" transform="translate(-756.221 -1887.946)">
    <g id="Rectangle_410684" data-name="Rectangle 410684" transform="translate(756.221 1887.946)" fill="#e2dbf9" stroke="#b7a8f1" stroke-width="3">
      <rect width="70" height="70" rx="10" stroke="none"/>
      <rect x="1.5" y="1.5" width="67" height="67" rx="8.5" fill="none"/>
    </g>
    <g id="Mask_Group_1099339" data-name="Mask Group 1099339" clip-path="url(#clip-path)">
      <g id="Layer_1" transform="translate(768.473 1897.422)">
        <g id="Group_1210115" data-name="Group 1210115">
          <g id="Group_1210114" data-name="Group 1210114">
            <g id="Group_1210101" data-name="Group 1210101">
              <g id="Group_1210095" data-name="Group 1210095">
                <path id="Path_1281275" data-name="Path 1281275" d="M66.913,11.491V63.858a1.331,1.331,0,0,1-1.331,1.331H2.574a1.331,1.331,0,0,1-1.331-1.331V11.491Z" fill="#72c1e8"/>
              </g>
              <g id="Group_1210096" data-name="Group 1210096">
                <path id="Path_1281276" data-name="Path 1281276" d="M66.913,4.3v7.194H1.243V4.3A1.331,1.331,0,0,1,2.574,2.966H65.582A1.331,1.331,0,0,1,66.913,4.3Z" fill="#878787"/>
              </g>
              <g id="Group_1210097" data-name="Group 1210097">
                <circle id="Ellipse_12638" data-name="Ellipse 12638" cx="1.633" cy="1.633" r="1.633" transform="translate(4.692 5.596)" fill="#fc5d3d"/>
              </g>
              <g id="Group_1210098" data-name="Group 1210098">
                <circle id="Ellipse_12639" data-name="Ellipse 12639" cx="1.633" cy="1.633" r="1.633" transform="translate(10.987 5.596)" fill="#f0c020"/>
              </g>
              <g id="Group_1210099" data-name="Group 1210099">
                <circle id="Ellipse_12640" data-name="Ellipse 12640" cx="1.633" cy="1.633" r="1.633" transform="translate(17.283 5.596)" fill="#13bf6d"/>
              </g>
              <g id="Group_1210100" data-name="Group 1210100">
                <path id="Path_1281277" data-name="Path 1281277" d="M64.251,63.125H10.407a.666.666,0,0,1,0-1.331H63.585V15.135a.666.666,0,0,1,1.331,0V62.46A.665.665,0,0,1,64.251,63.125Zm-56.506,0H4.692a.666.666,0,0,1,0-1.331H7.745a.666.666,0,0,1,0,1.331Z" fill="#c5e5fe"/>
              </g>
            </g>
            <g id="Group_1210108" data-name="Group 1210108">
              <g id="Group_1210102" data-name="Group 1210102">
                <path id="Path_1281278" data-name="Path 1281278" d="M26.122,45.538v6.64a7.749,7.749,0,0,0,.122,1.386,7.955,7.955,0,0,0,15.668,0,7.87,7.87,0,0,0,.122-1.386v-6.64Z" fill="#ffb69f"/>
              </g>
              <g id="Group_1210103" data-name="Group 1210103">
                <path id="Path_1281279" data-name="Path 1281279" d="M42.44,38.388,41,37.4a2.731,2.731,0,0,1-2.682,2.222H29.734a3.613,3.613,0,0,0-3.612,3.612v2.3H42.034l1-1.008a4.022,4.022,0,0,0-.59-6.141Z" fill="#7c7b7a"/>
              </g>
              <g id="Group_1210104" data-name="Group 1210104">
                <path id="Path_1281280" data-name="Path 1281280" d="M26.122,45.538v4.5l3.2-4.5Z" fill="#afafaf"/>
              </g>
              <g id="Group_1210105" data-name="Group 1210105">
                <path id="Path_1281281" data-name="Path 1281281" d="M38.838,45.538l3.2,4.5v-4.5Z" fill="#afafaf"/>
              </g>
              <g id="Group_1210106" data-name="Group 1210106">
                <path id="Path_1281282" data-name="Path 1281282" d="M26.122,52.178a7.749,7.749,0,0,0,.122,1.386h-.926a2.29,2.29,0,0,1,0-4.579h.8Z" fill="#ffb69f"/>
              </g>
              <g id="Group_1210107" data-name="Group 1210107">
                <path id="Path_1281283" data-name="Path 1281283" d="M45.127,51.274a2.288,2.288,0,0,1-2.29,2.29h-.926a7.87,7.87,0,0,0,.122-1.386V48.985h.8a2.289,2.289,0,0,1,2.29,2.289Z" fill="#ffb69f"/>
              </g>
            </g>
            <g id="Group_1210113" data-name="Group 1210113">
              <g id="Group_1210109" data-name="Group 1210109">
                <path id="Path_1281284" data-name="Path 1281284" d="M9.668,17.329V32.105A1.331,1.331,0,0,0,11,33.436H31.931l2.146,3.1,2.146-3.1H57.156A1.331,1.331,0,0,0,58.487,32.1V17.329A1.331,1.331,0,0,0,57.156,16H11a1.332,1.332,0,0,0-1.331,1.331Z" fill="#efefef"/>
              </g>
              <g id="Group_1210110" data-name="Group 1210110">
                <path id="Path_1281285" data-name="Path 1281285" d="M53.176,22.985l-2.458-.615L49.4,20.242a.8.8,0,0,0-1.358,0L46.722,22.37l-2.458.615a.8.8,0,0,0-.41,1.3l1.633,1.888-.2,2.538a.8.8,0,0,0,1.108.8l2.322-.987,2.322.986a.8.8,0,0,0,1.108-.8l-.2-2.538,1.633-1.888a.8.8,0,0,0-.41-1.3Z" fill="#f0c020"/>
              </g>
              <g id="Group_1210111" data-name="Group 1210111">
                <path id="Path_1281286" data-name="Path 1281286" d="M38.534,22.985l-2.458-.615-1.319-2.128a.8.8,0,0,0-1.358,0L32.08,22.37l-2.458.615a.8.8,0,0,0-.41,1.3l1.633,1.888-.2,2.538a.8.8,0,0,0,1.108.8l2.322-.987,2.322.986a.8.8,0,0,0,1.108-.8l-.2-2.538,1.633-1.888a.8.8,0,0,0-.41-1.3Z" fill="#f0c020"/>
              </g>
              <g id="Group_1210112" data-name="Group 1210112">
                <path id="Path_1281287" data-name="Path 1281287" d="M23.891,22.985l-2.458-.615-1.319-2.128a.8.8,0,0,0-1.358,0L17.437,22.37l-2.458.615a.8.8,0,0,0-.41,1.3L16.2,26.17,16,28.708a.8.8,0,0,0,1.108.8l2.322-.987,2.322.986a.8.8,0,0,0,1.108-.8l-.2-2.538L24.3,24.282A.8.8,0,0,0,23.891,22.985Z" fill="#f0c020"/>
              </g>
            </g>
          </g>
          <path id="Path_1281288" data-name="Path 1281288" d="M1.243,48.3a.664.664,0,1,0-.666-.663A.667.667,0,0,0,1.243,48.3Z"/>
          <path id="Path_1281289" data-name="Path 1281289" d="M.578,63.858a2,2,0,0,0,2,2H65.581a2,2,0,0,0,2-2V4.3a2,2,0,0,0-2-2H41.21a.666.666,0,1,0,0,1.331H65.581a.668.668,0,0,1,.666.666v6.528H1.909V4.3a.668.668,0,0,1,.666-.666H35.885a.666.666,0,1,0,0-1.331H2.574a2,2,0,0,0-2,2V44.975a.666.666,0,1,0,1.331,0V12.156H66.247v51.7a.668.668,0,0,1-.666.666H2.574a.668.668,0,0,1-.666-.666V50.3a.666.666,0,0,0-1.331,0Z"/>
          <circle id="Ellipse_12641" data-name="Ellipse 12641" cx="0.666" cy="0.666" r="0.666" transform="translate(37.882 2.3)"/>
          <path id="Path_1281290" data-name="Path 1281290" d="M4.025,7.228a2.3,2.3,0,1,0,2.3-2.3,2.3,2.3,0,0,0-2.3,2.3Zm3.267,0a.968.968,0,1,1-.966-.966.972.972,0,0,1,.966.966Z"/>
          <path id="Path_1281291" data-name="Path 1281291" d="M10.322,7.228a2.3,2.3,0,1,0,2.3-2.3,2.3,2.3,0,0,0-2.3,2.3Zm3.267,0a.968.968,0,1,1-.969-.966.972.972,0,0,1,.969.966Z"/>
          <path id="Path_1281292" data-name="Path 1281292" d="M16.618,7.228a2.3,2.3,0,1,0,2.3-2.3,2.3,2.3,0,0,0-2.3,2.3Zm3.264,0a.966.966,0,1,1-.966-.966.968.968,0,0,1,.966.966Z"/>
          <path id="Path_1281293" data-name="Path 1281293" d="M25.047,7.229a.665.665,0,0,0,.666.666H63.1a.666.666,0,1,0,0-1.331H25.712a.665.665,0,0,0-.666.666Z"/>
          <path id="Path_1281294" data-name="Path 1281294" d="M43.5,45a4.689,4.689,0,0,0-.687-7.16l-1.441-.986a.666.666,0,0,0-1.03.425,2.066,2.066,0,0,1-2.028,1.68H29.733a4.282,4.282,0,0,0-4.277,4.277v5.084h-.138a2.955,2.955,0,0,0,0,5.91h.388a8.607,8.607,0,0,0,8.366,6.57h0a8.6,8.6,0,0,0,8.376-6.57h.387a2.955,2.955,0,1,0,0-5.91H42.7V45.812ZM41.368,46.2v1.75L40.127,46.2ZM29.734,40.289h8.583a3.4,3.4,0,0,0,3.022-1.848l.725.5a3.357,3.357,0,0,1,.491,5.124l-.8.81H26.787V43.236a2.949,2.949,0,0,1,2.946-2.946ZM26.787,46.2h1.241l-1.241,1.75ZM25.318,52.9a1.624,1.624,0,1,1,0-3.248h.138v2.527c0,.236.013.515.03.72h-.168Zm8.756,6.57h0a7.287,7.287,0,0,1-7.285-7.291V50.254l2.873-4.05h8.834l2.873,4.05v1.924A7.281,7.281,0,0,1,34.074,59.468Zm8.764-9.818a1.624,1.624,0,1,1,0,3.248h-.168c.017-.2.03-.485.03-.72V49.65h.138Z"/>
          <path id="Path_1281295" data-name="Path 1281295" d="M36.628,54.109a.676.676,0,0,0-.855.391,1.812,1.812,0,0,1-3.389,0,.677.677,0,0,0-.855-.391.666.666,0,0,0-.394.852s0,0,0,0a3.141,3.141,0,0,0,5.881,0,.668.668,0,0,0-.391-.857Z"/>
          <path id="Path_1281296" data-name="Path 1281296" d="M30.375,48.941a.665.665,0,0,0-.666.666v.469a.666.666,0,1,0,1.331,0v-.469A.665.665,0,0,0,30.375,48.941Z"/>
          <path id="Path_1281297" data-name="Path 1281297" d="M37.78,48.941a.665.665,0,0,0-.666.666v.469a.666.666,0,0,0,1.331,0v-.469A.665.665,0,0,0,37.78,48.941Z"/>
          <path id="Path_1281298" data-name="Path 1281298" d="M34.078,52.878a.665.665,0,0,0,.666-.666V50.075a.666.666,0,0,0-1.331,0v2.137A.665.665,0,0,0,34.078,52.878Z"/>
          <path id="Path_1281299" data-name="Path 1281299" d="M53.337,22.34l-2.2-.551-1.177-1.9v0a1.464,1.464,0,0,0-2.487,0l-1.177,1.9-2.2.551a1.463,1.463,0,0,0-.751,2.377L44.8,26.394l-.176,2.252a1.469,1.469,0,0,0,2.034,1.472l2.061-.876,2.061.876a1.47,1.47,0,0,0,2.034-1.462l-.178-2.263,1.454-1.677a1.462,1.462,0,0,0-.753-2.377Zm-.256,1.51-1.632,1.885a.664.664,0,0,0-.16.487c0,.016.2,2.534.2,2.55a.134.134,0,0,1-.186.12l-2.319-.985a.682.682,0,0,0-.522,0l-2.322.985a.132.132,0,0,1-.186-.12v0l.2-2.548a.664.664,0,0,0-.16-.487l-1.635-1.888a.133.133,0,0,1,.069-.216l2.457-.615a.655.655,0,0,0,.4-.3l1.318-2.127a.132.132,0,0,1,.226,0l1.321,2.127a.671.671,0,0,0,.4.3l2.457.615a.133.133,0,0,1,.067.219Z"/>
          <path id="Path_1281300" data-name="Path 1281300" d="M39.8,23.761a1.457,1.457,0,0,0-1.11-1.422l-2.2-.551-1.177-1.9v0a1.465,1.465,0,0,0-1.233-.69h-.021a1.461,1.461,0,0,0-1.233.692l-1.177,1.9-2.2.551a1.457,1.457,0,0,0-1.11,1.422,1.439,1.439,0,0,0,.357.956l1.451,1.677-.173,2.252a.986.986,0,0,0-.005.125,1.471,1.471,0,0,0,1.462,1.464h.005a1.514,1.514,0,0,0,.57-.117l2.061-.876,2.061.876a1.528,1.528,0,0,0,.575.114,1.471,1.471,0,0,0,1.462-1.462c0-.035,0-.074,0-.114l-.178-2.263,1.454-1.677a1.445,1.445,0,0,0,.357-.956Zm-1.366.088-1.632,1.885a.664.664,0,0,0-.16.487l.2,2.537v.013a.138.138,0,0,1-.13.13.127.127,0,0,1-.053-.011l-2.322-.985a.682.682,0,0,0-.522,0l-2.322.985a.133.133,0,0,1-.186-.12l.2-2.55a.664.664,0,0,0-.16-.487l-1.635-1.888a.112.112,0,0,1-.032-.083.13.13,0,0,1,.1-.133l2.457-.615a.672.672,0,0,0,.4-.3l1.321-2.127a.13.13,0,0,1,.224,0,0,0,0,0,1,0,0L35.51,22.72a.654.654,0,0,0,.4.3l2.457.615a.132.132,0,0,1,.1.13.142.142,0,0,1-.035.088Z"/>
          <path id="Path_1281301" data-name="Path 1281301" d="M25.162,23.761a1.457,1.457,0,0,0-1.11-1.422l-2.2-.551-1.174-1.9a1.462,1.462,0,0,0-1.235-.695h-.021a1.469,1.469,0,0,0-1.235.692l-1.177,1.9-2.194.551a1.457,1.457,0,0,0-1.11,1.422,1.439,1.439,0,0,0,.357.956l1.451,1.677-.173,2.252a.957.957,0,0,0-.008.125A1.476,1.476,0,0,0,16.8,30.236H16.8a1.49,1.49,0,0,0,.567-.117l2.063-.876,2.063.876a1.5,1.5,0,0,0,.572.114,1.469,1.469,0,0,0,1.462-1.462c0-.037,0-.077,0-.114l-.176-2.263L24.8,24.718a1.46,1.46,0,0,0,.357-.956Zm-1.366.088-1.632,1.885a.664.664,0,0,0-.16.487l.2,2.54v.01a.138.138,0,0,1-.13.13.148.148,0,0,1-.056-.011L19.7,27.906a.682.682,0,0,0-.522,0l-2.322.985a.134.134,0,0,1-.186-.117l.2-2.553a.664.664,0,0,0-.16-.487l-1.635-1.888a.112.112,0,0,1-.032-.083.132.132,0,0,1,.1-.133l2.457-.615a.672.672,0,0,0,.4-.3l1.318-2.127a.128.128,0,0,1,.114-.064.122.122,0,0,1,.112.064,0,0,0,0,1,0,0l1.318,2.125a.671.671,0,0,0,.4.3l2.457.615a.132.132,0,0,1,.1.13.117.117,0,0,1-.035.088Z"/>
          <circle id="Ellipse_12642" data-name="Ellipse 12642" cx="0.666" cy="0.666" r="0.666" transform="translate(54.109 32.771)"/>
          <path id="Path_1281302" data-name="Path 1281302" d="M57.3,32.757a.663.663,0,0,0-.511.788.674.674,0,0,0,.791.511A2,2,0,0,0,59.151,32.1V17.329a2,2,0,0,0-1.994-2H11a2,2,0,0,0-2,2V32.1a2,2,0,0,0,2,2H31.583l1.946,2.817a.671.671,0,0,0,1.1,0L36.572,34.1h15.54a.666.666,0,0,0,0-1.331H36.224a.658.658,0,0,0-.546.288l-1.6,2.311-1.6-2.311a.658.658,0,0,0-.546-.288H11a.666.666,0,0,1-.666-.666V17.329A.666.666,0,0,1,11,16.663H57.157a.665.665,0,0,1,.663.666V32.1a.666.666,0,0,1-.524.652Z"/>
        </g>
      </g>
    </g>
  </g>
</svg>
