<svg xmlns="http://www.w3.org/2000/svg" xmlns:xlink="http://www.w3.org/1999/xlink" width="79.83" height="77.054" viewBox="0 0 79.83 77.054">
  <defs>
    <clipPath id="clip-path">
      <rect id="Rectangle_410685" data-name="Rectangle 410685" width="67" height="67" transform="translate(769.051 1898)" fill="#fff" stroke="#707070" stroke-width="1"/>
    </clipPath>
  </defs>
  <g id="Group_1209594" data-name="Group 1209594" transform="translate(-756.221 -1887.946)">
    <g id="Rectangle_410684" data-name="Rectangle 410684" transform="translate(756.221 1887.946)" fill="#e2dbf9" stroke="#b7a8f1" stroke-width="3">
      <rect width="70" height="70" rx="10" stroke="none"/>
      <rect x="1.5" y="1.5" width="67" height="67" rx="8.5" fill="none"/>
    </g>
    <g id="Mask_Group_1099345" data-name="Mask Group 1099345" clip-path="url(#clip-path)">
      <g id="error-page_7784328" transform="translate(766.854 1895.779)">
        <path id="Path_1281381" data-name="Path 1281381" d="M49.966,67.747H3.343V12.217l8.885-8.885H49.966" fill="#f4f4f2"/>
        <path id="Path_1281382" data-name="Path 1281382" d="M25.233,62.194a32.03,32.03,0,0,0,18.081,5.553H3.332V12.217l8.885-8.885h31.1A32.208,32.208,0,0,0,25.233,62.194Z" fill="#e2e2e2"/>
        <ellipse id="Ellipse_12643" data-name="Ellipse 12643" cx="19.991" cy="19.98" rx="19.991" ry="19.98" transform="translate(22.168 58.818) rotate(-90)" fill="#4a8cdd"/>
        <path id="Path_1281383" data-name="Path 1281383" d="M58.885,55.252h6.666v10a3.333,3.333,0,0,1-6.666,0Z" transform="translate(-25.322 55.753) rotate(-40.825)" fill="#bcae73"/>
        <path id="Path_1281384" data-name="Path 1281384" d="M63.16,63.3l-5.409-6.319-2.366,2.044,6.508,7.608a3.332,3.332,0,0,0,5.775-2.854A3.332,3.332,0,0,1,63.16,63.3Z" fill="#7f754a"/>
        <path id="Path_1281385" data-name="Path 1281385" d="M33.74,51.943a19.991,19.991,0,0,1,11.85-32.774,19.991,19.991,0,1,0-.056,39.4,19.924,19.924,0,0,1-11.795-6.63Z" fill="#356baa"/>
        <ellipse id="Ellipse_12644" data-name="Ellipse 12644" cx="1.389" cy="2.811" rx="1.389" ry="2.811" transform="translate(51.238 26.533) rotate(-55.055)" fill="#f7f7f7"/>
        <circle id="Ellipse_12645" data-name="Ellipse 12645" cx="1.111" cy="1.111" r="1.111" transform="translate(55.102 30.307) rotate(-34.405)" fill="#f7f7f7"/>
        <path id="Path_1281386" data-name="Path 1281386" d="M12.228,3.332v8.885H3.354Z" fill="#4a8cdd"/>
        <path id="Path_1281387" data-name="Path 1281387" d="M51.077,47.756h4.442L42.2,25.544,28.876,47.756H44.424" fill="#fc6868"/>
        <path id="Path_1281388" data-name="Path 1281388" d="M61.25,53.942a1.111,1.111,0,0,0-1.566-.111l-1.677,1.455L56.9,53.976A21.1,21.1,0,0,0,58.163,25.1a20.791,20.791,0,0,0-7.075-5.342V3.332a1.111,1.111,0,0,0-1.111-1.111H12.217a1.111,1.111,0,0,0-.789.322L2.543,11.428a1.111,1.111,0,0,0-.322.789V67.747a1.111,1.111,0,0,0,1.111,1.111H49.977a1.111,1.111,0,0,0,1.111-1.111v-9.74a21.324,21.324,0,0,0,4.143-2.566l1.111,1.3-1.677,1.444a1.111,1.111,0,0,0-.111,1.566l6.53,7.563a4.442,4.442,0,1,0,6.664-5.8Zm-4.787-27.41A18.88,18.88,0,1,1,42.2,19.991a18.88,18.88,0,0,1,14.26,6.542ZM11.106,6.008v5.1h-5.1ZM48.867,66.637H4.442V13.327h7.774a1.111,1.111,0,0,0,1.111-1.111V4.442h35.54V18.88A21.1,21.1,0,0,0,30.875,21.1H11.106v2.221H27.954a20.746,20.746,0,0,0-2.1,2.221H11.106v2.221H24.245a22.3,22.3,0,0,0-1.111,2.221H11.106v2.221H22.212a19.291,19.291,0,0,0-.6,2.221H11.106V36.65H21.235a21.1,21.1,0,0,0-.133,2.221h-10v2.221H21.213a21.456,21.456,0,0,0,.344,2.221H11.106v2.221H22.212a23.732,23.732,0,0,0,.888,2.221H11.106v2.221H24.278A21.791,21.791,0,0,0,25.855,52.2H11.106V54.42H27.932a20.679,20.679,0,0,0,2.921,2.221H11.106v2.221H35.473a21.346,21.346,0,0,0,6.73,1.111,21.024,21.024,0,0,0,6.664-1.111Zm17.026-.544a2.288,2.288,0,0,1-1.61.544,2.221,2.221,0,0,1-1.522-.766l-5.808-6.73,3.332-2.9,5.808,6.664a2.221,2.221,0,0,1-.222,3.187Z"/>
        <path id="Path_1281389" data-name="Path 1281389" d="M41.248,24.978,27.921,47.19a1.111,1.111,0,0,0,.955,1.677H44.424V46.646H30.842L42.2,27.7,53.565,46.646H51.088v2.221h4.442a1.111,1.111,0,0,0,.955-1.677L43.158,24.978a1.111,1.111,0,0,0-1.91,0Z"/>
        <path id="Path_1281390" data-name="Path 1281390" d="M41.093,31.1h2.221v8.885H41.093Z"/>
        <path id="Path_1281391" data-name="Path 1281391" d="M41.093,42.2h2.221v2.221H41.093Z"/>
        <path id="Path_1281392" data-name="Path 1281392" d="M46.646,46.646h2.221v2.221H46.646Z"/>
        <path id="Path_1281393" data-name="Path 1281393" d="M6.675,21.1H8.9v2.221H6.675Z"/>
        <path id="Path_1281394" data-name="Path 1281394" d="M6.675,25.544H8.9v2.221H6.675Z"/>
        <path id="Path_1281395" data-name="Path 1281395" d="M6.675,29.986H8.9v2.221H6.675Z"/>
        <path id="Path_1281396" data-name="Path 1281396" d="M6.675,34.429H8.9V36.65H6.675Z"/>
        <path id="Path_1281397" data-name="Path 1281397" d="M6.675,38.871H8.9v2.221H6.675Z"/>
        <path id="Path_1281398" data-name="Path 1281398" d="M6.675,43.314H8.9v2.221H6.675Z"/>
        <path id="Path_1281399" data-name="Path 1281399" d="M6.675,47.756H8.9v2.221H6.675Z"/>
        <path id="Path_1281400" data-name="Path 1281400" d="M6.675,52.2H8.9V54.42H6.675Z"/>
        <path id="Path_1281401" data-name="Path 1281401" d="M6.675,56.641H8.9v2.221H6.675Z"/>
      </g>
    </g>
  </g>
</svg>
