<svg xmlns="http://www.w3.org/2000/svg" xmlns:xlink="http://www.w3.org/1999/xlink" width="315.038" height="228" viewBox="0 0 315.038 228">
  <defs>
    <clipPath id="clip-path">
      <path id="Rectangle_425636" data-name="Rectangle 425636" d="M0,0H300.038a15,15,0,0,1,15,15V213a15,15,0,0,1-15,15H0a0,0,0,0,1,0,0V0A0,0,0,0,1,0,0Z" transform="translate(1000 2946.188)" fill="#fff" stroke="#707070" stroke-width="1"/>
    </clipPath>
    <linearGradient id="linear-gradient" x1="0.404" y1="-0.122" x2="0.531" y2="0.974" gradientUnits="objectBoundingBox">
      <stop offset="0" stop-color="#2066a3"/>
      <stop offset="1" stop-color="#2b86cc"/>
    </linearGradient>
  </defs>
  <g id="Mask_Group_1099324" data-name="Mask Group 1099324" transform="translate(-1000 -2946.188)" clip-path="url(#clip-path)">
    <g id="magnific__a-circular-graphic-with-a-blue-border-contains-an-__28930" transform="translate(1043.519 2946.188)">
      <path id="Path_1280835" data-name="Path 1280835" d="M-43.519,0h315V228h-315V0Z" fill="#7fe5cf" stroke="#707070" stroke-width="0.111"/>
      <path id="Path_1280836" data-name="Path 1280836" d="M109.983,15.305A97.886,97.886,0,1,1,15.771,116.777,97.885,97.885,0,0,1,109.983,15.305Z" fill="#c4e7fb" stroke="#707070" stroke-width="0.111"/>
      <path id="Path_1280837" data-name="Path 1280837" d="M168.631,66.671c.964-1.44,1.937-4.23,3.146-5.02a2.441,2.441,0,0,1,1.894-.318c1.828.428,2.872,3.511,3.982,5.215a6.087,6.087,0,0,1,4.73,1.982c2.36,2.511,1.525,6.22,1.667,9.529,1.844,3.593,4.188,7.148,5.878,10.83a2.239,2.239,0,0,1-1.055,2.437c-1.3.552-3.424.326-4.819.327l-.023,58.879c.02,3.923.768,8.9-3.879,10.751-1.731.69-4.191.486-6.077.484l-8.1-.01H141.825c-3.788,0-8.842-.158-12.5.031a41.2,41.2,0,0,1-4.225.085l-6.925-.023c-6.341,0-13.442.186-19.7-.039-4.312-.119-8.884-.052-13.21-.055l-23,0-8.957.006a27.99,27.99,0,0,1-4.882-.111c-5.876-1.372-4.96-6.809-4.914-11.139L43.511,98.3l0-17.406c0-2.906-.067-5.886.01-8.765a5.914,5.914,0,0,1,5.68-5.49c2.172-.032,4.3-.049,6.46-.049l11.918,0,38.965,0,40.838.006h13.26C163.144,66.593,166.168,66.522,168.631,66.671Z" fill="#feffff" stroke="#707070" stroke-width="0.111"/>
      <path id="Path_1280838" data-name="Path 1280838" d="M49.009,128.21c.1,1.975.018,4.053.049,6.041.084,5.379-.123,10.93.026,16.29,10.6.124,21.362.029,31.978.028l51.235-.016,30.968.008c4.927,0,10.423.121,15.309-.041q2.727-.015,5.456.013c.02,3.923.768,8.9-3.879,10.751-1.731.69-4.191.486-6.077.484l-8.1-.01H141.825c-3.788,0-8.842-.158-12.5.031a41.2,41.2,0,0,1-4.225.085l-6.925-.023c-6.341,0-13.442.186-19.7-.039-4.312-.119-8.884-.052-13.21-.055l-23,0-8.957.006a27.99,27.99,0,0,1-4.882-.111c-5.876-1.372-4.96-6.809-4.914-11.139h5.466C48.981,143.325,48.8,135.334,49.009,128.21Z" fill="#54aced" stroke="#707070" stroke-width="0.111"/>
      <path id="Path_1280839" data-name="Path 1280839" d="M113.354,153.332a2.768,2.768,0,1,1-2.048,3.326A2.768,2.768,0,0,1,113.354,153.332Z" fill="#1b3b6e" stroke="#707070" stroke-width="0.111"/>
      <path id="Path_1280840" data-name="Path 1280840" d="M43.518,150.516,43.511,98.3l0-17.406c0-2.906-.067-5.886.01-8.765a5.914,5.914,0,0,1,5.68-5.49c2.172-.032,4.3-.049,6.46-.049l11.918,0,38.965,0,40.838.006h13.26c2.5,0,5.523-.071,7.986.078-.967,1.419-2.328,4.01-3.182,5.589l-116.433.025-.008,55.925c-.211,7.124-.028,15.115-.024,22.307Z" fill="#1b3b6e" stroke="#707070" stroke-width="0.111"/>
      <path id="Path_1280841" data-name="Path 1280841" d="M161.525,103.662a15.433,15.433,0,0,1-3.536,6.6,16.907,16.907,0,0,1-11.807,5.585,17.112,17.112,0,0,1-12.1-4.433,16.576,16.576,0,0,1-5.3-11.75,16.769,16.769,0,0,1,4.587-12.091,16.414,16.414,0,0,1,11.705-5.2A16.586,16.586,0,0,1,157.143,87.1a6.859,6.859,0,0,0-.8,1.882c-.428,2.773,2.337,2.921,4.278,2.706a19.347,19.347,0,0,1,1.553,5.943l2.95.008q.1,3.008.083,6.017Z" fill="#1e5b99" stroke="#707070" stroke-width="0.111"/>
      <path id="Path_1280842" data-name="Path 1280842" d="M144.8,86.772a12.365,12.365,0,1,1-11.648,13.061A12.366,12.366,0,0,1,144.8,86.772Z" fill="#feffff" stroke="#707070" stroke-width="0.111"/>
      <path id="Path_1280843" data-name="Path 1280843" d="M168.631,66.671c.964-1.44,1.937-4.23,3.146-5.02a2.441,2.441,0,0,1,1.894-.318c1.828.428,2.872,3.511,3.982,5.215a6.087,6.087,0,0,1,4.73,1.982c2.36,2.511,1.525,6.22,1.667,9.529,1.844,3.593,4.188,7.148,5.878,10.83a2.239,2.239,0,0,1-1.055,2.437c-1.3.552-3.424.326-4.819.327l-5.483-.006c-3.168-.142-6.949.037-10.184-.03-1.689-.035-6.207-.1-7.768.071-1.942.215-4.706.066-4.278-2.706a6.859,6.859,0,0,1,.8-1.882,23.953,23.953,0,0,0,1.333-2.332c2.1-4.209,4.907-8.317,6.974-12.509C166.3,70.68,167.663,68.09,168.631,66.671Z" fill="#fcbf10" stroke="#707070" stroke-width="0.111"/>
      <path id="Path_1280844" data-name="Path 1280844" d="M177.653,66.548a6.087,6.087,0,0,1,4.73,1.982c2.36,2.511,1.525,6.22,1.667,9.529-.46-.629-1.546-2.672-1.968-3.427Z" fill="#1b3b6e" stroke="#707070" stroke-width="0.111"/>
      <path id="Path_1280845" data-name="Path 1280845" d="M157.965,89.733c2.689-6,6.209-11.514,9.454-17.165q1.451-2.509,2.823-5.062c.5-.917,1.913-3.9,2.755-4.273,1.112.569,3.122,4.677,3.791,5.891l3.122,5.607c.7,1.27,8.213,14.844,8.252,14.881l.181.19c-.62.953-4.475.74-5.642.737l-6.661-.022c-2.292-.005-17.057.2-17.935-.338Z" fill="#fecf26" stroke="#707070" stroke-width="0.111"/>
      <path id="Path_1280846" data-name="Path 1280846" d="M157.965,89.733c1.011-.322,6.22-.2,7.579-.2q7.3-.042,14.6.049c1.834.007,6.494-.184,8.02.032l.181.19c-.62.953-4.475.74-5.642.737l-6.661-.022c-2.292-.005-17.057.2-17.935-.338Z" fill="#fee44c" stroke="#707070" stroke-width="0.111"/>
      <path id="Path_1280847" data-name="Path 1280847" d="M172.887,71.261c1.972.332,1.6,1.567,1.542,3.247-.062,1.915-.128,3.89-.377,5.781-.041.315-.524.518-.783.649-.455-.081-.636-.069-.955-.4-.4-.868-.736-7.11-.492-8.376C171.9,71.732,172.508,71.436,172.887,71.261Z" fill="#1b3b6e" stroke="#707070" stroke-width="0.111"/>
      <path id="Path_1280848" data-name="Path 1280848" d="M172.6,82.786a1.511,1.511,0,1,1-.951,1.9A1.51,1.51,0,0,1,172.6,82.786Z" fill="#1b3b6e" stroke="#707070" stroke-width="0.111"/>
      <path id="Path_1280849" data-name="Path 1280849" d="M178.57,91.647l5.483.006-.023,58.879q-2.729-.028-5.456-.013Z" fill="#1b3b6e" stroke="#707070" stroke-width="0.111"/>
      <path id="Path_1280850" data-name="Path 1280850" d="M165.121,97.639c1.217,0,2.553.026,3.723-.012,2.407-.078,6-.333,5.958,3.1-.048,3.611-4.391,2.919-6.79,2.952-.962.013-1.879-.013-2.808-.02Q165.224,100.648,165.121,97.639Z" fill="#ee2f31" stroke="#707070" stroke-width="0.111"/>
      <path id="Path_1280851" data-name="Path 1280851" d="M159.974,117.574A14.848,14.848,0,1,1,151,120.617,14.848,14.848,0,0,1,159.974,117.574Z" fill="#32ce6f" stroke="#707070" stroke-width="0.111"/>
      <path id="Path_1280852" data-name="Path 1280852" d="M151,120.617q4.253,5.963,8.831,11.685l-.4.327c-4.7.867-9.323,1.981-13.956,2.85A14.847,14.847,0,0,1,151,120.617Z" fill="#ee2f31" stroke="#707070" stroke-width="0.111"/>
      <path id="Path_1280853" data-name="Path 1280853" d="M151,120.617a14.842,14.842,0,0,1,8.975-3.044c.016,1.618.153,14.056-.145,14.729Q155.254,126.583,151,120.617Z" fill="#fecf26" stroke="#707070" stroke-width="0.111"/>
      <path id="Path_1280854" data-name="Path 1280854" d="M145.476,135.48c4.633-.869,9.259-1.983,13.956-2.85-1.493,2.156-9.078,9.251-9.633,10.574A14.851,14.851,0,0,1,145.476,135.48Z" fill="#246db1" stroke="#707070" stroke-width="0.111"/>
      <path id="Path_1280855" data-name="Path 1280855" d="M112.675,99.529l6.453,0-.007,34.728-6.416.011c-.141-3.692-.029-8.174-.03-11.915Z" fill="#32ce6f" stroke="#707070" stroke-width="0.111"/>
      <path id="Path_1280856" data-name="Path 1280856" d="M56.516,80.767c3.935-.115,8.586-.017,12.567-.005.273.185.513.4.766.607-.138,4.069-.056,8.768-.029,12.857a1.477,1.477,0,0,1-1.458.686c-2.216-.065-11.716.253-13.052-.316a1.3,1.3,0,0,1-.27-.7c-.252-1.4-.29-12.22.151-12.748C55.51,80.76,56.059,80.8,56.516,80.767Z" fill="#c9c8c8" stroke="#707070" stroke-width="0.111"/>
      <path id="Path_1280857" data-name="Path 1280857" d="M56.336,82.219c3.976-.125,8.08-.019,12.084-.07.121,3.709-.025,7.537.046,11.275l-12.162,0C56.38,89.7,56.266,85.949,56.336,82.219Z" fill="#feffff" stroke="#707070" stroke-width="0.111"/>
      <path id="Path_1280858" data-name="Path 1280858" d="M58.321,84.028h1.994c.589.973,1.052,1.864,1.692,2.842.438-.915,1.028-1.9,1.511-2.822.657-.012,1.356,0,2.016.006-.823,1.153-1.768,2.812-2.52,4.058.819,1.3,1.614,2.574,2.486,3.841l-.084.136-1.858.063c-.643-1.037-1.118-1.87-1.69-2.943a30.526,30.526,0,0,1-1.755,2.908c-.59.024-1.406-.012-2.015-.024.827-1.1,1.9-2.877,2.682-4.074C59.927,86.777,59.1,85.334,58.321,84.028Z" fill="#1b3b6e" stroke="#707070" stroke-width="0.111"/>
      <path id="Path_1280859" data-name="Path 1280859" d="M56.688,123.623c3.287.088,6.592.026,9.88.037a15.694,15.694,0,0,1,3.547.164.731.731,0,0,1,.135.219,4.777,4.777,0,0,1,.251,1.442c.075,1.195.218,11.261-.161,11.826-.2.3-.492.307-.811.392-1.954.039-12.5.174-13.664-.213-.41-.6-.455-12.855-.082-13.515A1.594,1.594,0,0,1,56.688,123.623Z" fill="#c9c8c8" stroke="#707070" stroke-width="0.111"/>
      <path id="Path_1280860" data-name="Path 1280860" d="M57.2,125.077c3.915-.076,8.016-.023,11.945-.032l.019,7.934c0,.661.039,2.813-.06,3.276l-.222.078c-3.9,0-8.123.1-11.995-.011l-.006-7.684c0-.629-.043-2.958.051-3.472Z" fill="#feffff" stroke="#707070" stroke-width="0.111"/>
      <path id="Path_1280861" data-name="Path 1280861" d="M64.586,127.257c1.753-.138,2.51,1.175,1.678,2.356a55.148,55.148,0,0,1-3.923,5.278,16.463,16.463,0,0,1-1.314-1.6A12.49,12.49,0,0,0,58.12,130.3c1.341-1.841,1.8-1.477,3.62-.4C62.65,128.681,63.149,127.848,64.586,127.257Z" fill="#246db1" stroke="#707070" stroke-width="0.111"/>
      <path id="Path_1280862" data-name="Path 1280862" d="M65.017,128.2c.313.187.2.061.358.38-.137.655-2.607,3.853-3.168,4.615-.4-.676-.605-1.588-1.1-1.9a4.573,4.573,0,0,1-1.182-1.2l.083-.141a3.5,3.5,0,0,1,1.874,1.316A33.211,33.211,0,0,1,65.017,128.2Z" fill="#feffff" stroke="#707070" stroke-width="0.111"/>
      <path id="Path_1280863" data-name="Path 1280863" d="M55.582,102.207c4.121-.177,8.49.092,12.636,0,.767-.017,1.512.132,1.561,1.012a28.167,28.167,0,0,1,.025,2.975c-.27,1.83.5,8.779-.488,10.04a47.225,47.225,0,0,1-4.846.1H55.763a5.291,5.291,0,0,1-.762-.651c-.128-3.67-.031-7.5-.064-11.18A2.706,2.706,0,0,1,55.582,102.207Z" fill="#c9c8c8" stroke="#707070" stroke-width="0.111"/>
      <path id="Path_1280864" data-name="Path 1280864" d="M60.646,103.591l7.821-.012c-.08,3.737-.04,7.593-.045,11.34-1.392.046-2.923.021-4.325.026-2.469.014-5.351.095-7.784-.029l.008-11.264C57.706,103.583,59.248,103.6,60.646,103.591Z" fill="#feffff" stroke="#707070" stroke-width="0.111"/>
      <path id="Path_1280865" data-name="Path 1280865" d="M63.305,104.613a1.571,1.571,0,0,1,1.118.463c.413.375,1.048,1.033,1.01,1.638-.061.958-4.882,5.81-5.778,6.727-.52-.237-2.462-2-2.114-2.465A41.3,41.3,0,0,1,63.305,104.613Z" fill="#246db1" stroke="#707070" stroke-width="0.111"/>
      <path id="Path_1280866" data-name="Path 1280866" d="M63.565,105.819a1.444,1.444,0,0,1,.617.607q.005.146.01.292c-.955,1.451-3.81,3.86-4.65,5.194-.229-.062-.531-.424-.732-.621C59.305,110.358,62.616,106.943,63.565,105.819Z" fill="#feffff" stroke="#707070" stroke-width="0.111"/>
      <path id="Path_1280867" data-name="Path 1280867" d="M103.165,106.008q3.244-.014,6.487.013l.008,20.664c0,1,.107,7.164-.14,7.574l-6.35.009c-.253-6.431.11-13.106-.034-19.559C103.074,111.891,103.058,108.808,103.165,106.008Z" fill="#32ce6f" stroke="#707070" stroke-width="0.111"/>
      <path id="Path_1280868" data-name="Path 1280868" d="M122.129,110.716c2.047.07,4.286.035,6.355.054q.115,11.768.077,23.54c-1.886-.1-4.5-.018-6.465-.039Z" fill="#fecf26" stroke="#707070" stroke-width="0.111"/>
      <path id="Path_1280869" data-name="Path 1280869" d="M93.767,114.777c2.112.032,4.322-.058,6.421.08.086,2.238.023,4.937.025,7.214l-.012,12.219q-3.218.008-6.436-.041Q93.709,124.514,93.767,114.777Z" fill="#fecf26" stroke="#707070" stroke-width="0.111"/>
      <path id="Path_1280870" data-name="Path 1280870" d="M76.393,118.774a3.014,3.014,0,0,1,1.3.116c.146,1.39.04,4.8.041,6.319q.029,6.23-.019,12.459c2.565.1,5.379.038,7.973.038l13.862,0,40.017-.011,0,1.383c-1.971.1-4.991,0-7.068,0l-13.7.011-42.424-.013Z" fill="#a6a5a5" stroke="#707070" stroke-width="0.111"/>
      <path id="Path_1280871" data-name="Path 1280871" d="M84.289,120.785q3.231-.022,6.462.008v13.458q-3.236.017-6.472,0Z" fill="#32ce6f" stroke="#707070" stroke-width="0.111"/>
      <path id="Path_1280872" data-name="Path 1280872" d="M105.007,90.55c.551.411,1.069.7,1.293,1.36l-5.235,6.446c-.757.932-1.888,2.245-2.56,3.2.419,2.543-1.955,3.673-3.658,1.924-1.852.231-3.763.4-5.592.736-.149.028-.82,1.387-1.462,1.287-.225-.035-1.089-.018-1.38-.074a72.219,72.219,0,0,0-7.347,5.85,1.966,1.966,0,0,1-1.056-1.473c1.94-1.324,5.137-4.21,7.007-5.8.451-.515.139-1.544.75-2.008a2.152,2.152,0,0,1,3.224.48q2.7-.31,5.388-.657c.9-1.27,1.214-1.6,2.829-1.486,1.852-2.2,3.644-4.46,5.487-6.677.676-.814,1.56-1.868,2.24-2.718Z" fill="#1b3b6e" stroke="#707070" stroke-width="0.111"/>
      <path id="Path_1280873" data-name="Path 1280873" d="M132.66,81.107c-.086-2.368,2.111-3.366,3.47-1.9a2.25,2.25,0,0,1,.592,1.612c-.067,1.766-1.674,1.99-3.069,1.636-5.144,3.571-10.376,7.335-15.57,10.812a2.178,2.178,0,0,1-.9,1.925,1.914,1.914,0,0,1-2.69-.31c-.225-.242-.383-.953-.669-1.183-1.81-.889-3.793-1.408-5.609-2.294.3-.629.16-1.04.66-1.555q2.87,1.115,5.753,2.194a2.191,2.191,0,0,1,1.968-.4c.194.053.387.111.579.172C122.17,88.374,127.612,84.377,132.66,81.107Z" fill="#1b3b6e" stroke="#707070" stroke-width="0.111"/>
      <path id="Path_1280874" data-name="Path 1280874" d="M76.656,109.577c-.1-2.3.019-4.733.026-7.043l.006-11.716q.011-2.55-.033-5.1a27.772,27.772,0,0,1-.008-3.269c.214-.226.2-.149.626-.167.118.063.257.082.259.247.051,8.629.039,17.293.054,25.935a1.6,1.6,0,0,1-.233,1.072Z" fill="#c9c8c8" stroke="#707070" stroke-width="0.111"/>
      <path id="Path_1280875" data-name="Path 1280875" d="M77.352,109.535a1.64,1.64,0,0,1,.658.274,1.966,1.966,0,0,0,1.056,1.473,1.52,1.52,0,0,1-.393,1.739c-1.255,1.108-3.938.187-3.583-1.65a3.023,3.023,0,0,1,1.567-1.794Z" fill="#1e5b99" stroke="#707070" stroke-width="0.111"/>
      <path id="Path_1280876" data-name="Path 1280876" d="M105.007,90.55a1.98,1.98,0,1,1,3.865-.7c-.5.515-.355.926-.66,1.555-.567.669-1.09.615-1.912.5C106.077,91.251,105.559,90.962,105.007,90.55Z" fill="#1e5b99" stroke="#707070" stroke-width="0.111"/>
      <path id="Path_1280877" data-name="Path 1280877" d="M73.965,37.446c3.341-.125,7.5-.015,10.888-.014h53.06c4.833,0,9.668.02,14.5-.024.869-.146,2.426.416,1.751,1.572-1.947,3.335-4.688,6.448-6.647,9.763,1.967,3.415,4.664,6.7,6.73,10.063.373.609-.244,1.092-.735,1.306-7.2.06-79.393.151-79.884-.1a1.276,1.276,0,0,1-.491-.655c-.07-.269.235-.834.369-1.07.429-.756.993-1.461,1.486-2.178,1.626-2.365,3.479-4.765,4.859-7.277l.083-.153-4.49-6.433c-.722-1.039-1.515-2.1-2.149-3.191C72.831,38.258,73.284,37.782,73.965,37.446Z" fill="#246db1" stroke="#707070" stroke-width="0.111"/>
      <path id="Path_1280878" data-name="Path 1280878" d="M130.724,44.791a3.74,3.74,0,1,1-3.095,4.278A3.742,3.742,0,0,1,130.724,44.791Z" fill="#feffff" stroke="#707070" stroke-width="0.111"/>
      <path id="Path_1280879" data-name="Path 1280879" d="M131.2,46.446a2.014,2.014,0,1,1-1.7,1.178A2.014,2.014,0,0,1,131.2,46.446Z" fill="#1e5b99" stroke="#707070" stroke-width="0.111"/>
      <path id="Path_1280880" data-name="Path 1280880" d="M113.678,44.733c.679-.018,1.419,0,2.1,0l.019,7.381-1.747-.013c-.022-.663-.017-1.366-.023-2.033q-.015-1.164-.055-2.328c-.356.934-1.13,3.713-1.893,4.313-.118.093-.208.03-.374-.012-.641-.585-1.544-3.264-1.916-4.233-.059,1.343-.024,2.958-.029,4.322l-1.774-.025,0-7.369,2.026-.009c.66,1.366,1.33,3.178,1.928,4.621Q112.785,47.032,113.678,44.733Z" fill="#feffff" stroke="#707070" stroke-width="0.111"/>
      <path id="Path_1280881" data-name="Path 1280881" d="M117.006,44.74c1.786-.028,5.138-.51,5.336,1.975a2.485,2.485,0,0,1-.633,1.876,2.323,2.323,0,0,1-1.891.692,1.776,1.776,0,0,0-.9.087c-.464.581-.249,1.969-.249,2.76l-1.661-.009Z" fill="#feffff" stroke="#707070" stroke-width="0.111"/>
      <path id="Path_1280882" data-name="Path 1280882" d="M118.782,46.061c1.156.006,2.176.071,1.72,1.564a6.077,6.077,0,0,1-1.723.252Z" fill="#1e5b99" stroke="#707070" stroke-width="0.111"/>
      <path id="Path_1280883" data-name="Path 1280883" d="M102.544,44.719l4.3,0-.01,1.481-2.519-.012.007,1.467c.682,0,1.369-.009,2.048.037l.168.238a1.556,1.556,0,0,1-.033.937c-.656.3-1.282-.133-2.075.141-.253.283-.173.188-.188.675,0,.855.1,1.115,1.072,1.057.48-.029.959-.04,1.44-.044l.009,1.437-4.207-.017C102.516,49.686,102.546,47.153,102.544,44.719Z" fill="#feffff" stroke="#707070" stroke-width="0.111"/>
      <path id="Path_1280884" data-name="Path 1280884" d="M92.279,44.715l4.244,0,.01,1.486-2.581-.021.04,1.484,2.278.019-.026,1.27a7.654,7.654,0,0,0-2.045.078c-.3.264-.206.18-.257.722,0,.457-.066.592.265.892a9.2,9.2,0,0,0,2.3.055L96.5,52.1q-2.11.035-4.22.021Z" fill="#feffff" stroke="#707070" stroke-width="0.111"/>
      <path id="Path_1280885" data-name="Path 1280885" d="M99.8,44.692l1.594,0c.016,2.5.922,8.556-3.342,7.335-.551-.466-1.185-1.46-.794-2.158.711-.278,1.175.466,1.97.6C100.274,49.65,99.3,45.4,99.8,44.692Z" fill="#feffff" stroke="#707070" stroke-width="0.111"/>
      <path id="Path_1280886" data-name="Path 1280886" d="M123.1,44.748l1.709-.007q-.028,2.965.038,5.93c.711-.017,1.438.012,2.151.03l.031,1.426c-1.267.025-2.625,0-3.9-.009Z" fill="#feffff" stroke="#707070" stroke-width="0.111"/>
      <path id="Path_1280887" data-name="Path 1280887" d="M98.484,161.812c6.255.225,13.355.036,19.7.039l6.925.023a41.2,41.2,0,0,0,4.225-.085l5.379,16.333c1.637.155,8.166-.328,9.041.293.362.54.508,5.034-.1,5.655a8.817,8.817,0,0,1-2.017.153l-38.5,0h-12.5c-1.556,0-4.968.077-6.4-.1a1.036,1.036,0,0,1-.42-.737c-.146-.765-.222-4.422.2-4.981.381-.5,8.069-.258,9.166-.3.249-.668.49-1.393.709-2.073C95.4,171.307,97.093,166.568,98.484,161.812Z" stroke="#707070" stroke-width="0.111" fill="url(#linear-gradient)"/>
      <path id="Path_1280888" data-name="Path 1280888" d="M134.709,178.123c1.637.155,8.166-.328,9.041.293.362.54.508,5.034-.1,5.655a8.817,8.817,0,0,1-2.017.153l-38.5,0h-12.5c-1.556,0-4.968.077-6.4-.1a1.036,1.036,0,0,1-.42-.737c-.146-.765-.222-4.422.2-4.981.381-.5,8.069-.258,9.166-.3l29.048-.023C126.176,178.077,130.846,178.223,134.709,178.123Z" fill="#54aced" stroke="#707070" stroke-width="0.111"/>
    </g>
  </g>
</svg>
