<svg xmlns="http://www.w3.org/2000/svg" xmlns:xlink="http://www.w3.org/1999/xlink" width="79.83" height="77.054" viewBox="0 0 79.83 77.054">
  <defs>
    <clipPath id="clip-path">
      <rect id="Rectangle_410685" data-name="Rectangle 410685" width="67" height="67" transform="translate(769.051 1898)" fill="#fff" stroke="#707070" stroke-width="1"/>
    </clipPath>
  </defs>
  <g id="Group_1209597" data-name="Group 1209597" transform="translate(-756.221 -1887.946)">
    <g id="Rectangle_410684" data-name="Rectangle 410684" transform="translate(756.221 1887.946)" fill="#e2dbf9" stroke="#b7a8f1" stroke-width="3">
      <rect width="70" height="70" rx="10" stroke="none"/>
      <rect x="1.5" y="1.5" width="67" height="67" rx="8.5" fill="none"/>
    </g>
    <g id="Mask_Group_1099344" data-name="Mask Group 1099344" clip-path="url(#clip-path)">
      <g id="Layer_1" data-name="Layer 1" transform="translate(768.525 1897.468)">
        <path id="Path_1281364" data-name="Path 1281364" d="M44.592,59.826H6.751A4.054,4.054,0,0,1,2.7,55.773V11.188l9.7-9.726H44.592a4.054,4.054,0,0,1,4.054,4.054V55.773a4.054,4.054,0,0,1-4.054,4.054Z" fill="#f5f5f5"/>
        <path id="Path_1281365" data-name="Path 1281365" d="M10.239,59.826H6.751A4.054,4.054,0,0,1,2.7,55.773V11.188l9.7-9.726L6.186,11.188V55.773a4.054,4.054,0,0,0,4.054,4.054Z" fill="#e6e6e6"/>
        <path id="Path_1281366" data-name="Path 1281366" d="M12.4,1.462V8.873a2.29,2.29,0,0,1-2.29,2.29H2.7Z" fill="#bfbfbf"/>
        <path id="Path_1281367" data-name="Path 1281367" d="M18.694,35.131H11.717V24.2h6.977Z" fill="#ff5959"/>
        <path id="Path_1281368" data-name="Path 1281368" d="M15.205,35.131H11.717V24.2h3.488Z" fill="#e63a57"/>
        <path id="Path_1281369" data-name="Path 1281369" d="M25.671,35.131H18.694V18.873h6.977Z" fill="#ffdf40"/>
        <path id="Path_1281370" data-name="Path 1281370" d="M22.183,35.131H18.694V18.873h3.489Z" fill="#ffbe40"/>
        <path id="Path_1281371" data-name="Path 1281371" d="M32.648,35.131H25.671V13.55h6.978Z" fill="#94e671"/>
        <path id="Path_1281372" data-name="Path 1281372" d="M29.16,35.131H25.671V13.55H29.16Z" fill="#52cc7b"/>
        <path id="Path_1281373" data-name="Path 1281373" d="M39.626,35.131H32.648V8.226h6.977Z" fill="#80eaff"/>
        <path id="Path_1281374" data-name="Path 1281374" d="M36.137,35.131H32.648V8.226h3.489Z" fill="#6cf"/>
        <path id="Path_1281375" data-name="Path 1281375" d="M58.593,50.684l-4.92,4.92a13.939,13.939,0,0,0-5.52-2.084v-7a18.51,18.51,0,0,1,10.44,4.169Z" fill="#ffbe40"/>
        <path id="Path_1281376" data-name="Path 1281376" d="M36.454,55.825a17.061,17.061,0,0,0-6.341,7.955H28.247a18.528,18.528,0,0,1,4.862-11.3Z" fill="#6cf"/>
        <path id="Path_1281377" data-name="Path 1281377" d="M65.354,63.78h-6.7a11.954,11.954,0,0,0-2.92-6.411l4.82-4.82a18.525,18.525,0,0,1,4.8,11.231Z" fill="#e63a57"/>
        <path id="Path_1281378" data-name="Path 1281378" d="M45.448,53.283c-.124,0-.247-.006-.372-.006a15.71,15.71,0,0,0-6.131,1.213L35.08,50.625a18.509,18.509,0,0,1,10.367-4.109Z" fill="#52cc7b"/>
        <path id="Path_1281379" data-name="Path 1281379" d="M48.248,64.251a2.337,2.337,0,1,1-2.337-2.338,2.337,2.337,0,0,1,2.337,2.338Z" fill="#393939"/>
        <path id="Path_1281380" data-name="Path 1281380" d="M10.787,41.4a.93.93,0,0,1,.93-.93H39.626a.93.93,0,0,1,0,1.861H11.717a.93.93,0,0,1-.93-.93Zm26.328,3.465a.93.93,0,0,0-.93-.93H11.717a.93.93,0,0,0,0,1.861H36.184A.93.93,0,0,0,37.114,44.868ZM32.03,47.4H11.717a.93.93,0,0,0,0,1.861H32.03a.93.93,0,1,0,0-1.861Zm-2.942,3.465H11.717a.93.93,0,0,0,0,1.861H29.088a.93.93,0,1,0,0-1.861Zm-18.3-15.737V24.2a.93.93,0,0,1,.93-.93h6.047V18.873a.93.93,0,0,1,.93-.93h6.047V13.55a.93.93,0,0,1,.93-.93h6.047V8.226a.93.93,0,0,1,.93-.93h6.977a.93.93,0,0,1,.93.93v26.9a.93.93,0,0,1-.93.93H11.717a.93.93,0,0,1-.93-.93Zm22.792-.93H38.7V9.157H33.579Zm-6.977,0h5.116V14.48H26.6Zm-6.978,0h5.117V19.8H19.624Zm-6.977,0h5.116V25.127H12.647Zm46.6,17.141-4.92,4.919a.93.93,0,0,1-1.174.116,12.241,12.241,0,0,0-3.581-1.6v.993a4.99,4.99,0,0,1-4.984,4.984H32.774a17.421,17.421,0,0,0-1.8,3.37.93.93,0,0,1-.864.584H28.247a.93.93,0,0,1-.928-.994,19.319,19.319,0,0,1,.436-2.96h-21a4.99,4.99,0,0,1-4.984-4.984V11.188c0-.013,0-.026,0-.039a.928.928,0,0,1,.27-.644L11.74.8l0,0a.91.91,0,0,1,.09-.078L11.859.7a.929.929,0,0,1,.1-.064l.009,0a.932.932,0,0,1,.1-.045L12.1.581A.951.951,0,0,1,12.216.55h0a.934.934,0,0,1,.116-.014h.032l.031,0H44.592a4.99,4.99,0,0,1,4.984,4.984V45.735a19.369,19.369,0,0,1,9.608,4.231.93.93,0,0,1,.068,1.377ZM4.964,10.233h5.144a1.361,1.361,0,0,0,1.36-1.36V3.712ZM35.019,55.7l-1.862-1.862a17.719,17.719,0,0,0-3.884,9.007H29.5A18.022,18.022,0,0,1,35.019,55.7Zm12.7.068V54.34a.93.93,0,0,1-.493-.82v-7a.921.921,0,0,1,.493-.819V5.516a3.127,3.127,0,0,0-3.123-3.123H13.328v6.48a3.224,3.224,0,0,1-3.221,3.221H3.627V55.773A3.127,3.127,0,0,0,6.751,58.9H28.275a19.578,19.578,0,0,1,4.15-7.046.93.93,0,0,1,1.342-.028l3.345,3.345a.93.93,0,0,1-.145,1.434,15.02,15.02,0,0,0-2.705,2.3h10.33a3.127,3.127,0,0,0,3.123-3.123Zm9.473-5a17.5,17.5,0,0,0-8.105-3.23v5.2a14.822,14.822,0,0,1,4.455,1.677Zm8.845,13.642a.93.93,0,0,1-.68.3h-6.7a.93.93,0,0,1-.92-.792A11.033,11.033,0,0,0,55.047,58a.93.93,0,0,1,.03-1.285l4.82-4.82a.944.944,0,0,1,.68-.272.93.93,0,0,1,.666.3,19.572,19.572,0,0,1,5.039,11.794.929.929,0,0,1-.249.7Zm-1.7-1.566A17.73,17.73,0,0,0,60.5,53.915L57,57.422a12.821,12.821,0,0,1,2.438,5.427ZM46.082,45.834a.93.93,0,0,1,.3.681v6.767a.93.93,0,0,1-.278.664.916.916,0,0,1-.669.267l-.108,0c-.082,0-.164,0-.247,0a14.785,14.785,0,0,0-5.77,1.14.93.93,0,0,1-1.019-.2l-3.865-3.865a.93.93,0,0,1,.071-1.38,19.385,19.385,0,0,1,10.888-4.315.933.933,0,0,1,.7.247Zm-1.564,1.709a17.5,17.5,0,0,0-8.029,3.174L39.17,53.4a16.617,16.617,0,0,1,5.347-1.044ZM53.5,58.011a.93.93,0,0,1,.215.679l-.2,2.363a.93.93,0,0,1-.926.851q-.04,0-.081,0a.93.93,0,0,1-.847-1.007l.012-.14-2.745,2.239a3.274,3.274,0,1,1-1.177-1.441l2.707-2.208-.359-.031a.93.93,0,1,1,.159-1.854l2.613.226a.93.93,0,0,1,.632.327Zm-6.184,6.24a1.407,1.407,0,1,0-1.407,1.407,1.407,1.407,0,0,0,1.407-1.407Z"/>
      </g>
    </g>
  </g>
</svg>
