<svg xmlns="http://www.w3.org/2000/svg" xmlns:xlink="http://www.w3.org/1999/xlink" width="79.83" height="77.054" viewBox="0 0 79.83 77.054">
  <defs>
    <clipPath id="clip-path">
      <rect id="Rectangle_410685" data-name="Rectangle 410685" width="67" height="67" transform="translate(769.051 1898)" fill="#fff" stroke="#707070" stroke-width="1"/>
    </clipPath>
  </defs>
  <g id="Group_1209564" data-name="Group 1209564" transform="translate(-756.221 -1887.946)">
    <g id="Rectangle_410684" data-name="Rectangle 410684" transform="translate(756.221 1887.946)" fill="#e2dbf9" stroke="#b7a8f1" stroke-width="3">
      <rect width="70" height="70" rx="10" stroke="none"/>
      <rect x="1.5" y="1.5" width="67" height="67" rx="8.5" fill="none"/>
    </g>
    <g id="Mask_Group_1099340" data-name="Mask Group 1099340" clip-path="url(#clip-path)">
      <g id="report_10989982" transform="translate(766.812 1895.762)">
        <g id="Group_1210116" data-name="Group 1210116">
          <path id="Path_1281303" data-name="Path 1281303" d="M32.032,6.332h1.946A4.618,4.618,0,0,1,35.458,3.6a5.378,5.378,0,0,1,7.162,0A4.618,4.618,0,0,1,44.1,6.332h2.136a2.268,2.268,0,0,1,2.312,2.19V9.933h11.03a2.5,2.5,0,0,1,2.489,2.49V66.748a2.5,2.5,0,0,1-2.49,2.49H18.689a2.5,2.5,0,0,1-2.49-2.49V37.106a10.285,10.285,0,0,1,0-19.344V12.422a2.5,2.5,0,0,1,2.49-2.49H29.72V8.522a2.268,2.268,0,0,1,2.312-2.19Z" fill-rule="evenodd"/>
          <path id="Path_1281304" data-name="Path 1281304" d="M21.7,37.49v18.3l6.884.077A1.015,1.015,0,0,1,29.6,56.885l0,6.363H56.306V15.058H47.815a2.374,2.374,0,0,1-1.708.721H31.9a2.374,2.374,0,0,1-1.708-.721H21.7v2.32a10.282,10.282,0,0,1,0,20.111ZM44.839,51.8V34.4a.892.892,0,0,1,.891-.892h6.148a.892.892,0,0,1,.892.891V51.8h1.3a.892.892,0,1,1,0,1.783H23.5a.892.892,0,1,1,0-1.783h1.142V42.634a.892.892,0,0,1,.892-.892h6.148a.892.892,0,0,1,.892.892V51.8H34.63V39.011a.892.892,0,0,1,.892-.892h6.148a.892.892,0,0,1,.892.891V51.8Zm3.733-19.787a.891.891,0,0,1-1.755-.307l.305-1.711-5.684,4.544a.883.883,0,0,1-.447.188l-5.175.649-3.458,4.219a.885.885,0,0,1-.471.3l-3.949.991a.89.89,0,1,1-.432-1.728l3.667-.919,3.451-4.211a.889.889,0,0,1,.624-.377l5.283-.658,5.52-4.413-1.609-.287a.891.891,0,1,1,.306-1.756l3.772.673a.891.891,0,0,1,.725,1.031Z" fill="#fff" fill-rule="evenodd"/>
          <path id="Path_1281305" data-name="Path 1281305" d="M25.389,21.607A8.242,8.242,0,1,0,27.8,27.434a8.242,8.242,0,0,0-2.414-5.828Zm-10.3,6.3a1.017,1.017,0,1,1,1.56-1.306l1.692,2.021,4.168-4.6a1.015,1.015,0,1,1,1.5,1.361l-4.9,5.41a1.019,1.019,0,0,1-1.583.028Z" fill="#52c137" fill-rule="evenodd"/>
          <path id="Path_1281306" data-name="Path 1281306" d="M48.419,13.021H56.6a1.76,1.76,0,0,1,1.74,1.761V63.525a1.768,1.768,0,0,1-.5,1.233,1.722,1.722,0,0,1-1.238.529H28.581a1.016,1.016,0,0,1-.752-.331l-7.844-7.441a1.014,1.014,0,0,1-.316-.736l0-19.064a10.346,10.346,0,0,1-1.811-.14V66.748a.711.711,0,0,0,.707.706H59.449a.711.711,0,0,0,.707-.706V12.422a.711.711,0,0,0-.707-.706H48.419Z" fill="#30c3f0" fill-rule="evenodd"/>
          <path id="Path_1281307" data-name="Path 1281307" d="M23.284,57.841,27.562,61.9V57.889Z" fill="#ccc" fill-rule="evenodd"/>
          <path id="Path_1281308" data-name="Path 1281308" d="M19.667,17.156V14.782a1.76,1.76,0,0,1,1.74-1.762h8.185v-1.3H18.562a.711.711,0,0,0-.707.706V17.3a10.358,10.358,0,0,1,1.811-.141Z" fill="#30c3f0" fill-rule="evenodd"/>
          <path id="Path_1281309" data-name="Path 1281309" d="M34.7,8.115H31.9c-.234,0-.529.141-.529.407v5.068c0,.265.3.407.529.407h14.2c.234,0,.529-.141.529-.407V8.522c0-.265-.3-.407-.529-.407-.961,0-2.091.006-3.039,0a.9.9,0,0,1-.838-.947,2.793,2.793,0,0,0-.936-2.252,3.629,3.629,0,0,0-4.765,0A2.761,2.761,0,0,0,35.6,7.224a.892.892,0,0,1-.892.892Z" fill="#75b1f2" fill-rule="evenodd"/>
        </g>
        <path id="Path_1281310" data-name="Path 1281310" d="M46.622,35.292h4.364V51.8H46.622Z" fill="#12b7ee"/>
        <path id="Path_1281311" data-name="Path 1281311" d="M36.412,39.9h4.364V51.8H36.412Z" fill="#30c3f0"/>
        <path id="Path_1281312" data-name="Path 1281312" d="M26.422,43.526h4.364V51.8H26.422Z" fill="#69d6f4"/>
      </g>
    </g>
  </g>
</svg>
