<svg xmlns="http://www.w3.org/2000/svg" xmlns:xlink="http://www.w3.org/1999/xlink" width="79.83" height="77.054" viewBox="0 0 79.83 77.054">
  <defs>
    <clipPath id="clip-path">
      <rect id="Rectangle_410685" data-name="Rectangle 410685" width="67" height="67" transform="translate(769.051 1898)" fill="#fff" stroke="#707070" stroke-width="1"/>
    </clipPath>
  </defs>
  <g id="Group_1209593" data-name="Group 1209593" transform="translate(-756.221 -1887.946)">
    <g id="Rectangle_410684" data-name="Rectangle 410684" transform="translate(756.221 1887.946)" fill="#e2dbf9" stroke="#b7a8f1" stroke-width="3">
      <rect width="70" height="70" rx="10" stroke="none"/>
      <rect x="1.5" y="1.5" width="67" height="67" rx="8.5" fill="none"/>
    </g>
    <g id="Mask_Group_1099347" data-name="Mask Group 1099347" clip-path="url(#clip-path)">
      <g id="problem" transform="translate(766.817 1895.767)">
        <path id="Path_1281428" data-name="Path 1281428" d="M29.033,41.317V59.931H6.7V41.317a8.933,8.933,0,0,1,8.933-8.933H20.1A8.933,8.933,0,0,1,29.033,41.317Z" fill="#898890"/>
        <path id="Path_1281429" data-name="Path 1281429" d="M29.033,41.317V59.931H24.567V41.317a8.933,8.933,0,0,0-8.933-8.933H20.1A8.933,8.933,0,0,1,29.033,41.317Z" fill="#57565c"/>
        <path id="Path_1281430" data-name="Path 1281430" d="M32.383,61.417v6.7H3.35v-6.7L13.4,56.95h8.933Z" fill="#57a4ff"/>
        <path id="Path_1281431" data-name="Path 1281431" d="M32.383,61.417v6.7H3.35V63.65H25.683a2.233,2.233,0,0,0,2.233-2.233V59.429Z" fill="#006df0"/>
        <path id="Path_1281432" data-name="Path 1281432" d="M24.567,40.2v6.7a6.7,6.7,0,0,1-13.4,0V40.2l10.05-2.233Z" fill="#ffdaaa"/>
        <path id="Path_1281433" data-name="Path 1281433" d="M24.567,40.2v6.7a6.693,6.693,0,0,1-6.7,6.7,6.433,6.433,0,0,1-2.233-.391,2.216,2.216,0,0,0,.29-.1A6.71,6.71,0,0,0,20.1,46.9V40.2l-2.233-1.485,3.35-.748Z" fill="#ffc477"/>
        <path id="Path_1281434" data-name="Path 1281434" d="M20.39,53.109l.826,4.958-3.35,3.35-3.35-3.35.826-4.958A6.727,6.727,0,0,0,20.39,53.109Z" fill="#ffc477"/>
        <circle id="Ellipse_12648" data-name="Ellipse 12648" cx="15.633" cy="15.633" r="15.633" transform="translate(36.85 3.35)" fill="#ffd422"/>
        <path id="Path_1281435" data-name="Path 1281435" d="M68.117,18.983A15.627,15.627,0,0,1,39.429,27.57,15.622,15.622,0,0,0,61.07,5.929a15.6,15.6,0,0,1,7.046,13.054Z" fill="#ebbf00"/>
        <path id="Path_1281436" data-name="Path 1281436" d="M54.717,10.05v8.933a2.233,2.233,0,0,1-4.467,0V10.05a2.233,2.233,0,0,1,4.467,0Z" fill="#ff3051"/>
        <circle id="Ellipse_12649" data-name="Ellipse 12649" cx="2.233" cy="2.233" r="2.233" transform="translate(50.25 25.683)" fill="#ff3051"/>
        <path id="Path_1281437" data-name="Path 1281437" d="M32.383,12.283v10.05a2.24,2.24,0,0,1-2.233,2.233H13.4v3.35l-4.467-3.35H5.583A2.24,2.24,0,0,1,3.35,22.333V12.283A2.24,2.24,0,0,1,5.583,10.05H30.15a2.24,2.24,0,0,1,2.233,2.233Z" fill="#00d7df"/>
        <path id="Path_1281438" data-name="Path 1281438" d="M32.383,12.283v10.05a2.24,2.24,0,0,1-2.233,2.233H13.4v3.35l-4.467-3.35H5.583A2.24,2.24,0,0,1,3.35,22.333V20.1h20.1a4.48,4.48,0,0,0,4.467-4.467V10.05H30.15a2.24,2.24,0,0,1,2.233,2.233Z" fill="#009698"/>
        <path id="Path_1281439" data-name="Path 1281439" d="M52.483,24.567a3.35,3.35,0,1,0,3.35,3.35,3.35,3.35,0,0,0-3.35-3.35Zm0,4.467A1.117,1.117,0,1,1,53.6,27.917,1.117,1.117,0,0,1,52.483,29.033Z"/>
        <path id="Path_1281440" data-name="Path 1281440" d="M52.483,6.7a3.35,3.35,0,0,0-3.35,3.35v8.933a3.35,3.35,0,0,0,6.7,0V10.05A3.35,3.35,0,0,0,52.483,6.7ZM53.6,18.983a1.117,1.117,0,1,1-2.233,0V10.05a1.117,1.117,0,1,1,2.233,0Z"/>
        <path id="Path_1281441" data-name="Path 1281441" d="M52.483,2.233a16.75,16.75,0,1,0,16.75,16.75A16.75,16.75,0,0,0,52.483,2.233Zm0,31.267A14.517,14.517,0,1,1,67,18.983,14.517,14.517,0,0,1,52.483,33.5Z"/>
        <path id="Path_1281442" data-name="Path 1281442" d="M51.367,37.967H53.6V40.2H51.367Z"/>
        <path id="Path_1281443" data-name="Path 1281443" d="M51.367,56.95a7.826,7.826,0,0,1-7.817,7.817H35.733V67H43.55A10.061,10.061,0,0,0,53.6,56.95V42.433H51.367Z"/>
        <path id="Path_1281444" data-name="Path 1281444" d="M6.7,13.4H8.933v2.233H6.7Z"/>
        <path id="Path_1281445" data-name="Path 1281445" d="M11.167,13.4H29.033v2.233H11.167Z"/>
        <path id="Path_1281446" data-name="Path 1281446" d="M6.7,17.867H29.033V20.1H6.7Z"/>
        <path id="Path_1281447" data-name="Path 1281447" d="M30.15,8.933H5.583a3.35,3.35,0,0,0-3.35,3.35v10.05a3.35,3.35,0,0,0,3.35,3.35H8.561L12.73,28.81a1.117,1.117,0,0,0,1.787-.893V25.683H30.15a3.35,3.35,0,0,0,3.35-3.35V12.283A3.35,3.35,0,0,0,30.15,8.933Zm1.117,13.4A1.117,1.117,0,0,1,30.15,23.45H13.4a1.117,1.117,0,0,0-1.117,1.117v1.117L9.6,23.673a1.117,1.117,0,0,0-.67-.223H5.583a1.117,1.117,0,0,1-1.117-1.117V12.283a1.117,1.117,0,0,1,1.117-1.117H30.15a1.117,1.117,0,0,1,1.117,1.117Z"/>
        <path id="Path_1281448" data-name="Path 1281448" d="M18.983,43.55h2.233v2.233H18.983Z"/>
        <path id="Path_1281449" data-name="Path 1281449" d="M14.517,43.55H16.75v2.233H14.517Z"/>
        <path id="Path_1281450" data-name="Path 1281450" d="M32.841,60.4,30.15,59.206V41.317A10.066,10.066,0,0,0,20.1,31.267H15.633a10.057,10.057,0,0,0-10.05,10.05V59.206L2.892,60.4a1.1,1.1,0,0,0-.659,1.016v6.7A1.117,1.117,0,0,0,3.35,69.233H32.383A1.117,1.117,0,0,0,33.5,68.117v-6.7a1.1,1.1,0,0,0-.659-1.016ZM7.817,41.317a7.625,7.625,0,0,1,.826-3.484,7.771,7.771,0,0,1,6.99-4.333H20.1a7.826,7.826,0,0,1,7.817,7.817v16.9l-5.125-2.278a1.06,1.06,0,0,0-.8-.034l-.357-2.155A7.817,7.817,0,0,0,25.683,46.9V40.2a1.117,1.117,0,0,0-.5-.927l-3.35-2.233a1.107,1.107,0,0,0-.86-.168l-10.05,2.233A1.133,1.133,0,0,0,10.05,40.2v6.7A7.817,7.817,0,0,0,14.1,53.745L13.746,55.9a1.06,1.06,0,0,0-.8.033L7.817,58.212Zm10.05,11.167A5.583,5.583,0,0,1,12.283,46.9V41.093l8.71-1.932L23.45,40.8v6.1a5.583,5.583,0,0,1-5.583,5.583Zm2.155,5.2-2.155,2.155-2.155-2.155.525-3.149a7.528,7.528,0,0,0,3.261,0ZM31.267,67H4.467V62.142l8.688-3.864,3.919,3.931a1.126,1.126,0,0,0,1.586,0l3.92-3.931,8.688,3.864Z"/>
      </g>
    </g>
  </g>
</svg>
