<svg xmlns="http://www.w3.org/2000/svg" xmlns:xlink="http://www.w3.org/1999/xlink" width="79.83" height="77.054" viewBox="0 0 79.83 77.054">
  <defs>
    <clipPath id="clip-path">
      <rect id="Rectangle_410685" data-name="Rectangle 410685" width="67" height="67" transform="translate(769.051 1898)" fill="#fff" stroke="#707070" stroke-width="1"/>
    </clipPath>
  </defs>
  <g id="Group_1205995" data-name="Group 1205995" transform="translate(-756.221 -1887.946)">
    <g id="Rectangle_410684" data-name="Rectangle 410684" transform="translate(756.221 1887.946)" fill="#e2dbf9" stroke="#b7a8f1" stroke-width="3">
      <rect width="70" height="70" rx="10" stroke="none"/>
      <rect x="1.5" y="1.5" width="67" height="67" rx="8.5" fill="none"/>
    </g>
    <g id="Mask_Group_1099322" data-name="Mask Group 1099322" clip-path="url(#clip-path)">
      <g id="overview_9504586" transform="translate(768.985 1897.935)">
        <g id="Group_1210010" data-name="Group 1210010">
          <g id="Group_1210007" data-name="Group 1210007">
            <path id="Path_1280803" data-name="Path 1280803" d="M59.623,6.808A2.637,2.637,0,0,1,62.255,9.44V62.284a2.637,2.637,0,0,1-2.632,2.632H15.4a2.637,2.637,0,0,1-2.632-2.632V9.44A2.637,2.637,0,0,1,15.4,6.808Z" fill="#b06328" fill-rule="evenodd"/>
            <path id="Path_1280804" data-name="Path 1280804" d="M17.053,12.644V59.08A1.55,1.55,0,0,0,18.6,60.627H51.027a1.494,1.494,0,0,0,1.094-.453l5.393-5.393a1.494,1.494,0,0,0,.453-1.094V12.644A1.55,1.55,0,0,0,56.42,11.1H18.6a1.55,1.55,0,0,0-1.547,1.547Z" fill="#eff4f7" fill-rule="evenodd"/>
            <path id="Path_1280805" data-name="Path 1280805" d="M51.667,60.493a1.547,1.547,0,0,0,.453-.319l5.393-5.393a1.55,1.55,0,0,0,.319-.453H51.668v6.165Z" fill="#e2e3e3" fill-rule="evenodd"/>
            <path id="Path_1280806" data-name="Path 1280806" d="M28.534,6.808H35L32.374,3.1A1.255,1.255,0,0,1,33.4,1.114h8.22A1.255,1.255,0,0,1,42.646,3.1L40.021,6.808h6.465a.775.775,0,0,1,.773.773v4.431a.775.775,0,0,1-.773.773H28.534a.775.775,0,0,1-.773-.773V7.582a.774.774,0,0,1,.773-.773Z" fill="#232c36" fill-rule="evenodd"/>
          </g>
          <g id="Group_1210008" data-name="Group 1210008">
            <path id="Path_1280807" data-name="Path 1280807" d="M24.139,35.7h2.3a1.182,1.182,0,0,1,1.18,1.18V42.49a1.182,1.182,0,0,1-1.18,1.18h-2.3a1.182,1.182,0,0,1-1.18-1.18V36.882A1.182,1.182,0,0,1,24.139,35.7Z" fill="#eb3b48" fill-rule="evenodd"/>
            <path id="Path_1280808" data-name="Path 1280808" d="M32.285,31.432h2.3a1.182,1.182,0,0,1,1.18,1.18V42.49a1.182,1.182,0,0,1-1.18,1.18h-2.3a1.182,1.182,0,0,1-1.18-1.18V32.612a1.182,1.182,0,0,1,1.18-1.18Z" fill="#ffe600" fill-rule="evenodd"/>
            <path id="Path_1280809" data-name="Path 1280809" d="M40.431,27.162h2.3a1.182,1.182,0,0,1,1.18,1.18V42.49a1.182,1.182,0,0,1-1.18,1.18h-2.3a1.182,1.182,0,0,1-1.18-1.18V28.342A1.182,1.182,0,0,1,40.431,27.162Z" fill="#22c269" fill-rule="evenodd"/>
            <path id="Path_1280810" data-name="Path 1280810" d="M48.576,22.892h2.3a1.182,1.182,0,0,1,1.18,1.18V42.49a1.182,1.182,0,0,1-1.18,1.18h-2.3a1.182,1.182,0,0,1-1.18-1.18V24.072a1.182,1.182,0,0,1,1.18-1.18Z" fill="#4294ff" fill-rule="evenodd"/>
          </g>
          <g id="Group_1210009" data-name="Group 1210009">
            <circle id="Ellipse_12619" data-name="Ellipse 12619" cx="14.001" cy="14.001" r="14.001" transform="translate(4.876 38.015)" fill="#4294ff"/>
            <path id="Path_1280811" data-name="Path 1280811" d="M8.824,51.807c4.215-7.247,15.888-7.247,20.1,0a.406.406,0,0,1,0,.418c-4.215,7.247-15.888,7.247-20.1,0a.406.406,0,0,1,0-.418Z" fill="#e6f8ff" fill-rule="evenodd"/>
            <circle id="Ellipse_12620" data-name="Ellipse 12620" cx="5.645" cy="5.645" r="5.645" transform="translate(13.232 46.372)" fill="#4294ff"/>
            <circle id="Ellipse_12621" data-name="Ellipse 12621" cx="2.018" cy="2.018" r="2.018" transform="translate(16.859 49.999)" fill="#e6f8ff"/>
          </g>
        </g>
        <path id="Path_1280812" data-name="Path 1280812" d="M18.879,52.985a.969.969,0,1,1,.971-.969A.974.974,0,0,1,18.879,52.985Zm0-4.036a3.067,3.067,0,1,0,3.067,3.067A3.072,3.072,0,0,0,18.879,48.95ZM16.442,60.434l-.526,1.955a1.05,1.05,0,0,1-2.028-.543l.526-1.955a1.05,1.05,0,0,1,2.028.543Zm-3.426-.9-.909,1.577a1.05,1.05,0,1,1-1.818-1.049l.915-1.577a1.047,1.047,0,1,1,1.812,1.049Zm10.853,2.315a1.052,1.052,0,0,1-.742,1.285,1.045,1.045,0,0,1-1.286-.742l-.526-1.955a1.05,1.05,0,0,1,2.028-.543Zm3.6-1.787a1.05,1.05,0,0,1-1.818,1.049l-.909-1.577a1.049,1.049,0,1,1,1.818-1.049Zm-7.538.484v2.1a1.048,1.048,0,1,1-2.1,0v-2.1a1.048,1.048,0,1,1,2.1,0ZM13.888,42.185a1.05,1.05,0,0,1,2.028-.542l.526,1.956a1.054,1.054,0,0,1-.742,1.285,1.12,1.12,0,0,1-.272.035,1.055,1.055,0,0,1-1.014-.777ZM24.741,44.5l.909-1.577a1.049,1.049,0,1,1,1.818,1.049l-.909,1.578a1.061,1.061,0,0,1-.915.524,1.037,1.037,0,0,1-.519-.14,1.049,1.049,0,0,1-.383-1.433Zm-3.426-.9.526-1.956a1.05,1.05,0,0,1,2.028.542l-.526,1.957a1.049,1.049,0,0,1-1.014.777,1.119,1.119,0,0,1-.272-.035,1.054,1.054,0,0,1-.742-1.285Zm-11.026.375a1.049,1.049,0,1,1,1.818-1.049l.909,1.577a1.047,1.047,0,0,1-.383,1.432,1.027,1.027,0,0,1-.519.142,1.043,1.043,0,0,1-.909-.524Zm7.544-.484v-2.1a1.048,1.048,0,1,1,2.1,0v2.1a1.048,1.048,0,1,1-2.1,0ZM24.908,54.92a6.647,6.647,0,0,0,0-5.808,9.512,9.512,0,0,1,2.925,2.9A9.526,9.526,0,0,1,24.908,54.92Zm-10.624-2.9a4.595,4.595,0,1,0,4.595-4.6A4.6,4.6,0,0,0,14.284,52.016Zm-4.354,0a9.424,9.424,0,0,1,2.919-2.9,6.7,6.7,0,0,0,0,5.808A9.438,9.438,0,0,1,9.93,52.016Zm19.906-.737a12.4,12.4,0,0,0-10.779-5.954h0c-.062,0-.117,0-.179,0s-.117,0-.179,0h0A12.4,12.4,0,0,0,7.921,51.279a1.459,1.459,0,0,0,0,1.472,12.4,12.4,0,0,0,10.785,5.956v0c.056,0,.117.006.173.006s.117,0,.173-.006v0a12.4,12.4,0,0,0,10.785-5.955,1.432,1.432,0,0,0,0-1.474ZM48.45,23.941h2.566V42.62H48.45Zm-2.1-1.049V43.669A1.05,1.05,0,0,0,47.4,44.719h4.663a1.05,1.05,0,0,0,1.051-1.049V22.892a1.049,1.049,0,0,0-1.051-1.049H47.4a1.049,1.049,0,0,0-1.051,1.049ZM42.872,42.62H40.3V28.211h2.572Zm1.045-16.507H39.255A1.05,1.05,0,0,0,38.2,27.162V43.669a1.05,1.05,0,0,0,1.051,1.049h4.663a1.05,1.05,0,0,0,1.051-1.049V27.162A1.05,1.05,0,0,0,43.918,26.113ZM42.384,15.78a1.043,1.043,0,0,0,.822,1.232l1.33.262L24.846,28.642A1.049,1.049,0,0,0,25.9,30.458L45.581,19.092l-.433,1.279A1.048,1.048,0,0,0,45.8,21.7a1,1,0,0,0,.334.056,1.049,1.049,0,0,0,1-.711l1.336-3.922a1.031,1.031,0,0,0-.087-.863,1.043,1.043,0,0,0-.705-.5l-4.063-.805A1.047,1.047,0,0,0,42.384,15.78Zm18.824,46.5a1.586,1.586,0,0,1-1.583,1.582H28.142a15.157,15.157,0,0,0,2.269-2.191H51.672a1.052,1.052,0,0,0,.742-.307l6.3-6.3a1.045,1.045,0,0,0,.309-.741V11.1a1.049,1.049,0,0,0-1.051-1.049H48.308V7.858H59.625A1.586,1.586,0,0,1,61.208,9.44V62.284ZM5.929,52.016A12.949,12.949,0,1,0,18.879,39.065,12.964,12.964,0,0,0,5.929,52.016ZM13.814,9.44A1.586,1.586,0,0,1,15.4,7.858H26.714v2.191H17.054A1.048,1.048,0,0,0,16.009,11.1V37.242a14.86,14.86,0,0,0-2.2.6ZM26.578,39.089a15.161,15.161,0,0,0-2.566-1.222V36.751h2.566Zm5.578,3.531h2.566V32.482H32.156ZM55.438,55.377H52.717v2.718ZM47.263,13.835h-19.5a1.05,1.05,0,0,1-1.051-1.049v-.64H18.106v24.84c.253-.014.513-.02.773-.02a15.045,15.045,0,0,1,3.036.307V35.7a1.048,1.048,0,0,1,1.045-1.049h4.669A1.048,1.048,0,0,1,28.674,35.7v4.9a15.607,15.607,0,0,1,1.385,1.351V31.432A1.048,1.048,0,0,1,31.1,30.384h4.669a1.044,1.044,0,0,1,1.045,1.049V43.669a1.045,1.045,0,0,1-1.045,1.049H32.038a15.2,15.2,0,0,1,1.1,2.477H52.662a1.049,1.049,0,1,1,0,2.1H33.683a15.2,15.2,0,0,1,.247,2.723c0,.461-.025.919-.062,1.37h12.5a1.049,1.049,0,0,1,0,2.1H33.522a14.753,14.753,0,0,1-1.633,4.093H50.621v-5.25a1.049,1.049,0,0,1,1.051-1.049h5.25V12.146H48.308v.64a1.045,1.045,0,0,1-1.045,1.049ZM28.81,7.858v3.88h17.4V7.858h-6.19A1.05,1.05,0,0,1,39.168,6.2L41.79,2.491a.2.2,0,0,0,.019-.216.193.193,0,0,0-.186-.111H33.4a.193.193,0,0,0-.186.111.186.186,0,0,0,.012.216L35.86,6.2a1.06,1.06,0,0,1,.074,1.088A1.048,1.048,0,0,1,35,7.858Zm30.815-2.1H42.05L43.5,3.7A2.3,2.3,0,0,0,41.623.066H33.4A2.3,2.3,0,0,0,31.519,3.7L32.978,5.76H15.4a3.684,3.684,0,0,0-3.679,3.68V38.781A15.049,15.049,0,0,0,24.531,65.964H59.625a3.684,3.684,0,0,0,3.679-3.68V9.44a3.684,3.684,0,0,0-3.679-3.68Z" fill-rule="evenodd"/>
      </g>
    </g>
  </g>
</svg>
