<svg xmlns="http://www.w3.org/2000/svg" xmlns:xlink="http://www.w3.org/1999/xlink" width="79.83" height="77.054" viewBox="0 0 79.83 77.054">
  <defs>
    <clipPath id="clip-path">
      <rect id="Rectangle_410685" data-name="Rectangle 410685" width="67" height="67" transform="translate(769.051 1898)" fill="#fff" stroke="#707070" stroke-width="1"/>
    </clipPath>
  </defs>
  <g id="Group_1205997" data-name="Group 1205997" transform="translate(-756.221 -1887.946)">
    <g id="Rectangle_410684" data-name="Rectangle 410684" transform="translate(756.221 1887.946)" fill="#e2dbf9" stroke="#b7a8f1" stroke-width="3">
      <rect width="70" height="70" rx="10" stroke="none"/>
      <rect x="1.5" y="1.5" width="67" height="67" rx="8.5" fill="none"/>
    </g>
    <g id="Mask_Group_1099320" data-name="Mask Group 1099320" clip-path="url(#clip-path)">
      <g id="pie-chart_12445451" transform="translate(766.957 1895.906)">
        <g id="Group_1209993" data-name="Group 1209993">
          <path id="Path_1280777" data-name="Path 1280777" d="M66.476,39.326A30.733,30.733,0,0,1,35.488,68.309a30.91,30.91,0,0,1,.125-61.82V3.921A1.039,1.039,0,0,1,37.285,3.1l8.072,6.195a1.039,1.039,0,0,1,0,1.649l-1.333,1.022-6.739,5.165a1.039,1.039,0,0,1-1.671-.825V12.967A24.432,24.432,0,1,0,60.007,39.1a1.043,1.043,0,0,1,1.06-.986l2.011.05,2.382.067a1.043,1.043,0,0,1,1.015,1.093Z" fill="#feeb75"/>
        </g>
        <g id="Group_1209994" data-name="Group 1209994">
          <path id="Path_1280778" data-name="Path 1280778" d="M63.079,38.166a27.476,27.476,0,1,1-27.466-28.5V7.614a1.039,1.039,0,0,1,1.672-.824l6.739,5.173-6.739,5.165a1.039,1.039,0,0,1-1.671-.825V12.967A24.432,24.432,0,1,0,60.007,39.1a1.043,1.043,0,0,1,1.06-.986Z" fill="#fff3ab"/>
        </g>
        <g id="Group_1209995" data-name="Group 1209995">
          <path id="Path_1280779" data-name="Path 1280779" d="M35.619,69.094h-.135A31.851,31.851,0,0,1,4.033,40.02a31.423,31.423,0,0,1,8.285-24.087A31.815,31.815,0,0,1,34.826,5.714V3.921A1.823,1.823,0,0,1,37.76,2.474l8.072,6.194a1.826,1.826,0,0,1,0,2.894l-8.073,6.188A1.825,1.825,0,0,1,34.826,16.3V13.765A23.671,23.671,0,0,0,11.987,38.171,23.842,23.842,0,0,0,35.517,61.046h.107a23.4,23.4,0,0,0,23.6-22,1.826,1.826,0,0,1,1.817-1.717h.05l4.389.117a1.856,1.856,0,0,1,1.307.6,1.8,1.8,0,0,1,.474,1.329h0a31.692,31.692,0,0,1-31.64,29.718ZM36.653,3.665a.263.263,0,0,0-.116.028.246.246,0,0,0-.141.228V6.489a.785.785,0,0,1-.785.785A30.23,30.23,0,0,0,13.472,17,29.866,29.866,0,0,0,5.6,39.894,30.27,30.27,0,0,0,35.49,67.523h.129A30.117,30.117,0,0,0,65.691,39.279a.228.228,0,0,0-.064-.173.264.264,0,0,0-.191-.088L61.047,38.9H61.04a.258.258,0,0,0-.251.254A24.959,24.959,0,0,1,35.624,62.616H35.51A25.428,25.428,0,0,1,10.417,38.221a25.241,25.241,0,0,1,25.193-26.04h0a.785.785,0,0,1,.785.785V16.3a.254.254,0,0,0,.408.2l8.072-6.187a.255.255,0,0,0,0-.4L36.8,3.719a.243.243,0,0,0-.151-.054ZM66.475,39.327h.01Z"/>
        </g>
        <g id="Group_1209996" data-name="Group 1209996">
          <path id="Path_1280780" data-name="Path 1280780" d="M52.145,38.287A16.528,16.528,0,1,1,35.624,21.765,16.449,16.449,0,0,1,52.145,38.287Z" fill="#a7d08c"/>
        </g>
        <g id="Group_1209997" data-name="Group 1209997">
          <path id="Path_1280781" data-name="Path 1280781" d="M35.624,55.593a17.3,17.3,0,1,1,10.95-3.9,17.124,17.124,0,0,1-10.95,3.9Zm0-33.042a15.736,15.736,0,1,0,0,31.472A15.734,15.734,0,0,0,51.36,38.287,15.754,15.754,0,0,0,35.624,22.551Z"/>
        </g>
        <g id="Group_1209998" data-name="Group 1209998">
          <path id="Path_1280782" data-name="Path 1280782" d="M52.145,38.287A16.449,16.449,0,0,1,46.078,51.08L35.624,38.287V21.765A16.509,16.509,0,0,1,52.145,38.287Z" fill="#fe9967"/>
        </g>
        <g id="Group_1209999" data-name="Group 1209999">
          <path id="Path_1280783" data-name="Path 1280783" d="M46.409,38.287A10.793,10.793,0,1,1,35.621,27.5,10.741,10.741,0,0,1,46.409,38.287Z" fill="#badda4"/>
        </g>
        <g id="Group_1210000" data-name="Group 1210000">
          <path id="Path_1280784" data-name="Path 1280784" d="M46.409,38.287a10.741,10.741,0,0,1-3.961,8.354l-6.827-8.354V27.5A10.78,10.78,0,0,1,46.409,38.287Z" fill="#ffac88"/>
        </g>
        <g id="Group_1210001" data-name="Group 1210001">
          <path id="Path_1280785" data-name="Path 1280785" d="M46.078,51.865a.784.784,0,0,1-.608-.288L35.016,38.783a.785.785,0,0,1-.177-.5V21.766a.785.785,0,0,1,.785-.785,17.307,17.307,0,0,1,10.95,30.709.783.783,0,0,1-.5.176ZM36.409,38.006l9.769,11.955a15.739,15.739,0,0,0-9.77-27.391Z"/>
        </g>
      </g>
    </g>
  </g>
</svg>
