<svg xmlns="http://www.w3.org/2000/svg" xmlns:xlink="http://www.w3.org/1999/xlink" width="79.83" height="77.054" viewBox="0 0 79.83 77.054">
  <defs>
    <clipPath id="clip-path">
      <rect id="Rectangle_410685" data-name="Rectangle 410685" width="67" height="67" transform="translate(769.051 1898)" fill="#fff" stroke="#707070" stroke-width="1"/>
    </clipPath>
  </defs>
  <g id="Group_1205998" data-name="Group 1205998" transform="translate(-756.221 -1887.946)">
    <g id="Rectangle_410684" data-name="Rectangle 410684" transform="translate(756.221 1887.946)" fill="#e2dbf9" stroke="#b7a8f1" stroke-width="3">
      <rect width="70" height="70" rx="10" stroke="none"/>
      <rect x="1.5" y="1.5" width="67" height="67" rx="8.5" fill="none"/>
    </g>
    <g id="Mask_Group_1099319" data-name="Mask Group 1099319" clip-path="url(#clip-path)">
      <g id="opportunities_18493908" transform="translate(765.341 1895.697)">
        <g id="Group_1209992" data-name="Group 1209992">
          <path id="Path_1280769" data-name="Path 1280769" d="M10.2,38.653H39.789a3.7,3.7,0,0,1,3.7,3.681V59.188a3.691,3.691,0,0,1-3.7,3.681H10.2a3.7,3.7,0,0,1-3.7-3.681V42.335a3.7,3.7,0,0,1,3.7-3.681Z" fill="#80311a" fill-rule="evenodd"/>
          <path id="Path_1280770" data-name="Path 1280770" d="M45.139,46.39V37.906a3.225,3.225,0,0,0-3.221-3.221H8.067a3.225,3.225,0,0,0-3.221,3.221V46.39a3.208,3.208,0,0,0,2.617,3.164l17.529,3.307,17.529-3.307a3.219,3.219,0,0,0,2.617-3.164Z" fill="#dd6e42" fill-rule="evenodd"/>
          <path id="Path_1280771" data-name="Path 1280771" d="M39.358,34.67H10.627v5.608A2.3,2.3,0,0,0,12.5,42.536l12.5,2.358,12.5-2.358a2.272,2.272,0,0,0,1.869-2.258Z" fill="#f79257" fill-rule="evenodd"/>
          <path id="Path_1280772" data-name="Path 1280772" d="M36.842,8.7A21.534,21.534,0,1,0,49.625,47.555l10.5,10.5,4.544-4.544-10.5-10.5A21.52,21.52,0,0,0,36.842,8.7Z" fill="#6abdc8" fill-rule="evenodd"/>
          <path id="Path_1280773" data-name="Path 1280773" d="M57.2,46.045l-4.487,4.487a1.918,1.918,0,0,0,0,2.689l9.117,9.117a1.892,1.892,0,0,0,2.689,0L69,57.851a1.892,1.892,0,0,0,0-2.689l-9.117-9.117A1.875,1.875,0,0,0,57.2,46.045Z" fill="#013047" fill-rule="evenodd"/>
          <path id="Path_1280774" data-name="Path 1280774" d="M36.842,12.971a17.27,17.27,0,1,0,17.27,17.27,17.267,17.267,0,0,0-17.27-17.27Z" fill="#fff" fill-rule="evenodd"/>
          <path id="Path_1280775" data-name="Path 1280775" d="M37.446,24.992l1.179,2.387a.707.707,0,0,0,.5.374l2.632.388a.691.691,0,0,1,.546.46.65.65,0,0,1-.173.69l-1.9,1.869a.713.713,0,0,0-.2.6l.446,2.617a.682.682,0,0,1-.978.719l-2.358-1.237a.7.7,0,0,0-.633,0L34.152,35.1a.656.656,0,0,1-.719-.058.667.667,0,0,1-.273-.661l.446-2.617a.637.637,0,0,0-.2-.6l-1.9-1.869a.657.657,0,0,1-.173-.69.691.691,0,0,1,.546-.46l2.632-.388a.619.619,0,0,0,.5-.374l1.179-2.387a.71.71,0,0,1,1.251,0Z" fill="#f9a13f" fill-rule="evenodd"/>
        </g>
        <path id="Path_1280776" data-name="Path 1280776" d="M46.1,31.046a1.15,1.15,0,0,1,0-2.3h1.841a1.15,1.15,0,1,1,0,2.3Zm-.676-4.789a1.147,1.147,0,0,1-1.15-1.984l2.646-1.524a1.147,1.147,0,1,1,1.15,1.984Zm-2.962-3.811A1.147,1.147,0,0,1,40.48,21.3l.273-.475a1.147,1.147,0,0,1,1.984,1.15Zm1.812,13.071a1.147,1.147,0,0,1,1.15-1.984l4.141,2.387a1.147,1.147,0,1,1-1.15,1.984Zm-3.8,2.962a1.147,1.147,0,1,1,1.984-1.15l.92,1.6a1.147,1.147,0,1,1-1.984,1.15Zm-4.789.661a1.15,1.15,0,1,1,2.3,0v1.841a1.15,1.15,0,0,1-2.3,0Zm-4.458-1.8a1.147,1.147,0,0,1,1.984,1.15L30.7,42.867a1.147,1.147,0,1,1-1.984-1.15ZM28.257,33.52a1.147,1.147,0,1,1,1.15,1.984l-1.582.92a1.147,1.147,0,0,1-1.15-1.984ZM27.6,28.746a1.15,1.15,0,1,1,0,2.3H25.755a1.15,1.15,0,1,1,0-2.3Zm1.812-4.472a1.147,1.147,0,1,1-1.15,1.984l-.791-.46a1.147,1.147,0,0,1,1.15-1.984Zm3.768-3.02a1.139,1.139,0,0,1-.331,1.582,1.158,1.158,0,0,1-1.6-.331l-2.416-3.739a1.145,1.145,0,1,1,1.927-1.237Zm4.817-.618a1.15,1.15,0,1,1-2.3,0V18.795a1.15,1.15,0,1,1,2.3,0Zm.489,3.854,1.079,2.157,2.387.345A1.828,1.828,0,0,1,42.967,30.1l-1.726,1.7.4,2.387A1.818,1.818,0,0,1,39,36.094l-2.143-1.122-2.143,1.122a1.824,1.824,0,0,1-2.646-1.913l.4-2.387-1.726-1.7a1.825,1.825,0,0,1,1.007-3.106l2.387-.345,1.079-2.157a1.821,1.821,0,0,1,3.264,0ZM37.6,27.883l-.762-1.539-.762,1.539a1.807,1.807,0,0,1-1.366.992l-1.7.244,1.222,1.194a1.8,1.8,0,0,1,.518,1.611l-.288,1.7,1.524-.791a1.748,1.748,0,0,1,1.682,0l1.524.791-.288-1.7a1.823,1.823,0,0,1,.518-1.611l1.222-1.194-1.7-.244a1.752,1.752,0,0,1-1.352-.992Zm-.762-13.762a16.12,16.12,0,1,0,16.12,16.12,16.122,16.122,0,0,0-16.12-16.12ZM23.813,17.213a18.415,18.415,0,1,1,0,26.042A18.417,18.417,0,0,1,23.813,17.213Zm34.2,29.637-4.472,4.487a.764.764,0,0,0,0,1.064l9.117,9.117a.764.764,0,0,0,1.064,0L68.2,57.031a.764.764,0,0,0,0-1.064L59.087,46.85A.782.782,0,0,0,58.009,46.85ZM52.66,48.964l2.919-2.919L53.364,43.83a1.154,1.154,0,0,1-.058-1.567,20.329,20.329,0,1,0-4.372,4.4,1.139,1.139,0,0,1,1.5.115Zm4.7-4.386a3.039,3.039,0,0,1,3.336.661l9.117,9.117a3.046,3.046,0,0,1,0,4.314l-4.487,4.487a3.073,3.073,0,0,1-4.314,0l-9.1-9.131a3.069,3.069,0,0,1-.69-3.25L49.51,49.065a22.576,22.576,0,0,1-4.875,2.488v7.636A4.842,4.842,0,0,1,39.8,64.02H10.2a4.842,4.842,0,0,1-4.832-4.832V49.812A4.315,4.315,0,0,1,3.71,46.39V37.906a4.37,4.37,0,0,1,4.372-4.372h6.327A22.689,22.689,0,1,1,55.694,42.9ZM42.32,52.257a22.955,22.955,0,0,1-5.479.661,22.628,22.628,0,0,1-4.1-.374l-7.521,1.424a1.162,1.162,0,0,1-.446,0L7.665,50.747v8.441A2.535,2.535,0,0,0,10.2,61.719H39.789a2.556,2.556,0,0,0,2.545-2.531V52.257ZM27.955,51.121a22.673,22.673,0,0,1-8.3-6.068l-7.391-1.395a3.412,3.412,0,0,1-2.8-3.379V35.821H8.053A2.068,2.068,0,0,0,6,37.891v8.484A2.041,2.041,0,0,0,7.679,48.4l17.314,3.264Zm-10.3-8.786a22.672,22.672,0,0,1-2.8-6.514H11.777v4.458a1.129,1.129,0,0,0,.935,1.122Z"/>
      </g>
    </g>
  </g>
</svg>
