<svg xmlns="http://www.w3.org/2000/svg" xmlns:xlink="http://www.w3.org/1999/xlink" width="79.83" height="77.054" viewBox="0 0 79.83 77.054">
  <defs>
    <clipPath id="clip-path">
      <rect id="Rectangle_410685" data-name="Rectangle 410685" width="67" height="67" transform="translate(769.051 1898)" fill="#fff" stroke="#707070" stroke-width="1"/>
    </clipPath>
    <clipPath id="clip-path-2">
      <path id="path2712" d="M0-67H67V0H0Z"/>
    </clipPath>
  </defs>
  <g id="Group_1206000" data-name="Group 1206000" transform="translate(-756.221 -1887.946)">
    <g id="Rectangle_410684" data-name="Rectangle 410684" transform="translate(756.221 1887.946)" fill="#e2dbf9" stroke="#b7a8f1" stroke-width="3">
      <rect width="70" height="70" rx="10" stroke="none"/>
      <rect x="1.5" y="1.5" width="67" height="67" rx="8.5" fill="none"/>
    </g>
    <g id="Mask_Group_1099317" data-name="Mask Group 1099317" clip-path="url(#clip-path)">
      <g id="g2706" transform="translate(769.051 1965)">
        <g id="g2708">
          <g id="g2710" clip-path="url(#clip-path-2)">
            <g id="g2716" transform="translate(48.777 -13.963)">
              <path id="path2718" d="M0,0,3.144-3.339a3.571,3.571,0,0,1,.453-.4l-6.37-6a25.378,25.378,0,0,1-2.192,2.7A21.772,21.772,0,0,1-6.647-5.415L-.379.48A3.724,3.724,0,0,1,0,0" fill="#e6e6e6" fill-rule="evenodd"/>
            </g>
            <g id="g2720" transform="translate(50.939 -18.223)">
              <path id="path2722" d="M0,0-3.144,3.339a3.284,3.284,0,0,0-.379.48,3.489,3.489,0,0,0,.528,4.433L5.561,16.3a3.485,3.485,0,0,0,4.912-.146l3.144-3.342a3.489,3.489,0,0,0-.15-4.913L4.912-.15A3.493,3.493,0,0,0,.453-.408,3.3,3.3,0,0,0,0,0" fill="#a39b9b" fill-rule="evenodd"/>
            </g>
            <g id="g2724" transform="translate(49.811 -11.954)">
              <path id="path2726" d="M0,0A3.483,3.483,0,0,1-.528-4.433a3.682,3.682,0,0,1,.371-.472l0,0L-2.016-2.93a3.284,3.284,0,0,0-.379.48,3.489,3.489,0,0,0,.528,4.433l8.555,8.049A3.485,3.485,0,0,0,11.6,9.885L13.467,7.9a3.494,3.494,0,0,1-4.916.15Z" fill="#817676" fill-rule="evenodd"/>
            </g>
            <g id="g2728" transform="translate(49.167 -16.342)">
              <path id="path2730" d="M0,0-3.983-3.751c-.064.068-.127.139-.191.206q-.809.86-1.682,1.619L-1.75,1.937a3.284,3.284,0,0,1,.379-.48Z" fill="#c5bec7" fill-rule="evenodd"/>
            </g>
            <g id="g2732" transform="translate(10.68 -52.176)">
              <path id="path2734" d="M0,0A23.558,23.558,0,1,1,1.012,33.3,23.561,23.561,0,0,1,0,0" fill="#1684ba" fill-rule="evenodd"/>
            </g>
            <g id="g2736" transform="translate(21.982 -54.346)">
              <path id="path2738" d="M0,0A23.149,23.149,0,0,1,7.232-5.2,23.5,23.5,0,0,0-11.039,1.9l-.262.274a23.562,23.562,0,0,0,28.133,37,23.209,23.209,0,0,1-11.511-3.1,16.319,16.319,0,0,1-1.656-.127,16.461,16.461,0,0,1-2.076-.382A17.528,17.528,0,0,1-2.2,34.152a17.765,17.765,0,0,1-4.122-2.9c-.258-.244-.506-.491-.749-.746a17.645,17.645,0,0,1-2.072-2.66,17.77,17.77,0,0,1,2.061-21.7c.064-.071.131-.139.2-.21A17.754,17.754,0,0,1-1.941,2.349,23.7,23.7,0,0,1,0,0" fill="#18609b" fill-rule="evenodd"/>
            </g>
            <g id="g2740" transform="translate(14.903 -48.204)">
              <path id="path2742" d="M0,0A17.761,17.761,0,1,1,.761,25.106,17.761,17.761,0,0,1,0,0" fill="#ade3f7" fill-rule="evenodd"/>
            </g>
            <g id="g2744" transform="translate(19.786 -20.194)">
              <path id="path2746" d="M0,0V-16.008a1.4,1.4,0,0,0-1.4-1.4H-5.549a1.4,1.4,0,0,0-1.394,1.4v9.7A17.785,17.785,0,0,0-4.122-2.9,17.772,17.772,0,0,0,0,0" fill="#ff4d48" fill-rule="evenodd"/>
            </g>
            <g id="g2748" transform="translate(23.57 -44.6)">
              <path id="path2750" d="M0,0V25.811a17.773,17.773,0,0,0,6.943.315V0a1.4,1.4,0,0,0-1.4-1.4H1.4A1.4,1.4,0,0,0,0,0" fill="#ffd45e" fill-rule="evenodd"/>
            </g>
            <g id="g2752" transform="translate(34.163 -19.43)">
              <path id="path2754" d="M0,0A17.718,17.718,0,0,0,6.606-4.429c.116-.124.229-.244.337-.367v-40.4a1.4,1.4,0,0,0-1.4-1.394H1.4A1.4,1.4,0,0,0,0-45.195Z" fill="#98e38d" fill-rule="evenodd"/>
            </g>
            <g id="g2756" transform="translate(36.239 -20.378)">
              <path id="path2758" d="M0,0V-44.247a1.4,1.4,0,0,1,1.394-1.394H-.678a1.4,1.4,0,0,0-1.4,1.394V.948A17.507,17.507,0,0,0,0,0" fill="#51b87c" fill-rule="evenodd"/>
            </g>
            <g id="g2760" transform="translate(25.646 -18.407)">
              <path id="path2762" d="M0,0V-26.193a1.4,1.4,0,0,1,1.394-1.4H-.678a1.4,1.4,0,0,0-1.4,1.4V-.382A16.437,16.437,0,0,0,0,0" fill="#ffac38" fill-rule="evenodd"/>
            </g>
            <g id="g2764" transform="translate(14.915 -23.844)">
              <path id="path2766" d="M0,0V-12.358a1.4,1.4,0,0,1,1.4-1.4H-.678a1.4,1.4,0,0,0-1.394,1.4v9.7A17.645,17.645,0,0,0,0,0" fill="#bb1c4f" fill-rule="evenodd"/>
            </g>
            <g id="g2768" transform="translate(15.679 -37.6)">
              <path id="path2770" d="M0,0A23.192,23.192,0,0,1,4.362-14.4,17.752,17.752,0,0,0-.577-10.814l-.2.21A17.771,17.771,0,0,0-2.837,11.1V1.4A1.4,1.4,0,0,1-1.443,0Z" fill="#86bfdb" fill-rule="evenodd"/>
            </g>
            <g id="g2772" transform="translate(19.19 -50.052)">
              <path id="path2774" d="M0,0A8.738,8.738,0,0,0,.607-1.428H1.69A1.382,1.382,0,0,0,3.069-2.807V-4.924A1.382,1.382,0,0,0,1.69-6.3H.671a8.047,8.047,0,0,0-.6-1.5l.2-.2s.457-.461.5-.5a1.386,1.386,0,0,0,0-1.952l-1.5-1.5a1.382,1.382,0,0,0-1.948,0l-.637.637a8.3,8.3,0,0,0-1.566-.678v-.873A1.382,1.382,0,0,0-6.25-14.243H-8.367a1.382,1.382,0,0,0-1.379,1.375v.873a8.309,8.309,0,0,0-1.566.678l-.637-.637a1.382,1.382,0,0,0-1.949,0l-1.5,1.5a1.386,1.386,0,0,0,0,1.952l.7.7a8.038,8.038,0,0,0-.6,1.5h-1.019a1.382,1.382,0,0,0-1.379,1.379v2.117a1.382,1.382,0,0,0,1.379,1.379h1.087A8.4,8.4,0,0,0-14.617,0L-15.4.776a1.382,1.382,0,0,0,0,1.949l1.5,1.5a1.381,1.381,0,0,0,.937.4,1.387,1.387,0,0,0,1.012-.4l.776-.779a8.264,8.264,0,0,0,1.427.6V5.134A1.383,1.383,0,0,0-8.367,6.513H-6.25A1.383,1.383,0,0,0-4.871,5.134V4.047a8.271,8.271,0,0,0,1.428-.6l.776.779a1.392,1.392,0,0,0,.281.214A1.381,1.381,0,0,0-.72,4.223l1.5-1.5a1.382,1.382,0,0,0,0-1.949Z" fill="#a39b9b" fill-rule="evenodd"/>
            </g>
            <g id="g2776" transform="translate(7.286 -61.96)">
              <path id="path2778" d="M0,0-.045-.045a1.382,1.382,0,0,0-1.948,0l-1.5,1.5a1.386,1.386,0,0,0,0,1.952l.7.7a8.041,8.041,0,0,0-.6,1.5H-4.4A1.382,1.382,0,0,0-5.782,6.985V9.1A1.382,1.382,0,0,0-4.4,10.481h1.087a8.393,8.393,0,0,0,.6,1.428l-.779.776a1.382,1.382,0,0,0,0,1.949l1.5,1.5a1.381,1.381,0,0,0,.937.4,1.386,1.386,0,0,0,1.012-.4l.776-.779a8.275,8.275,0,0,0,1.428.6v1.087a1.383,1.383,0,0,0,1.379,1.379H5.654a1.383,1.383,0,0,0,1.379-1.379v-1.03c-.322-.116-.641-.247-.952-.39C-2.233,14.393-3.005,6.352,0,0" fill="#817676" fill-rule="evenodd"/>
            </g>
            <g id="g2780" transform="translate(7.967 -54.601)">
              <path id="path2782" d="M0,0A3.977,3.977,0,0,0,6.808,3.406,3.973,3.973,0,1,0,0,0" fill="#e6e6e6" fill-rule="evenodd"/>
            </g>
            <g id="g2784" transform="translate(10.819 -52.319)">
              <path id="path2786" d="M0,0A3.944,3.944,0,0,1-.217-2.162,3.957,3.957,0,0,1,2.552-5.283.227.227,0,0,1,2.507-5.3,3.966,3.966,0,0,0,.6-5.546a0,0,0,0,1,0,0,4.023,4.023,0,0,0-2.2,1v0A3.9,3.9,0,0,0-2.848-2.3c0,.007,0,.011,0,.019a.661.661,0,0,1-.015.086v.007A3.85,3.85,0,0,0-1.982.952a4.071,4.071,0,0,0,.626.592,4.159,4.159,0,0,0,1.368.689,3.868,3.868,0,0,0,2.241-.019L2.222,2.2A4.055,4.055,0,0,1,0,0" fill="#bdb8c5" fill-rule="evenodd"/>
            </g>
            <g id="g2788" transform="translate(61.413 -2.069)">
              <path id="path2790" d="M0,0,3.144-3.343a3.489,3.489,0,0,0-.15-4.912L-5.561-16.3a3.482,3.482,0,0,0-4.912.15l-3.144,3.339a3.482,3.482,0,0,0,.15,4.913L-4.912.146A3.486,3.486,0,0,0,0,0Z" fill="none" stroke="#000" stroke-linecap="round" stroke-linejoin="round" stroke-miterlimit="10" stroke-width="1.978"/>
            </g>
            <g id="g2792" transform="translate(47.185 -22.593)">
              <path id="path2794" d="M0,0,4.208,3.961M.232,8.188-3.874,4.324" fill="none" stroke="#000" stroke-linecap="round" stroke-linejoin="round" stroke-miterlimit="10" stroke-width="1.978"/>
            </g>
            <g id="g2796" transform="translate(34.164 -19.43)">
              <path id="path2798" d="M0,0V-45.195a1.4,1.4,0,0,1,1.4-1.394H5.546a1.4,1.4,0,0,1,1.4,1.394V-4.8" fill="none" stroke="#000" stroke-linecap="round" stroke-linejoin="round" stroke-miterlimit="10" stroke-width="1.978"/>
            </g>
            <g id="g2800" transform="translate(12.843 -26.505)">
              <path id="path2802" d="M0,0V-9.7a1.4,1.4,0,0,1,1.394-1.4H5.546a1.4,1.4,0,0,1,1.4,1.4V6.31" fill="none" stroke="#000" stroke-linecap="round" stroke-linejoin="round" stroke-miterlimit="10" stroke-width="1.978"/>
            </g>
            <g id="g2804" transform="translate(23.571 -31.792)">
              <path id="path2806" d="M0,0V-12.808a1.4,1.4,0,0,1,1.4-1.4H5.546a1.4,1.4,0,0,1,1.4,1.4V13.318M0,13V4.748" fill="none" stroke="#000" stroke-linecap="round" stroke-linejoin="round" stroke-miterlimit="10" stroke-width="1.978"/>
            </g>
            <g id="g2808" transform="translate(19.191 -50.052)">
              <path id="path2810" d="M0,0A8.738,8.738,0,0,0,.607-1.428H1.69A1.383,1.383,0,0,0,3.069-2.807V-4.924A1.383,1.383,0,0,0,1.69-6.3H.671a8.051,8.051,0,0,0-.6-1.5l.7-.7a1.386,1.386,0,0,0,0-1.952l-1.5-1.5a1.382,1.382,0,0,0-1.948,0l-.637.637a8.311,8.311,0,0,0-1.566-.678v-.873A1.382,1.382,0,0,0-6.25-14.243H-8.367a1.382,1.382,0,0,0-1.379,1.375v.873a8.31,8.31,0,0,0-1.566.678l-.637-.637a1.382,1.382,0,0,0-1.948,0l-1.5,1.5a1.387,1.387,0,0,0,0,1.952l.7.7a8.043,8.043,0,0,0-.6,1.5h-1.019a1.382,1.382,0,0,0-1.379,1.379v2.117a1.382,1.382,0,0,0,1.379,1.379h1.087A8.415,8.415,0,0,0-14.617,0L-15.4.776a1.382,1.382,0,0,0,0,1.948l1.5,1.5a1.382,1.382,0,0,0,1.948,0l.776-.779a8.281,8.281,0,0,0,1.428.6V5.134A1.383,1.383,0,0,0-8.367,6.513H-6.25A1.382,1.382,0,0,0-4.871,5.134V4.047a8.277,8.277,0,0,0,1.428-.6l.776.779a1.382,1.382,0,0,0,1.948,0l1.5-1.5a1.382,1.382,0,0,0,0-1.948Z" fill="none" stroke="#000" stroke-linecap="round" stroke-linejoin="round" stroke-miterlimit="10" stroke-width="1.978"/>
            </g>
            <g id="g2812" transform="translate(8.991 -56.639)">
              <path id="path2814" d="M0,0A3.972,3.972,0,1,1,.169,5.613,3.972,3.972,0,0,1,0,0Z" fill="none" stroke="#000" stroke-linecap="round" stroke-linejoin="round" stroke-miterlimit="10" stroke-width="1.978"/>
            </g>
            <g id="g2816" transform="translate(22.26 -52.896)">
              <path id="path2818" d="M0,0A17.813,17.813,0,0,1,11.9.266m6.943,4.793a17.761,17.761,0,1,1-29.37,4.3" fill="none" stroke="#000" stroke-linecap="round" stroke-linejoin="round" stroke-miterlimit="10" stroke-width="1.978"/>
            </g>
            <g id="g2820" transform="translate(19.465 -58.056)">
              <path id="path2822" d="M0,0A23.662,23.662,0,0,1,14.7-.671M-9.885,36.913a23.628,23.628,0,0,1-3.354-24.286M21.643,2.559a23.78,23.78,0,0,1,2.874,2.308A23.558,23.558,0,0,1-6.2,40.533" fill="none" stroke="#000" stroke-linecap="round" stroke-linejoin="round" stroke-miterlimit="10" stroke-width="1.978"/>
            </g>
          </g>
        </g>
      </g>
    </g>
  </g>
</svg>
