<svg xmlns="http://www.w3.org/2000/svg" xmlns:xlink="http://www.w3.org/1999/xlink" width="79.83" height="77.054" viewBox="0 0 79.83 77.054">
  <defs>
    <clipPath id="clip-path">
      <rect id="Rectangle_410685" data-name="Rectangle 410685" width="67" height="67" transform="translate(769.051 1898)" fill="#fff" stroke="#707070" stroke-width="1"/>
    </clipPath>
  </defs>
  <g id="Group_1210091" data-name="Group 1210091" transform="translate(-798.323 -9993.298)">
    <g id="Group_1209450" data-name="Group 1209450" transform="translate(42.102 8105.352)">
      <g id="Rectangle_410684" data-name="Rectangle 410684" transform="translate(756.221 1887.946)" fill="#e2dbf9" stroke="#b7a8f1" stroke-width="3">
        <rect width="70" height="70" rx="10" stroke="none"/>
        <rect x="1.5" y="1.5" width="67" height="67" rx="8.5" fill="none"/>
      </g>
      <g id="Mask_Group_1099331" data-name="Mask Group 1099331" clip-path="url(#clip-path)">
        <g id="Dashed_Line" transform="translate(766.817 1895.767)">
          <g id="Group_1210074" data-name="Group 1210074">
            <rect id="Rectangle_425937" data-name="Rectangle 425937" width="14.517" height="31.267" transform="translate(40.2 14.517)" fill="#92cbd7"/>
            <rect id="Rectangle_425938" data-name="Rectangle 425938" width="51.367" height="8.933" transform="translate(3.35 5.583)" fill="#92cbd7"/>
            <rect id="Rectangle_425939" data-name="Rectangle 425939" width="36.85" height="31.267" transform="translate(3.35 14.517)" fill="#fbd37d"/>
            <path id="Path_1281161" data-name="Path 1281161" d="M68.117,33.277V47.123A3.122,3.122,0,0,1,64.99,50.25H35.51a3.122,3.122,0,0,1-3.127-3.127V33.277A3.122,3.122,0,0,1,35.51,30.15H52.483l3.35-4.467,3.35,4.467H64.99A3.122,3.122,0,0,1,68.117,33.277Z" fill="#fbd37d"/>
            <rect id="Rectangle_425940" data-name="Rectangle 425940" width="8.933" height="8.933" transform="translate(10.05 18.983)" fill="#92cbd7"/>
            <rect id="Rectangle_425941" data-name="Rectangle 425941" width="8.933" height="6.7" transform="translate(10.05 32.383)" fill="#92cbd7"/>
            <path id="Path_1281162" data-name="Path 1281162" d="M44.667,44.533V58.2a3.217,3.217,0,0,1-3.216,3.216H32.383l-3.35,4.467-3.35-4.467H9.916A3.217,3.217,0,0,1,6.7,58.2V44.533a3.217,3.217,0,0,1,3.216-3.216H41.451A3.217,3.217,0,0,1,44.667,44.533Z" fill="#92cbd7"/>
            <path id="Path_1281163" data-name="Path 1281163" d="M21.217,50.25h-6.7a1.117,1.117,0,0,1,0-2.233h6.7A1.117,1.117,0,0,1,21.217,50.25Z"/>
            <path id="Path_1281164" data-name="Path 1281164" d="M25.683,55.833H14.517a1.117,1.117,0,0,1,0-2.233H25.683A1.117,1.117,0,0,1,25.683,55.833Z"/>
            <path id="Path_1281165" data-name="Path 1281165" d="M29.033,67a1.116,1.116,0,0,1-.893-.447l-3.015-4.02H9.918A4.339,4.339,0,0,1,5.583,58.2V44.535A4.339,4.339,0,0,1,9.918,40.2H41.449a4.339,4.339,0,0,1,4.335,4.335V58.2a4.339,4.339,0,0,1-4.335,4.335H32.942l-3.015,4.02A1.115,1.115,0,0,1,29.033,67ZM9.918,42.433a2.1,2.1,0,0,0-2.1,2.1V58.2a2.1,2.1,0,0,0,2.1,2.1H25.683a1.116,1.116,0,0,1,.893.447l2.457,3.276,2.457-3.276a1.115,1.115,0,0,1,.893-.447h9.065a2.1,2.1,0,0,0,2.1-2.1V44.535a2.1,2.1,0,0,0-2.1-2.1Z"/>
            <path id="Path_1281166" data-name="Path 1281166" d="M64.99,51.367H49.133a1.117,1.117,0,0,1,0-2.233H64.99A2.012,2.012,0,0,0,67,47.124V33.276a2.012,2.012,0,0,0-2.01-2.01H59.183a1.116,1.116,0,0,1-.893-.447l-2.457-3.276L53.376,30.82a1.115,1.115,0,0,1-.893.447H35.51a2.012,2.012,0,0,0-2.01,2.01V36.85a1.117,1.117,0,1,1-2.233,0V33.276a4.248,4.248,0,0,1,4.243-4.243H51.925l3.015-4.02a1.156,1.156,0,0,1,1.786,0l3.015,4.02H64.99a4.248,4.248,0,0,1,4.243,4.243V47.124A4.248,4.248,0,0,1,64.99,51.367Z"/>
            <path id="Path_1281167" data-name="Path 1281167" d="M61.417,37.967H39.083a1.117,1.117,0,0,1,0-2.233H61.417A1.117,1.117,0,0,1,61.417,37.967Z"/>
            <path id="Path_1281168" data-name="Path 1281168" d="M61.417,44.667H50.25a1.117,1.117,0,0,1,0-2.233H61.417A1.117,1.117,0,0,1,61.417,44.667Z"/>
            <path id="Path_1281169" data-name="Path 1281169" d="M3.35,41.685a1.116,1.116,0,0,1-1.117-1.117V5.583A1.116,1.116,0,0,1,3.35,4.467H54.717a1.116,1.116,0,0,1,1.117,1.117V21.362a1.117,1.117,0,1,1-2.233,0V6.7H4.467V40.569A1.116,1.116,0,0,1,3.35,41.685Z"/>
            <path id="Path_1281170" data-name="Path 1281170" d="M54.717,15.633H3.35a1.117,1.117,0,0,1,0-2.233H54.717A1.117,1.117,0,0,1,54.717,15.633Z"/>
            <path id="Path_1281171" data-name="Path 1281171" d="M40.2,26.8a1.116,1.116,0,0,1-1.117-1.117V14.517a1.117,1.117,0,1,1,2.233,0V25.683A1.116,1.116,0,0,1,40.2,26.8Z"/>
            <path id="Path_1281172" data-name="Path 1281172" d="M49.133,20.1H44.667a1.117,1.117,0,0,1,0-2.233h4.467A1.117,1.117,0,0,1,49.133,20.1Z"/>
            <path id="Path_1281173" data-name="Path 1281173" d="M49.133,24.567H44.667a1.117,1.117,0,0,1,0-2.233h4.467A1.117,1.117,0,0,1,49.133,24.567Z"/>
            <path id="Path_1281174" data-name="Path 1281174" d="M18.983,29.033H10.05a1.116,1.116,0,0,1-1.117-1.117V18.983a1.116,1.116,0,0,1,1.117-1.117h8.933A1.116,1.116,0,0,1,20.1,18.983v8.933A1.116,1.116,0,0,1,18.983,29.033ZM11.167,26.8h6.7V20.1h-6.7Z"/>
            <path id="Path_1281175" data-name="Path 1281175" d="M15.186,26.8a1.12,1.12,0,0,1-.986-.591l-1.786-3.35a1.117,1.117,0,0,1,1.972-1.051l1.1,2.064,6.084-5.7A1.117,1.117,0,0,1,23.1,19.8L15.95,26.5A1.114,1.114,0,0,1,15.186,26.8Z"/>
            <path id="Path_1281176" data-name="Path 1281176" d="M34.617,21.217h-6.7a1.117,1.117,0,0,1,0-2.233h6.7A1.117,1.117,0,0,1,34.617,21.217Z"/>
            <path id="Path_1281177" data-name="Path 1281177" d="M34.617,25.683H30.15a1.117,1.117,0,0,1,0-2.233h4.467A1.117,1.117,0,0,1,34.617,25.683Z"/>
            <path id="Path_1281178" data-name="Path 1281178" d="M18.983,37.967a1.116,1.116,0,0,1-1.117-1.117V33.5h-6.7v3.35a1.117,1.117,0,0,1-2.233,0V32.383a1.116,1.116,0,0,1,1.117-1.117h8.933A1.116,1.116,0,0,1,20.1,32.383V36.85A1.116,1.116,0,0,1,18.983,37.967Z"/>
          </g>
        </g>
      </g>
    </g>
  </g>
</svg>
