<svg xmlns="http://www.w3.org/2000/svg" xmlns:xlink="http://www.w3.org/1999/xlink" width="79.83" height="77.054" viewBox="0 0 79.83 77.054">
  <defs>
    <clipPath id="clip-path">
      <rect id="Rectangle_410685" data-name="Rectangle 410685" width="67" height="67" transform="translate(769.051 1898)" fill="#fff" stroke="#707070" stroke-width="1"/>
    </clipPath>
  </defs>
  <g id="Group_1209443" data-name="Group 1209443" transform="translate(-756.221 -1887.946)">
    <g id="Rectangle_410684" data-name="Rectangle 410684" transform="translate(756.221 1887.946)" fill="#e2dbf9" stroke="#b7a8f1" stroke-width="3">
      <rect width="70" height="70" rx="10" stroke="none"/>
      <rect x="1.5" y="1.5" width="67" height="67" rx="8.5" fill="none"/>
    </g>
    <g id="Mask_Group_1099312" data-name="Mask Group 1099312" clip-path="url(#clip-path)">
      <g id="bubble-chat_7538467" transform="translate(767.978 1896.957)">
        <path id="Path_1280656" data-name="Path 1280656" d="M2.16,20.52a18.434,18.434,0,1,1,8.886,15.694L2.16,38.88l2.754-8.723A18.243,18.243,0,0,1,2.16,20.52Z" fill="#ff786e"/>
        <path id="Path_1280657" data-name="Path 1280657" d="M11.046,36.214A18.338,18.338,0,0,0,34.53,8.674,18.34,18.34,0,0,0,7.074,32.316L5.3,37.938Z" fill="#ff5050"/>
        <circle id="Ellipse_12610" data-name="Ellipse 12610" cx="14.04" cy="14.04" r="14.04" transform="translate(6.48 6.48)" fill="#f5faff"/>
        <path id="Path_1280658" data-name="Path 1280658" d="M66.959,45.359A21.689,21.689,0,1,0,56.5,63.827l10.454,3.132L63.719,56.7A21.468,21.468,0,0,0,66.959,45.359Z" fill="#f5faff"/>
        <path id="Path_1280659" data-name="Path 1280659" d="M66.959,45.359a21.492,21.492,0,0,0-5.3-14.141A21.578,21.578,0,0,0,31.218,61.661,21.457,21.457,0,0,0,56.5,63.821l10.454,3.138L63.719,56.7A21.468,21.468,0,0,0,66.959,45.359Z" fill="#e6f0ff"/>
        <circle id="Ellipse_12611" data-name="Ellipse 12611" cx="12.96" cy="12.96" r="12.96" transform="translate(32.4 32.4)" fill="#64dcff"/>
        <path id="Path_1280660" data-name="Path 1280660" d="M47.519,34.56A12.947,12.947,0,0,0,37.347,55.532,12.947,12.947,0,0,0,55.532,37.347a12.884,12.884,0,0,0-8.012-2.787Z" fill="#82f0ff"/>
        <path id="Path_1280661" data-name="Path 1280661" d="M45.359,28.08a17.28,17.28,0,1,0,17.28,17.28A17.28,17.28,0,0,0,45.359,28.08Zm0,30.24a12.96,12.96,0,1,1,12.96-12.96A12.96,12.96,0,0,1,45.359,58.319Z" fill="#5a6978"/>
        <path id="Path_1280662" data-name="Path 1280662" d="M58.607,34.272A17.273,17.273,0,0,0,34.272,58.607,17.273,17.273,0,0,0,58.607,34.272ZM45.359,58.319a12.96,12.96,0,1,1,12.96-12.96A12.96,12.96,0,0,1,45.359,58.319Z" fill="#4a5660"/>
        <path id="Path_1280663" data-name="Path 1280663" d="M28.08,14.04H12.96a1.08,1.08,0,1,0,0,2.16H28.08a1.08,1.08,0,0,0,0-2.16Z"/>
        <path id="Path_1280664" data-name="Path 1280664" d="M28.08,19.44H12.96a1.08,1.08,0,1,0,0,2.16H28.08a1.08,1.08,0,0,0,0-2.16Z"/>
        <path id="Path_1280665" data-name="Path 1280665" d="M28.08,24.84H12.96a1.08,1.08,0,1,0,0,2.16H28.08a1.08,1.08,0,0,0,0-2.16Z"/>
        <path id="Path_1280666" data-name="Path 1280666" d="M67.99,66.635l-3.093-9.8A22.612,22.612,0,0,0,39.721,23.418a18.892,18.892,0,0,0,.239-2.9A19.44,19.44,0,1,0,3.738,30.3l-2.607,8.26a1.08,1.08,0,0,0,1.339,1.36l8.435-2.53a19.021,19.021,0,0,0,12.513,2.34A22.621,22.621,0,0,0,56.647,65l10,3a1.08,1.08,0,0,0,1.34-1.362ZM20.52,37.8a17.179,17.179,0,0,1-8.913-2.509,1.08,1.08,0,0,0-.87-.108L3.8,37.26,5.94,30.483a1.08,1.08,0,0,0-.108-.894A17.272,17.272,0,1,1,37.8,20.52a17.082,17.082,0,0,1-.413,3.634,22.668,22.668,0,0,0-2.539,1.16,15.161,15.161,0,1,0-9.534,9.534,22.564,22.564,0,0,0-1.16,2.539,17.1,17.1,0,0,1-3.634.413ZM33.48,20.52A12.9,12.9,0,0,1,31.4,27.551,22.774,22.774,0,0,0,27.55,31.4,12.953,12.953,0,1,1,33.48,20.52ZM56.814,62.788a1.088,1.088,0,0,0-.864.108,20.529,20.529,0,1,1,6.856-6.77,1.08,1.08,0,0,0-.108.893l2.625,8.316Z"/>
        <path id="Path_1280667" data-name="Path 1280667" d="M45.359,27a18.36,18.36,0,1,0,18.36,18.36A18.36,18.36,0,0,0,45.359,27Zm0,34.56a16.2,16.2,0,1,1,16.2-16.2,16.2,16.2,0,0,1-16.2,16.2Z"/>
        <path id="Path_1280668" data-name="Path 1280668" d="M45.359,31.32A14.04,14.04,0,1,0,59.4,45.359a14.04,14.04,0,0,0-14.04-14.04Zm9.124,21.636-.724-.724a1.08,1.08,0,1,0-1.527,1.527l.724.723a11.822,11.822,0,0,1-6.517,2.7V56.159a1.08,1.08,0,0,0-2.16,0v1.025a11.822,11.822,0,0,1-6.517-2.7l.724-.724a1.08,1.08,0,1,0-1.527-1.527l-.723.724a11.822,11.822,0,0,1-2.7-6.518H34.56a1.08,1.08,0,0,0,0-2.16H33.535a11.822,11.822,0,0,1,2.7-6.517l.724.724a1.08,1.08,0,1,0,1.527-1.527l-.724-.723a11.822,11.822,0,0,1,6.518-2.7V34.56a1.08,1.08,0,1,0,2.16,0V33.535a11.822,11.822,0,0,1,6.517,2.7l-.724.724a1.08,1.08,0,1,0,1.527,1.527l.723-.724a11.822,11.822,0,0,1,2.7,6.518H56.159a1.08,1.08,0,1,0,0,2.16h1.025a11.822,11.822,0,0,1-2.7,6.517Z"/>
        <path id="Path_1280669" data-name="Path 1280669" d="M49.679,44.279h-3.24v-5.4a1.08,1.08,0,0,0-2.16,0v6.48a1.08,1.08,0,0,0,1.08,1.08h4.32a1.08,1.08,0,0,0,0-2.16Z"/>
      </g>
    </g>
  </g>
</svg>
