<svg xmlns="http://www.w3.org/2000/svg" xmlns:xlink="http://www.w3.org/1999/xlink" width="79.83" height="77.054" viewBox="0 0 79.83 77.054">
  <defs>
    <clipPath id="clip-path">
      <rect id="Rectangle_410685" data-name="Rectangle 410685" width="67" height="67" transform="translate(769.051 1898)" fill="#fff" stroke="#707070" stroke-width="1"/>
    </clipPath>
  </defs>
  <g id="Group_1209454" data-name="Group 1209454" transform="translate(-756.221 -1887.946)">
    <g id="Rectangle_410684" data-name="Rectangle 410684" transform="translate(756.221 1887.946)" fill="#e2dbf9" stroke="#b7a8f1" stroke-width="3">
      <rect width="70" height="70" rx="10" stroke="none"/>
      <rect x="1.5" y="1.5" width="67" height="67" rx="8.5" fill="none"/>
    </g>
    <g id="Mask_Group_1099328" data-name="Mask Group 1099328" clip-path="url(#clip-path)">
      <g id="texting_8131440" transform="translate(769.051 1898.943)">
        <path id="Path_1281051" data-name="Path 1281051" d="M18.563,22.885H50.639a1.935,1.935,0,0,0,1.935-1.935V8.578a1.935,1.935,0,0,0-1.935-1.935H18.563a1.935,1.935,0,0,0-1.935,1.935V20.95A1.935,1.935,0,0,0,18.563,22.885Z" fill="#05e39c"/>
        <path id="Path_1281052" data-name="Path 1281052" d="M50.639,6.643H45.156a1.935,1.935,0,0,1,1.935,1.935V20.95a1.935,1.935,0,0,1-1.935,1.935h5.483a1.935,1.935,0,0,0,1.935-1.935V8.578A1.935,1.935,0,0,0,50.639,6.643Z" fill="#0ed290"/>
        <path id="Path_1281053" data-name="Path 1281053" d="M22.965,6.643h-4.4a1.935,1.935,0,0,0-1.935,1.935V20.95a1.935,1.935,0,0,0,1.935,1.935H50.639a1.935,1.935,0,0,0,1.935-1.935V8.578a1.935,1.935,0,0,0-1.935-1.935H27.481" fill="none" stroke="#000" stroke-linecap="round" stroke-linejoin="round" stroke-miterlimit="10" stroke-width="1.935"/>
        <g id="Group_1210015" data-name="Group 1210015">
          <line id="Line_715" data-name="Line 715" x2="1.935" transform="translate(37.673 10.82)" fill="none" stroke="#000" stroke-linecap="round" stroke-linejoin="round" stroke-miterlimit="10" stroke-width="1.935"/>
          <line id="Line_716" data-name="Line 716" x2="3.742" transform="translate(21.288 14.764)" fill="none" stroke="#000" stroke-linecap="round" stroke-linejoin="round" stroke-miterlimit="10" stroke-width="1.935"/>
          <line id="Line_717" data-name="Line 717" x2="11.096" transform="translate(28.513 14.764)" fill="none" stroke="#000" stroke-linecap="round" stroke-linejoin="round" stroke-miterlimit="10" stroke-width="1.935"/>
          <line id="Line_718" data-name="Line 718" x2="14.098" transform="translate(21.288 18.708)" fill="none" stroke="#000" stroke-linecap="round" stroke-linejoin="round" stroke-miterlimit="10" stroke-width="1.935"/>
        </g>
        <line id="Line_719" data-name="Line 719" x2="13.16" transform="translate(21.288 10.82)" fill="none" stroke="#000" stroke-linecap="round" stroke-linejoin="round" stroke-miterlimit="10" stroke-width="1.935"/>
        <g id="Group_1210019" data-name="Group 1210019">
          <circle id="Ellipse_12624" data-name="Ellipse 12624" cx="9.12" cy="9.12" r="9.12" transform="translate(42.666 1.912) rotate(-5.653)" fill="#d8ecfe"/>
          <path id="Path_1281054" data-name="Path 1281054" d="M52.641.968a9.139,9.139,0,0,0-2.174.263,9.12,9.12,0,0,1,0,17.714A9.12,9.12,0,1,0,52.641.968Z" fill="#c4e2ff"/>
          <path id="Path_1281055" data-name="Path 1281055" d="M55.066,13.923a4.525,4.525,0,0,1-4.85,0,6.966,6.966,0,0,0-3.58,3.025,9.11,9.11,0,0,0,12.011,0A6.965,6.965,0,0,0,55.066,13.923Z" fill="#fff"/>
          <path id="Path_1281056" data-name="Path 1281056" d="M58.647,16.947a6.964,6.964,0,0,0-3.581-3.024,4.525,4.525,0,0,1-4.85,0,6.966,6.966,0,0,0-3.58,3.025" fill="none" stroke="#000" stroke-linecap="round" stroke-linejoin="round" stroke-miterlimit="10" stroke-width="1.935"/>
          <circle id="Ellipse_12625" data-name="Ellipse 12625" cx="9.12" cy="9.12" r="9.12" transform="translate(42.666 1.912) rotate(-5.653)" fill="none" stroke="#000" stroke-linecap="round" stroke-linejoin="round" stroke-miterlimit="10" stroke-width="1.935"/>
          <g id="Group_1210018" data-name="Group 1210018">
            <circle id="Ellipse_12626" data-name="Ellipse 12626" cx="4.674" cy="4.674" r="4.674" transform="translate(46.33 8.119) rotate(-27.672)" fill="#ffcebf"/>
            <g id="Group_1210017" data-name="Group 1210017">
              <g id="Group_1210016" data-name="Group 1210016">
                <line id="Line_720" data-name="Line 720" y1="0.393" transform="translate(51.295 9.493)" fill="none" stroke="#000" stroke-linecap="round" stroke-linejoin="round" stroke-miterlimit="10" stroke-width="1.935"/>
                <line id="Line_721" data-name="Line 721" y2="0.393" transform="translate(53.987 9.493)" fill="none" stroke="#000" stroke-linecap="round" stroke-linejoin="round" stroke-miterlimit="10" stroke-width="1.935"/>
              </g>
            </g>
          </g>
        </g>
        <g id="Group_1210051" data-name="Group 1210051">
          <path id="Path_1281057" data-name="Path 1281057" d="M28.465,46.741H12.7a8.4,8.4,0,0,0-8.4,8.4v8.6A1.351,1.351,0,0,0,5.647,65.09H35.514a1.351,1.351,0,0,0,1.351-1.351v-8.6A8.4,8.4,0,0,0,28.465,46.741Z" fill="#9857bd"/>
          <path id="Path_1281058" data-name="Path 1281058" d="M5.072,51.615A8.363,8.363,0,0,0,4.3,55.14v8.6A1.351,1.351,0,0,0,5.647,65.09H35.514a1.351,1.351,0,0,0,1.351-1.351v-8.6a8.4,8.4,0,0,0-8.4-8.4H12.7a8.36,8.36,0,0,0-4.685,1.427" fill="none" stroke="#000" stroke-linecap="round" stroke-linejoin="round" stroke-miterlimit="10" stroke-width="1.935"/>
          <g id="Group_1210028" data-name="Group 1210028">
            <path id="Path_1281059" data-name="Path 1281059" d="M20.58,15.74h0A12.376,12.376,0,0,0,8.2,28.116V41.35a1.873,1.873,0,0,0,1.873,1.873h21a1.873,1.873,0,0,0,1.873-1.873V28.116A12.376,12.376,0,0,0,20.58,15.74Z" fill="#fe7d43"/>
            <path id="Path_1281060" data-name="Path 1281060" d="M20.58,15.74h0a12.412,12.412,0,0,0-2.738.3,12.38,12.38,0,0,1,9.638,12.071V41.35a1.873,1.873,0,0,1-1.873,1.873h5.475a1.873,1.873,0,0,0,1.873-1.873V28.116A12.376,12.376,0,0,0,20.58,15.74Z" fill="#fd6930"/>
            <path id="Path_1281061" data-name="Path 1281061" d="M20.58,15.74h0A12.376,12.376,0,0,0,8.2,28.116V41.35a1.873,1.873,0,0,0,1.873,1.873h21a1.873,1.873,0,0,0,1.873-1.873V28.116A12.376,12.376,0,0,0,20.58,15.74Z" fill="none" stroke="#000" stroke-linecap="round" stroke-linejoin="round" stroke-miterlimit="10" stroke-width="1.935"/>
            <g id="Group_1210025" data-name="Group 1210025">
              <g id="Group_1210020" data-name="Group 1210020">
                <path id="Path_1281062" data-name="Path 1281062" d="M29.228,51.443v5.083a2.158,2.158,0,0,1-2.156,2.156H25.994l3.7,6.408h5.82a1.35,1.35,0,0,0,1.186-.7Z" fill="#bd80e1"/>
              </g>
              <path id="Path_1281063" data-name="Path 1281063" d="M29.228,51.443v5.083a2.152,2.152,0,0,1-.061.5l4.249,7.359a1.35,1.35,0,0,1-1.186.7h3.284a1.35,1.35,0,0,0,1.186-.7Z" fill="#af66da"/>
              <g id="Group_1210021" data-name="Group 1210021">
                <path id="Path_1281064" data-name="Path 1281064" d="M29.228,51.443v5.083a2.158,2.158,0,0,1-2.156,2.156H25.994l3.7,6.408h5.82a1.35,1.35,0,0,0,1.186-.7Z" fill="none" stroke="#000" stroke-linecap="round" stroke-linejoin="round" stroke-miterlimit="10" stroke-width="1.935"/>
              </g>
              <g id="Group_1210022" data-name="Group 1210022">
                <path id="Path_1281065" data-name="Path 1281065" d="M14.089,58.681a2.158,2.158,0,0,1-2.156-2.156V51.443L4.461,64.385a1.35,1.35,0,0,0,1.186.7h5.82l3.7-6.408H14.089Z" fill="#bd80e1"/>
              </g>
              <g id="Group_1210023" data-name="Group 1210023">
                <path id="Path_1281066" data-name="Path 1281066" d="M12.4,57.863,8.17,65.09h3.3l3.7-6.408H14.089A2.151,2.151,0,0,1,12.4,57.863Z" fill="#af66da"/>
              </g>
              <g id="Group_1210024" data-name="Group 1210024">
                <path id="Path_1281067" data-name="Path 1281067" d="M14.089,58.681a2.158,2.158,0,0,1-2.156-2.156V51.443L4.461,64.385a1.35,1.35,0,0,0,1.186.7h5.82l3.7-6.408H14.089Z" fill="none" stroke="#000" stroke-linecap="round" stroke-linejoin="round" stroke-miterlimit="10" stroke-width="1.935"/>
              </g>
            </g>
            <path id="Path_1281068" data-name="Path 1281068" d="M30.976,37.319H10.185A2.888,2.888,0,0,1,7.3,34.431V33.265a2.888,2.888,0,0,1,2.888-2.888h20.79a2.888,2.888,0,0,1,2.888,2.888v1.166A2.887,2.887,0,0,1,30.976,37.319Z" fill="#f89580"/>
            <path id="Path_1281069" data-name="Path 1281069" d="M30.976,37.319H10.185A2.888,2.888,0,0,1,7.3,34.431V33.265a2.888,2.888,0,0,1,2.888-2.888h20.79a2.888,2.888,0,0,1,2.888,2.888v1.166A2.887,2.887,0,0,1,30.976,37.319Z" fill="none" stroke="#000" stroke-linecap="round" stroke-linejoin="round" stroke-miterlimit="10" stroke-width="1.935"/>
            <path id="Path_1281070" data-name="Path 1281070" d="M25.01,27.721l-2.216-3.778L20.58,27.721H13.9a1.954,1.954,0,0,0-1.954,1.954v7.086A8.637,8.637,0,0,0,20.58,45.4h0a8.637,8.637,0,0,0,8.637-8.637V29.675a1.954,1.954,0,0,0-1.954-1.954Z" fill="#ffcebf"/>
            <g id="Group_1210026" data-name="Group 1210026">
              <path id="Path_1281071" data-name="Path 1281071" d="M27.263,27.721H25.98a1.944,1.944,0,0,1,.169.792v8.136A8.635,8.635,0,0,1,21.4,44.361a8.579,8.579,0,0,1-2.46.878,8.635,8.635,0,0,0,10.279-8.479V29.675A1.954,1.954,0,0,0,27.263,27.721Z" fill="#ffb09e"/>
            </g>
            <path id="Path_1281072" data-name="Path 1281072" d="M25.01,27.721l-2.216-3.778L20.58,27.721H13.9a1.954,1.954,0,0,0-1.954,1.954v7.086A8.637,8.637,0,0,0,20.58,45.4h0a8.637,8.637,0,0,0,8.637-8.637V29.675a1.954,1.954,0,0,0-1.954-1.954Z" fill="none" stroke="#000" stroke-linecap="round" stroke-linejoin="round" stroke-miterlimit="10" stroke-width="1.935"/>
            <g id="Group_1210027" data-name="Group 1210027">
              <line id="Line_722" data-name="Line 722" y2="1.55" transform="translate(24.344 32.33)" fill="none" stroke="#000" stroke-linecap="round" stroke-linejoin="round" stroke-miterlimit="10" stroke-width="1.935"/>
              <line id="Line_723" data-name="Line 723" y2="1.55" transform="translate(16.816 32.33)" fill="none" stroke="#000" stroke-linecap="round" stroke-linejoin="round" stroke-miterlimit="10" stroke-width="1.935"/>
            </g>
            <path id="Path_1281073" data-name="Path 1281073" d="M20.864,36.244a.912.912,0,1,1,0-1.824" fill="none" stroke="#000" stroke-linecap="round" stroke-linejoin="round" stroke-miterlimit="10" stroke-width="1.935"/>
            <path id="Path_1281074" data-name="Path 1281074" d="M16.811,38.113c0,1.746,1.687,3.161,3.769,3.161h0c2.082,0,3.769-1.415,3.769-3.161" fill="none" stroke="#000" stroke-linecap="round" stroke-linejoin="round" stroke-miterlimit="10" stroke-width="1.935"/>
          </g>
          <path id="Path_1281075" data-name="Path 1281075" d="M24.228,58.268H16.933a1.756,1.756,0,0,1-1.756-1.756V42.732a1.756,1.756,0,0,1,1.756-1.756h7.295a1.756,1.756,0,0,1,1.756,1.756V56.511A1.756,1.756,0,0,1,24.228,58.268Z" fill="#685e68"/>
          <path id="Path_1281076" data-name="Path 1281076" d="M24.228,40.976H20.951a1.756,1.756,0,0,1,1.756,1.756V56.511a1.756,1.756,0,0,1-1.756,1.756h3.277a1.756,1.756,0,0,0,1.756-1.756V42.732A1.756,1.756,0,0,0,24.228,40.976Z" fill="#554e56"/>
          <path id="Path_1281077" data-name="Path 1281077" d="M24.228,58.268H16.933a1.756,1.756,0,0,1-1.756-1.756V42.732a1.756,1.756,0,0,1,1.756-1.756h7.295a1.756,1.756,0,0,1,1.756,1.756V56.511A1.756,1.756,0,0,1,24.228,58.268Z" fill="none" stroke="#000" stroke-linecap="round" stroke-linejoin="round" stroke-miterlimit="10" stroke-width="1.935"/>
          <g id="Group_1210039" data-name="Group 1210039">
            <g id="Group_1210033" data-name="Group 1210033">
              <g id="Group_1210032" data-name="Group 1210032">
                <g id="Group_1210031" data-name="Group 1210031">
                  <g id="Group_1210030" data-name="Group 1210030">
                    <g id="Group_1210029" data-name="Group 1210029">
                      <path id="Path_1281078" data-name="Path 1281078" d="M17.915,54.9a1.341,1.341,0,0,1-.968,1.288,1.341,1.341,0,0,1,.968,1.311,1.371,1.371,0,0,1-1.386,1.318h-2.44A2.291,2.291,0,0,1,11.8,56.526V50.7a2.291,2.291,0,0,1,2.291-2.291h2.44a1.371,1.371,0,0,1,1.386,1.318,1.341,1.341,0,0,1-.968,1.311,1.341,1.341,0,0,1,0,2.576A1.341,1.341,0,0,1,17.915,54.9Z" fill="#ffcebf"/>
                    </g>
                  </g>
                </g>
              </g>
            </g>
            <g id="Group_1210038" data-name="Group 1210038">
              <g id="Group_1210037" data-name="Group 1210037">
                <g id="Group_1210036" data-name="Group 1210036">
                  <g id="Group_1210035" data-name="Group 1210035">
                    <g id="Group_1210034" data-name="Group 1210034">
                      <path id="Path_1281079" data-name="Path 1281079" d="M23.246,54.9a1.341,1.341,0,0,0,.968,1.288,1.341,1.341,0,0,0-.968,1.311,1.371,1.371,0,0,0,1.386,1.318h2.44a2.291,2.291,0,0,0,2.291-2.291V50.7a2.291,2.291,0,0,0-2.291-2.291h-2.44a1.371,1.371,0,0,0-1.386,1.318,1.341,1.341,0,0,0,.968,1.311,1.341,1.341,0,0,0,0,2.576A1.341,1.341,0,0,0,23.246,54.9Z" fill="#ffcebf"/>
                    </g>
                  </g>
                </g>
              </g>
            </g>
          </g>
          <g id="Group_1210050" data-name="Group 1210050">
            <g id="Group_1210044" data-name="Group 1210044">
              <g id="Group_1210043" data-name="Group 1210043">
                <g id="Group_1210042" data-name="Group 1210042">
                  <g id="Group_1210041" data-name="Group 1210041">
                    <g id="Group_1210040" data-name="Group 1210040">
                      <path id="Path_1281080" data-name="Path 1281080" d="M17.915,54.9a1.341,1.341,0,0,1-.968,1.288,1.341,1.341,0,0,1,.968,1.311,1.371,1.371,0,0,1-1.386,1.318h-2.44A2.291,2.291,0,0,1,11.8,56.526V50.7a2.291,2.291,0,0,1,2.291-2.291h2.44a1.371,1.371,0,0,1,1.386,1.318,1.341,1.341,0,0,1-.968,1.311,1.341,1.341,0,0,1,0,2.576A1.341,1.341,0,0,1,17.915,54.9Z" fill="none" stroke="#000" stroke-linecap="round" stroke-linejoin="round" stroke-miterlimit="10" stroke-width="1.935"/>
                    </g>
                  </g>
                </g>
              </g>
            </g>
            <g id="Group_1210049" data-name="Group 1210049">
              <g id="Group_1210048" data-name="Group 1210048">
                <g id="Group_1210047" data-name="Group 1210047">
                  <g id="Group_1210046" data-name="Group 1210046">
                    <g id="Group_1210045" data-name="Group 1210045">
                      <path id="Path_1281081" data-name="Path 1281081" d="M23.246,54.9a1.341,1.341,0,0,0,.968,1.288,1.341,1.341,0,0,0-.968,1.311,1.371,1.371,0,0,0,1.386,1.318h2.44a2.291,2.291,0,0,0,2.291-2.291V50.7a2.291,2.291,0,0,0-2.291-2.291h-2.44a1.371,1.371,0,0,0-1.386,1.318,1.341,1.341,0,0,0,.968,1.311,1.341,1.341,0,0,0,0,2.576A1.341,1.341,0,0,0,23.246,54.9Z" fill="none" stroke="#000" stroke-linecap="round" stroke-linejoin="round" stroke-miterlimit="10" stroke-width="1.935"/>
                    </g>
                  </g>
                </g>
              </g>
            </g>
          </g>
        </g>
        <g id="Group_1210057" data-name="Group 1210057">
          <g id="Group_1210055" data-name="Group 1210055">
            <circle id="Ellipse_12627" data-name="Ellipse 12627" cx="9.12" cy="9.12" r="9.12" transform="translate(42.665 32.372) rotate(-5.653)" fill="#ffface"/>
            <path id="Path_1281082" data-name="Path 1281082" d="M52.641,31.429a9.139,9.139,0,0,0-2.174.263,9.12,9.12,0,0,1,0,17.714,9.12,9.12,0,1,0,2.174-17.977Z" fill="#fff0ad"/>
            <path id="Path_1281083" data-name="Path 1281083" d="M55.066,44.384a4.525,4.525,0,0,1-4.85,0,6.966,6.966,0,0,0-3.58,3.025,9.11,9.11,0,0,0,12.011,0A6.965,6.965,0,0,0,55.066,44.384Z" fill="#fff"/>
            <path id="Path_1281084" data-name="Path 1281084" d="M58.647,47.408a6.964,6.964,0,0,0-3.581-3.024,4.525,4.525,0,0,1-4.85,0,6.966,6.966,0,0,0-3.58,3.025" fill="none" stroke="#000" stroke-linecap="round" stroke-linejoin="round" stroke-miterlimit="10" stroke-width="1.935"/>
            <path id="Path_1281085" data-name="Path 1281085" d="M43.962,43.35a9.122,9.122,0,1,0-.277-4.516" fill="none" stroke="#000" stroke-linecap="round" stroke-linejoin="round" stroke-miterlimit="10" stroke-width="1.935"/>
            <g id="Group_1210054" data-name="Group 1210054">
              <circle id="Ellipse_12628" data-name="Ellipse 12628" cx="4.674" cy="4.674" r="4.674" transform="translate(46.33 38.579) rotate(-27.672)" fill="#ffcebf"/>
              <path id="Path_1281086" data-name="Path 1281086" d="M52.641,35.874a4.664,4.664,0,0,0-1.628.292,4.676,4.676,0,0,1,0,8.765,4.675,4.675,0,1,0,1.628-9.057Z" fill="#ffb09e"/>
              <circle id="Ellipse_12629" data-name="Ellipse 12629" cx="4.674" cy="4.674" r="4.674" transform="translate(46.33 8.119) rotate(-27.672)" fill="none" stroke="#000" stroke-linecap="round" stroke-linejoin="round" stroke-miterlimit="10" stroke-width="1.935"/>
              <circle id="Ellipse_12630" data-name="Ellipse 12630" cx="4.674" cy="4.674" r="4.674" transform="translate(46.33 38.579) rotate(-27.672)" fill="none" stroke="#000" stroke-linecap="round" stroke-linejoin="round" stroke-miterlimit="10" stroke-width="1.935"/>
              <g id="Group_1210053" data-name="Group 1210053">
                <g id="Group_1210052" data-name="Group 1210052">
                  <line id="Line_724" data-name="Line 724" y1="0.393" transform="translate(51.295 39.953)" fill="none" stroke="#000" stroke-linecap="round" stroke-linejoin="round" stroke-miterlimit="10" stroke-width="1.935"/>
                  <line id="Line_725" data-name="Line 725" y2="0.393" transform="translate(53.987 39.953)" fill="none" stroke="#000" stroke-linecap="round" stroke-linejoin="round" stroke-miterlimit="10" stroke-width="1.935"/>
                </g>
              </g>
            </g>
          </g>
          <g id="Group_1210056" data-name="Group 1210056">
            <path id="Path_1281087" data-name="Path 1281087" d="M37.663,28.9v7.475a.645.645,0,0,0,.645.645H50.066a.645.645,0,0,0,.645-.645V28.9a.645.645,0,0,0-.645-.645H38.308A.645.645,0,0,0,37.663,28.9Z" fill="#ffe177"/>
            <path id="Path_1281088" data-name="Path 1281088" d="M44.6,33.362l5.9-4.934a.641.641,0,0,0-.437-.174H38.308a.641.641,0,0,0-.437.174l5.9,4.934A.645.645,0,0,0,44.6,33.362Z" fill="#ffd15b"/>
            <path id="Path_1281089" data-name="Path 1281089" d="M37.663,28.9v7.475a.645.645,0,0,0,.645.645H50.066a.645.645,0,0,0,.645-.645V28.9a.645.645,0,0,0-.645-.645H38.308A.645.645,0,0,0,37.663,28.9Z" fill="none" stroke="#000" stroke-linecap="round" stroke-linejoin="round" stroke-miterlimit="10" stroke-width="1.935"/>
            <path id="Path_1281090" data-name="Path 1281090" d="M37.871,28.429l5.9,4.934a.645.645,0,0,0,.827,0l5.9-4.934" fill="none" stroke="#000" stroke-linecap="round" stroke-linejoin="round" stroke-miterlimit="10" stroke-width="1.935"/>
          </g>
        </g>
      </g>
    </g>
  </g>
</svg>
