<svg xmlns="http://www.w3.org/2000/svg" xmlns:xlink="http://www.w3.org/1999/xlink" width="79.83" height="77.054" viewBox="0 0 79.83 77.054">
  <defs>
    <clipPath id="clip-path">
      <rect id="Rectangle_410685" data-name="Rectangle 410685" width="67" height="67" transform="translate(769.051 1898)" fill="#fff" stroke="#707070" stroke-width="1"/>
    </clipPath>
  </defs>
  <g id="Group_1209453" data-name="Group 1209453" transform="translate(-756.221 -1887.946)">
    <g id="Rectangle_410684" data-name="Rectangle 410684" transform="translate(756.221 1887.946)" fill="#e2dbf9" stroke="#b7a8f1" stroke-width="3">
      <rect width="70" height="70" rx="10" stroke="none"/>
      <rect x="1.5" y="1.5" width="67" height="67" rx="8.5" fill="none"/>
    </g>
    <g id="Mask_Group_1099329" data-name="Mask Group 1099329" clip-path="url(#clip-path)">
      <g id="problem-solving_5866082" transform="translate(769.051 1898)">
        <g id="Group_1210072" data-name="Group 1210072">
          <g id="Group_1210058" data-name="Group 1210058">
            <path id="Path_1281091" data-name="Path 1281091" d="M34.581,30.258l2.161,11.887H30.258l2.161-11.887Z" fill="#b4dd7f"/>
          </g>
          <g id="Group_1210059" data-name="Group 1210059">
            <path id="Path_1281092" data-name="Path 1281092" d="M36.125,24.855l-1.544,5.4H32.419l-1.544-5.4Z" fill="#a0d468"/>
          </g>
          <g id="Group_1210060" data-name="Group 1210060">
            <path id="Path_1281093" data-name="Path 1281093" d="M44.306,33.5v8.645H36.742L34.581,30.258l1.544-5.4h.617v-.473a1.486,1.486,0,0,1,2.537-1.051l.334.335,1.9-1.9,2.684.9a10.27,10.27,0,0,1,5.307,4.054,10.261,10.261,0,0,0,1.283,1.566v9.006A14.755,14.755,0,0,1,44.306,33.5Z" fill="#ff826e"/>
          </g>
          <g id="Group_1210061" data-name="Group 1210061">
            <path id="Path_1281094" data-name="Path 1281094" d="M22.694,33.5a14.758,14.758,0,0,1-10.435,4.323H9.726V31.339l1.224-.244a10.286,10.286,0,0,0,6.543-4.382A10.27,10.27,0,0,1,22.8,22.658l2.684-.9,1.9,1.9.334-.335a1.486,1.486,0,0,1,2.537,1.051v.473h.617l1.544,5.4L30.258,42.145H22.694Z" fill="#ff826e"/>
          </g>
          <g id="Group_1210062" data-name="Group 1210062">
            <path id="Path_1281095" data-name="Path 1281095" d="M45.387,9.726V16.21h-.473a1.486,1.486,0,0,0-1.051,2.537l.335.334-2.683,2.683-1.9,1.9-.334-.335a1.486,1.486,0,0,0-2.537,1.051v.473H30.258v-.473a1.486,1.486,0,0,0-2.537-1.051l-.334.335-1.9-1.9L22.8,19.08l.335-.334a1.486,1.486,0,0,0-1.051-2.537h-.473V9.726h.473a1.486,1.486,0,0,0,1.051-2.537L22.8,6.855l4.586-4.586.334.335a1.486,1.486,0,0,0,2.537-1.051V1.081h6.484v.473A1.486,1.486,0,0,0,39.279,2.6l.334-.335L44.2,6.855l-.335.334a1.486,1.486,0,0,0,1.051,2.537Zm-4.323,3.242A7.565,7.565,0,1,0,33.5,20.532,7.564,7.564,0,0,0,41.065,12.968Z" fill="#ffc729"/>
          </g>
          <g id="Group_1210063" data-name="Group 1210063">
            <path id="Path_1281096" data-name="Path 1281096" d="M33.5,5.4a7.565,7.565,0,1,1-7.565,7.565A7.564,7.564,0,0,1,33.5,5.4Zm3.242,7.565A3.242,3.242,0,1,0,33.5,16.21,3.243,3.243,0,0,0,36.742,12.968Z" fill="#fcd770"/>
          </g>
          <g id="Group_1210064" data-name="Group 1210064">
            <path id="Path_1281097" data-name="Path 1281097" d="M46.9,61.6l-.247,2.469A2.058,2.058,0,0,1,44.6,65.919H22.4a2.058,2.058,0,0,1-2.048-1.853L20.1,61.6Z" fill="#aab2bd"/>
          </g>
          <g id="Group_1210065" data-name="Group 1210065">
            <path id="Path_1281098" data-name="Path 1281098" d="M48.629,44.2c0,.069,0,.136-.011.205L46.9,61.6H20.1L18.382,44.409c-.007-.069-.011-.136-.011-.205a2.057,2.057,0,0,1,2.059-2.059H46.57A2.058,2.058,0,0,1,48.629,44.2Z" fill="#ccd1d9"/>
          </g>
          <g id="Group_1210066" data-name="Group 1210066">
            <path id="Path_1281099" data-name="Path 1281099" d="M9.726,42.145v1.081a3.242,3.242,0,0,1-6.484,0V42.145Z" fill="#ccd1d9"/>
          </g>
          <g id="Group_1210067" data-name="Group 1210067">
            <path id="Path_1281100" data-name="Path 1281100" d="M9.726,26.955v.061H3.242v-.061A4.331,4.331,0,0,1,3.7,25.022l2.785-5.571,2.785,5.571A4.332,4.332,0,0,1,9.726,26.955Z" fill="#ccd1d9"/>
          </g>
          <g id="Group_1210068" data-name="Group 1210068">
            <path id="Path_1281101" data-name="Path 1281101" d="M9.726,37.823v4.323H3.242V37.638A3.245,3.245,0,0,0,5.4,34.581V32.419a3.245,3.245,0,0,0-2.161-3.057V27.016H9.726V37.823Z" fill="#b4dd7f"/>
          </g>
          <g id="Group_1210069" data-name="Group 1210069">
            <path id="Path_1281102" data-name="Path 1281102" d="M50.79,28.278v-4.5a1.08,1.08,0,0,1,1.081-1.081h8.645A1.08,1.08,0,0,1,61.6,23.774V38.9a1.08,1.08,0,0,1-1.081,1.081H51.871A1.08,1.08,0,0,1,50.79,38.9V28.278Z" fill="#e6e9ed"/>
          </g>
          <g id="Group_1210070" data-name="Group 1210070">
            <path id="Path_1281103" data-name="Path 1281103" d="M65.919,30.258v6.484a1.08,1.08,0,0,1-1.081,1.081A3.243,3.243,0,0,1,61.6,34.581V32.419a3.243,3.243,0,0,1,3.242-3.242,1.079,1.079,0,0,1,1.081,1.081Z" fill="#f0d0b4"/>
          </g>
          <g id="Group_1210071" data-name="Group 1210071">
            <path id="Path_1281104" data-name="Path 1281104" d="M5.4,32.419v2.161a3.241,3.241,0,0,1-3.242,3.242,1.08,1.08,0,0,1-1.081-1.081V30.258a1.079,1.079,0,0,1,1.081-1.081A3.241,3.241,0,0,1,5.4,32.419Z" fill="#f0d0b4"/>
          </g>
        </g>
        <g id="Group_1210073" data-name="Group 1210073">
          <path id="Path_1281105" data-name="Path 1281105" d="M32.419,45.387h2.161v8.645H32.419Z"/>
          <path id="Path_1281106" data-name="Path 1281106" d="M32.419,56.194h2.161v2.161H32.419Z"/>
          <path id="Path_1281107" data-name="Path 1281107" d="M33.5,17.29a4.323,4.323,0,1,0-4.323-4.323A4.327,4.327,0,0,0,33.5,17.29Zm0-6.484a2.161,2.161,0,1,1-2.161,2.161A2.164,2.164,0,0,1,33.5,10.806Z"/>
          <path id="Path_1281108" data-name="Path 1281108" d="M33.5,21.613a8.645,8.645,0,1,0-8.645-8.645A8.655,8.655,0,0,0,33.5,21.613Zm0-15.129a6.484,6.484,0,1,1-6.484,6.484A6.491,6.491,0,0,1,33.5,6.484Z"/>
          <path id="Path_1281109" data-name="Path 1281109" d="M54.032,25.935h4.323V28.1H54.032Z"/>
          <path id="Path_1281110" data-name="Path 1281110" d="M54.032,30.258h4.323v2.161H54.032Z"/>
          <path id="Path_1281111" data-name="Path 1281111" d="M54.032,34.581h4.323v2.161H54.032Z"/>
          <path id="Path_1281112" data-name="Path 1281112" d="M64.839,28.1a4.3,4.3,0,0,0-2.161.582v-4.9a2.164,2.164,0,0,0-2.161-2.161H51.871a2.164,2.164,0,0,0-2.161,2.161v1.407a11.431,11.431,0,0,0-5.169-3.548l-1.025-.342,2.21-2.21-1.1-1.1a.405.405,0,0,1,.287-.692h1.554V8.645H44.914a.405.405,0,0,1-.287-.692l1.1-1.1L39.613.742l-1.1,1.1a.405.405,0,0,1-.692-.286V0H29.177V1.554a.405.405,0,0,1-.692.286l-1.1-1.1L21.274,6.855l1.1,1.1a.405.405,0,0,1-.287.692H20.532V17.29h1.554a.405.405,0,0,1,.287.692l-1.1,1.1,2.21,2.21-1.025.342a11.425,11.425,0,0,0-5.865,4.48,9.146,9.146,0,0,1-5.788,3.906V26.956a5.431,5.431,0,0,0-.57-2.416l-3.752-7.5-3.752,7.5a5.43,5.43,0,0,0-.57,2.416V28.1A2.164,2.164,0,0,0,0,30.258v6.484A2.164,2.164,0,0,0,2.161,38.9v4.323a4.323,4.323,0,1,0,8.645,0V38.9h1.451a15.72,15.72,0,0,0,9.355-3.055v5.216H20.43A3.143,3.143,0,0,0,17.29,44.2c0,.1.005.209.016.312l1.966,19.657A3.13,3.13,0,0,0,22.4,67H44.6a3.13,3.13,0,0,0,3.124-2.827l1.966-19.657c.01-.1.016-.209.016-.312a3.143,3.143,0,0,0-3.139-3.139H45.387V35.843A15.885,15.885,0,0,0,49.71,38.08V38.9a2.164,2.164,0,0,0,2.161,2.161h8.645A2.164,2.164,0,0,0,62.677,38.9v-.582a4.3,4.3,0,0,0,2.161.582A2.164,2.164,0,0,0,67,36.742V30.258A2.164,2.164,0,0,0,64.839,28.1ZM22.694,10.734a2.568,2.568,0,0,0,1.586-3.828l3.159-3.159a2.568,2.568,0,0,0,3.828-1.586h4.467a2.568,2.568,0,0,0,3.828,1.586L42.72,6.906a2.568,2.568,0,0,0,1.586,3.828V15.2A2.568,2.568,0,0,0,42.72,19.03l-3.159,3.159a2.569,2.569,0,0,0-3.829,1.586H31.266a2.569,2.569,0,0,0-3.829-1.586L24.279,19.03A2.568,2.568,0,0,0,22.693,15.2V10.734Zm10.628,20.6h.358l1.768,9.726H31.553Zm.444-2.161h-.531l-.926-3.242h2.383ZM6.484,21.868,8.3,25.506a3.218,3.218,0,0,1,.176.429H4.489a3.208,3.208,0,0,1,.176-.429Zm-4.323,8.39a2.164,2.164,0,0,1,2.161,2.161v2.161a2.164,2.164,0,0,1-2.161,2.161Zm4.323,4.323V32.419a4.324,4.324,0,0,0-2.161-3.741V28.1H8.645V41.065H4.323V38.322A4.324,4.324,0,0,0,6.484,34.581Zm0,10.806a2.164,2.164,0,0,1-2.161-2.161H8.645A2.164,2.164,0,0,1,6.484,45.387ZM23.01,27.333a4.739,4.739,0,0,0-1.4,3.373v2.336a13.581,13.581,0,0,1-9.355,3.7H10.806V32.225l.355-.071a11.3,11.3,0,0,0,7.231-4.842,9.251,9.251,0,0,1,4.75-3.628L25.193,23l2.194,2.194,1.1-1.1a.405.405,0,0,1,.692.287v1.554h.883l1.251,4.377L29.356,41.065H23.774V30.706a2.591,2.591,0,0,1,.764-1.845ZM44.6,64.839H22.4a.975.975,0,0,1-.973-.881l-.128-1.281H45.706l-.128,1.281A.975.975,0,0,1,44.6,64.839ZM47.548,44.2c0,.032,0,.065,0,.1L45.922,60.516H21.078L19.456,44.3c0-.032,0-.065,0-.1a.979.979,0,0,1,.978-.978H46.57A.979.979,0,0,1,47.548,44.2ZM45.387,33.042V30.706a4.739,4.739,0,0,0-1.4-3.373l-1.528,1.528a2.591,2.591,0,0,1,.764,1.845V41.065H37.644L35.689,30.313l1.25-4.377h.883V24.382a.405.405,0,0,1,.692-.287l1.1,1.1L41.807,23l2.05.683a9.253,9.253,0,0,1,4.75,3.628,11.387,11.387,0,0,0,1.1,1.4V35.78A13.708,13.708,0,0,1,45.387,33.042ZM60.516,38.9H51.871V23.774h8.645v8.614c0,.01,0,.021,0,.031v2.161c0,.013,0,.026,0,.039V38.9h0Zm4.323-2.161a2.164,2.164,0,0,1-2.161-2.161V32.419a2.164,2.164,0,0,1,2.161-2.161v6.484Z"/>
        </g>
      </g>
    </g>
  </g>
</svg>
