<svg xmlns="http://www.w3.org/2000/svg" xmlns:xlink="http://www.w3.org/1999/xlink" width="79.83" height="77.054" viewBox="0 0 79.83 77.054">
  <defs>
    <clipPath id="clip-path">
      <rect id="Rectangle_410685" data-name="Rectangle 410685" width="67" height="67" transform="translate(769.051 1898)" fill="#fff" stroke="#707070" stroke-width="1"/>
    </clipPath>
  </defs>
  <g id="Group_1203565" data-name="Group 1203565" transform="translate(-756.221 -1887.946)">
    <g id="Rectangle_410684" data-name="Rectangle 410684" transform="translate(756.221 1887.946)" fill="#e2dbf9" stroke="#b7a8f1" stroke-width="3">
      <rect width="70" height="70" rx="10" stroke="none"/>
      <rect x="1.5" y="1.5" width="67" height="67" rx="8.5" fill="none"/>
    </g>
    <g id="Mask_Group_1099314" data-name="Mask Group 1099314" clip-path="url(#clip-path)">
      <g id="checklist_9759933" transform="translate(767.972 1896.921)">
        <g id="Group_1209987" data-name="Group 1209987">
          <g id="Group_1209984" data-name="Group 1209984">
            <path id="Path_1280710" data-name="Path 1280710" d="M56.387,7.337A2.723,2.723,0,0,1,59.1,10.055V60.064a2.723,2.723,0,0,1-2.718,2.718H14.532a2.723,2.723,0,0,1-2.718-2.718V10.055a2.723,2.723,0,0,1,2.718-2.718Z" fill="#837683" fill-rule="evenodd"/>
            <path id="Path_1280711" data-name="Path 1280711" d="M52.88,62.782h3.507A2.723,2.723,0,0,0,59.1,60.064V10.055a2.723,2.723,0,0,0-2.718-2.718H52.88Z" fill="#685e68" fill-rule="evenodd"/>
            <path id="Path_1280712" data-name="Path 1280712" d="M54.1,11.118H16.817a1.224,1.224,0,0,0-1.222,1.222V57.778A1.224,1.224,0,0,0,16.817,59H54.1a1.224,1.224,0,0,0,1.222-1.222V12.34A1.224,1.224,0,0,0,54.1,11.118Z" fill="#eceff1" fill-rule="evenodd"/>
            <path id="Path_1280713" data-name="Path 1280713" d="M52.88,59H54.1q.058,0,.114-.005a1.225,1.225,0,0,0,1.108-1.217V12.34a1.225,1.225,0,0,0-1.108-1.217q-.056-.005-.114-.005H52.88Z" fill="#d1d1d6" fill-rule="evenodd"/>
            <path id="Path_1280714" data-name="Path 1280714" d="M26.218,5.694h3.874a1.2,1.2,0,0,0,1.122-.739,4.622,4.622,0,0,1,8.49,0,1.2,1.2,0,0,0,1.122.739H44.7a1.225,1.225,0,0,1,1.222,1.222v4.622A1.225,1.225,0,0,1,44.7,12.761H26.218A1.225,1.225,0,0,1,25,11.539V6.916a1.224,1.224,0,0,1,1.222-1.222Z" fill="#e3a76f" fill-rule="evenodd"/>
            <path id="Path_1280715" data-name="Path 1280715" d="M43.479,11.538H25a1.225,1.225,0,0,0,1.222,1.222H44.7a1.225,1.225,0,0,0,1.222-1.222V6.916A1.225,1.225,0,0,0,44.7,5.694v4.622a1.224,1.224,0,0,1-1.222,1.222Z" fill="#c48958" fill-rule="evenodd"/>
            <circle id="Ellipse_12616" data-name="Ellipse 12616" cx="1.405" cy="1.405" r="1.405" transform="translate(33.843 4.792) rotate(-9.208)" fill="#eceff1"/>
            <path id="Path_1280716" data-name="Path 1280716" d="M21.715,44.33h6.844a.9.9,0,0,1,.893.893v6.844a.9.9,0,0,1-.893.893H21.715a.9.9,0,0,1-.893-.893V45.224A.9.9,0,0,1,21.715,44.33Z" fill="#8ac9fe" fill-rule="evenodd"/>
            <path id="Path_1280717" data-name="Path 1280717" d="M28.1,44.33h.457a.9.9,0,0,1,.893.893v6.844a.9.9,0,0,1-.893.893H21.716a.9.9,0,0,1-.893-.893V51.61h6.386a.9.9,0,0,0,.893-.893V44.33Z" fill="#41a8fc" fill-rule="evenodd"/>
            <path id="Path_1280718" data-name="Path 1280718" d="M21.715,30.744h6.844a.9.9,0,0,1,.893.893v6.844a.9.9,0,0,1-.893.893H21.715a.9.9,0,0,1-.893-.893V31.638a.9.9,0,0,1,.893-.893Z" fill="#fe646f" fill-rule="evenodd"/>
            <path id="Path_1280719" data-name="Path 1280719" d="M28.1,30.744h.457a.9.9,0,0,1,.893.893v6.844a.9.9,0,0,1-.893.893H21.716a.9.9,0,0,1-.893-.893v-.457h6.386a.9.9,0,0,0,.893-.893V30.744Z" fill="#fd4755" fill-rule="evenodd"/>
            <path id="Path_1280720" data-name="Path 1280720" d="M21.715,17.159h6.844a.9.9,0,0,1,.893.893V24.9a.9.9,0,0,1-.893.893H21.715a.9.9,0,0,1-.893-.893V18.052A.9.9,0,0,1,21.715,17.159Z" fill="#8ac9fe" fill-rule="evenodd"/>
            <path id="Path_1280721" data-name="Path 1280721" d="M28.1,17.159h.457a.9.9,0,0,1,.893.893V24.9a.9.9,0,0,1-.893.893H21.716a.9.9,0,0,1-.893-.893v-.457h6.386a.9.9,0,0,0,.893-.893V17.159Z" fill="#60b7ff" fill-rule="evenodd"/>
          </g>
          <g id="Group_1209985" data-name="Group 1209985">
            <path id="Path_1280722" data-name="Path 1280722" d="M53.4,39.36a12.86,12.86,0,0,1,3.765,1.561l2.447-1.087L62.5,42.718l-1.086,2.446-7.232-1.532-1.2,1.666L50.111,48.86l.664,3-2.734,3.8,6.487-2.57-.638-3.529,1.634-2.116,7.446,1.478,2.5.961v4.078l-2.5.961A12.86,12.86,0,0,1,61.409,58.7L62.5,61.142l-2.884,2.884L57.166,62.94A12.863,12.863,0,0,1,53.4,64.5L52.438,67H48.361L47.4,64.5a12.861,12.861,0,0,1-3.765-1.561l-2.447,1.087L38.3,61.142,39.39,58.7a12.863,12.863,0,0,1-1.561-3.766l-2.5-.961V49.891l2.5-.961a12.855,12.855,0,0,1,1.561-3.766L38.3,42.718l2.884-2.884,2.447,1.087A12.861,12.861,0,0,1,47.4,39.36l.961-2.5h4.078Z" fill="#ffe177" fill-rule="evenodd"/>
            <path id="Path_1280723" data-name="Path 1280723" d="M58.764,40.211l.848-.377L62.5,42.718l-1.086,2.446-1.119-.237.981-2.209Zm-3.4,7.452.163-.211,7.446,1.478,2.5.961v4.078l-2.5.961A12.86,12.86,0,0,1,61.409,58.7L62.5,61.142l-2.884,2.884-.848-.377,2.507-2.507L60.184,58.7a12.86,12.86,0,0,0,1.561-3.765l2.5-.961V49.891l-2.5-.961Zm-1.185-4.031-1.2,1.666-2.861,3.563.664,3-2.15,3.088-1.809.717,3.131-3.843-.778-2.965,3.945-5.454ZM57.166,62.94l-.7-.309a16.956,16.956,0,0,1-4.3,1.87L51.214,67h1.225l.961-2.5a12.858,12.858,0,0,0,3.766-1.561Zm-13.532,0-2.447,1.087-.377-.377L43.1,62.631Q43.366,62.791,43.634,62.939ZM40.811,40.211l.377-.377,2.447,1.087q-.268.148-.529.309ZM53.4,39.36a12.86,12.86,0,0,1,3.765,1.561l-.7.309a16.965,16.965,0,0,0-4.295-1.87l-.961-2.5h1.225Z" fill="#ffd064" fill-rule="evenodd"/>
            <path id="Path_1280724" data-name="Path 1280724" d="M50.4,44.818A7.111,7.111,0,1,0,56,47.547l-.476-.095-1.634,2.116.638,3.529-6.487,2.57,3.131-3.843-.778-2.965L52.972,45.3a7.1,7.1,0,0,0-2.572-.48Z" fill="#837683" fill-rule="evenodd"/>
            <path id="Path_1280725" data-name="Path 1280725" d="M50.4,44.818a7.112,7.112,0,1,0,0,14.224c.228,0,.453-.011.675-.032a7.112,7.112,0,0,1,0-14.16q-.335-.032-.678-.032Zm5.986,3.269-1.144,1.481.638,3.529-6.487,2.57.644-.79,4.493-1.78-.638-3.529,1.634-2.116.476.095q.2.261.384.54Z" fill="#685e68" fill-rule="evenodd"/>
          </g>
          <g id="Group_1209986" data-name="Group 1209986">
            <path id="Path_1280726" data-name="Path 1280726" d="M2.16,49.278V21.631A2.726,2.726,0,0,1,4.881,18.91H5.969a2.726,2.726,0,0,1,2.721,2.721V49.278L5.425,54.934Z" fill="#e3a76f" fill-rule="evenodd"/>
            <path id="Path_1280727" data-name="Path 1280727" d="M4.495,18.937a2.717,2.717,0,0,1,.386-.028H5.969a2.726,2.726,0,0,1,2.721,2.721V49.278L5.425,54.934l-.93-1.611L6.83,49.278V21.631a2.728,2.728,0,0,0-2.335-2.694Z" fill="#c48958" fill-rule="evenodd"/>
            <path id="Path_1280728" data-name="Path 1280728" d="M5.425,54.934,2.16,49.278H8.69Z" fill="#837683" fill-rule="evenodd"/>
            <path id="Path_1280729" data-name="Path 1280729" d="M5.425,54.934l-.93-1.611L6.83,49.278H8.69Z" fill="#685e68" fill-rule="evenodd"/>
            <path id="Path_1280730" data-name="Path 1280730" d="M2.16,23.916V21.631A2.726,2.726,0,0,1,4.881,18.91H5.969a2.727,2.727,0,0,1,2.721,2.721v2.285H2.16Z" fill="#837683" fill-rule="evenodd"/>
            <path id="Path_1280731" data-name="Path 1280731" d="M4.495,18.937a2.717,2.717,0,0,1,.386-.028H5.969A2.727,2.727,0,0,1,8.69,21.631v2.285H6.83V21.631a2.728,2.728,0,0,0-2.335-2.694Z" fill="#685e68" fill-rule="evenodd"/>
          </g>
        </g>
        <path id="Path_1280732" data-name="Path 1280732" d="M62.393,39.516a1.069,1.069,0,0,0,.763-.316l1.558-1.552a1.082,1.082,0,1,0-1.532-1.528l-1.551,1.552a1.08,1.08,0,0,0,.763,1.844Zm2.289,2.725a1.074,1.074,0,0,1,0-1.529l1.551-1.551a1.08,1.08,0,0,1,1.526,1.528L66.208,42.24a1.079,1.079,0,0,1-1.526,0Zm1.551,2.138L64.682,45.93a1.08,1.08,0,1,0,1.526,1.528l1.551-1.552a1.08,1.08,0,0,0-1.526-1.528ZM64.39,50.633v2.595l-1.806.694a1.078,1.078,0,0,0-.668.759,11.737,11.737,0,0,1-1.424,3.448,1.065,1.065,0,0,0-.07,1.005L61.2,60.9l-1.831,1.834-1.767-.785a1.081,1.081,0,0,0-1,.067,11.81,11.81,0,0,1-3.452,1.43,1.083,1.083,0,0,0-.757.663l-.693,1.8H49.106l-.7-1.8a1.073,1.073,0,0,0-.757-.663A11.666,11.666,0,0,1,44.2,62.02a1.081,1.081,0,0,0-1-.067l-1.774.785L39.594,60.9l.782-1.767a1.085,1.085,0,0,0-.064-1.006,11.567,11.567,0,0,1-1.431-3.45,1.079,1.079,0,0,0-.668-.758l-1.8-.694V50.633l1.806-.694a1.084,1.084,0,0,0,.661-.758,11.618,11.618,0,0,1,1.431-3.45,1.082,1.082,0,0,0,.064-1l-.782-1.769,1.831-1.834,1.774.785a1.077,1.077,0,0,0,1-.068,11.731,11.731,0,0,1,3.446-1.429,1.072,1.072,0,0,0,.757-.663l.7-1.805H51.7l.693,1.805a1.084,1.084,0,0,0,.757.663A11.841,11.841,0,0,1,56.6,41.84a1.076,1.076,0,0,0,1,.068l1.767-.785L61.2,42.957l-.426.967L54.4,42.574A1.081,1.081,0,0,0,53.3,43l-.744,1.028a8.193,8.193,0,1,0,6.033,7.9,8.082,8.082,0,0,0-.515-2.871l4.6.912ZM14.532,61.7h22.85a1.083,1.083,0,0,1-.064-1l.273-.623H15.6A1.08,1.08,0,0,1,14.519,59V11.119A1.08,1.08,0,0,1,15.6,10.038h8.316V8.418H14.532A1.636,1.636,0,0,0,12.9,10.055V60.064A1.637,1.637,0,0,0,14.532,61.7ZM25,13.842a1.08,1.08,0,0,1-1.081-1.081V12.2H16.675V57.92h21.07a13.366,13.366,0,0,1-.82-2.18l-1.977-.762a1.078,1.078,0,0,1-.693-1.009V49.891a1.075,1.075,0,0,1,.693-1.008l1.977-.762c.083-.289.172-.575.273-.858H34.909a1.081,1.081,0,1,1,0-2.161h3.268V45.1l-.858-1.94a1.072,1.072,0,0,1,.222-1.2l2.886-2.884a1.077,1.077,0,0,1,1.2-.223l1.939.861A13.869,13.869,0,0,1,46.1,38.6h-11.2a1.081,1.081,0,0,1,0-2.162H47.37a1.083,1.083,0,0,1,.992-.658h4.075a1.078,1.078,0,0,1,1.011.692l.763,1.979a.2.2,0,0,1,.032.01V12.2H47.008v.562a1.084,1.084,0,0,1-1.081,1.081Zm1.081-2.162V6.775h4.889a1.087,1.087,0,0,0,1.055-.827,3.539,3.539,0,0,1,6.879,0,1.08,1.08,0,0,0,1.049.827h4.9v4.905Zm20.93-3.262v1.619h8.316A1.08,1.08,0,0,1,56.4,11.119V39.281c.28.133.559.275.833.428l.788-.352v-29.3a1.642,1.642,0,0,0-1.64-1.637Zm1.43,48.255A1.081,1.081,0,0,1,47.2,54.985l2.785-3.417-.636-2.434a1.072,1.072,0,0,1,.165-.908l1.647-2.279a5.954,5.954,0,0,0-.763-.05,6.015,6.015,0,1,0,5.283,3.117l-.648.834.553,3.057a1.077,1.077,0,0,1-.661,1.2Zm18.107-6.782v4.078a1.082,1.082,0,0,1-.687,1.009l-1.984.762a13.8,13.8,0,0,1-1.253,3.024l.865,1.94a1.083,1.083,0,0,1-.229,1.2l-2.88,2.884a1.08,1.08,0,0,1-1.2.224l-1.939-.861a13.885,13.885,0,0,1-3.026,1.254l-.763,1.979a1.079,1.079,0,0,1-1.011.691H48.362a1.091,1.091,0,0,1-1.011-.691l-.763-1.98a13.893,13.893,0,0,1-3.02-1.253l-1.939.862a1.078,1.078,0,0,1-1.2-.224l-.928-.928H14.532a3.8,3.8,0,0,1-3.8-3.8V10.055a3.8,3.8,0,0,1,3.8-3.8h9.384V5.695A1.08,1.08,0,0,1,25,4.614h5.188a5.7,5.7,0,0,1,10.548,0h5.194a1.084,1.084,0,0,1,1.081,1.08v.563h9.378a3.8,3.8,0,0,1,3.8,3.8V38.922a1.214,1.214,0,0,1,.191.148l2.88,2.884a1.085,1.085,0,0,1,.229,1.2L62.4,45.6a1.085,1.085,0,0,1-1.214.619l-6.542-1.387-3.071,4.247.648,2.471a1.1,1.1,0,0,1-.21.956l-.509.628,1.806-.717-.477-2.658a1.077,1.077,0,0,1,.2-.853l1.634-2.115a1.088,1.088,0,0,1,1.068-.4l7.445,1.478a1.044,1.044,0,0,1,.178.051l2.5.962a1.078,1.078,0,0,1,.687,1.008ZM6.82,50.357H4.035l1.392,2.413ZM7.608,48.2V24.369H3.241V48.2ZM3.241,21.632v.576H7.609v-.576a1.639,1.639,0,0,0-1.64-1.64H4.881A1.644,1.644,0,0,0,3.241,21.632Zm6.529,0V49.277a1.011,1.011,0,0,1-.146.54L6.362,55.472a1.078,1.078,0,0,1-1.869,0L1.225,49.817a1.072,1.072,0,0,1-.146-.54V21.632a3.809,3.809,0,0,1,3.8-3.8H5.968a3.8,3.8,0,0,1,3.8,3.8ZM22.988,37.206a1.084,1.084,0,0,1,0-1.528l.623-.619-.623-.619a1.082,1.082,0,0,1,1.532-1.528l.617.619.623-.619a1.08,1.08,0,0,1,1.526,1.528l-.617.619.617.619a1.081,1.081,0,0,1-.763,1.844,1.067,1.067,0,0,1-.763-.317l-.623-.619-.617.619A1.086,1.086,0,0,1,22.988,37.206Zm1.068,13.526-1.5-1.5A1.08,1.08,0,0,1,24.082,47.7l.655.651,1.386-1.713A1.08,1.08,0,1,1,27.8,48l-2.143,2.646a1.077,1.077,0,0,1-.782.4h-.057a1.08,1.08,0,0,1-.763-.316ZM34.909,25.016a1.081,1.081,0,1,1,0-2.161H50.1a1.081,1.081,0,1,1,0,2.161Zm0-4.923a1.081,1.081,0,1,1,0-2.161H50.1a1.081,1.081,0,1,1,0,2.161Zm-7.267-.782a1.086,1.086,0,0,1,.159,1.52l-2.143,2.647a1.076,1.076,0,0,1-.782.4h-.057a1.079,1.079,0,0,1-.763-.316l-1.5-1.5a1.08,1.08,0,0,1,1.526-1.528l.655.652,1.386-1.713a1.079,1.079,0,0,1,1.519-.161Zm-5.741,5.4V18.239h6.472v6.469Zm-.184-8.63h6.841a1.976,1.976,0,0,1,1.977,1.974V24.9a1.975,1.975,0,0,1-1.977,1.973H21.716A1.979,1.979,0,0,1,19.739,24.9V18.052a1.98,1.98,0,0,1,1.977-1.974Zm13.192,17.6a1.081,1.081,0,1,1,0-2.161H50.1a1.081,1.081,0,1,1,0,2.161Zm-6.536-1.853v6.469H21.9V31.825Zm2.162-.187v6.843a1.976,1.976,0,0,1-1.977,1.974H21.717a1.98,1.98,0,0,1-1.977-1.974V31.638a1.98,1.98,0,0,1,1.977-1.974h6.841a1.976,1.976,0,0,1,1.977,1.974ZM28.373,45.411v6.468H21.9V45.411Zm2.162-.188v6.844a1.975,1.975,0,0,1-1.977,1.973H21.717a1.979,1.979,0,0,1-1.977-1.973V45.223a1.98,1.98,0,0,1,1.977-1.973h6.841A1.976,1.976,0,0,1,30.535,45.223ZM36.683,5.95a1.221,1.221,0,1,0-1.221,1.222A1.223,1.223,0,0,0,36.683,5.95Z" fill-rule="evenodd"/>
      </g>
    </g>
  </g>
</svg>
