<svg xmlns="http://www.w3.org/2000/svg" xmlns:xlink="http://www.w3.org/1999/xlink" width="79.83" height="77.054" viewBox="0 0 79.83 77.054">
  <defs>
    <clipPath id="clip-path">
      <rect id="Rectangle_410685" data-name="Rectangle 410685" width="67" height="67" transform="translate(769.051 1898)" fill="#fff" stroke="#707070" stroke-width="1"/>
    </clipPath>
  </defs>
  <g id="Group_1203566" data-name="Group 1203566" transform="translate(-756.221 -1887.946)">
    <g id="Rectangle_410684" data-name="Rectangle 410684" transform="translate(756.221 1887.946)" fill="#e2dbf9" stroke="#b7a8f1" stroke-width="3">
      <rect width="70" height="70" rx="10" stroke="none"/>
      <rect x="1.5" y="1.5" width="67" height="67" rx="8.5" fill="none"/>
    </g>
    <g id="Mask_Group_1099315" data-name="Mask Group 1099315" clip-path="url(#clip-path)">
      <g id="FLAT" transform="translate(766.817 1895.767)">
        <g id="Group_1209989" data-name="Group 1209989">
          <g id="Group_1209988" data-name="Group 1209988">
            <path id="Path_1280733" data-name="Path 1280733" d="M67,46.342V65.325a2.24,2.24,0,0,1-2.233,2.233H45.783a2.24,2.24,0,0,1-2.233-2.233V46.342a2.24,2.24,0,0,1,2.233-2.233H64.767A2.24,2.24,0,0,1,67,46.342Z" fill="#e3f6ff"/>
            <path id="Path_1280734" data-name="Path 1280734" d="M64.767,67.558H49.022V49.58H67V65.325A2.24,2.24,0,0,1,64.767,67.558Z" fill="#fff"/>
            <path id="Path_1280735" data-name="Path 1280735" d="M35.733,49.692H18.983a2.24,2.24,0,0,1-2.233-2.233V25.125a2.24,2.24,0,0,1,2.233-2.233h16.75Z" fill="#8dcbe6"/>
            <path id="Path_1280736" data-name="Path 1280736" d="M51.367,25.125V44.108H45.783a2.24,2.24,0,0,0-2.233,2.233v3.35H35.733v-26.8h13.4A2.24,2.24,0,0,1,51.367,25.125Z" fill="#fff"/>
            <path id="Path_1280737" data-name="Path 1280737" d="M40.2,27.358h5.583v5.583H40.2Z" fill="#8dcbe6"/>
          </g>
          <path id="Path_1280738" data-name="Path 1280738" d="M64.767,42.992H45.783a3.29,3.29,0,0,0-3.35,3.35V65.325a3.29,3.29,0,0,0,3.35,3.35H64.767a3.29,3.29,0,0,0,3.35-3.35V46.342A3.29,3.29,0,0,0,64.767,42.992Zm-20.1,22.333V46.342a1.055,1.055,0,0,1,1.117-1.117H64.767a1.055,1.055,0,0,1,1.117,1.117v2.122H49.022a1.055,1.055,0,0,0-1.117,1.117V66.442H45.783A1.055,1.055,0,0,1,44.667,65.325Zm21.217,0a1.055,1.055,0,0,1-1.117,1.117H50.138V50.7H65.883Z"/>
          <path id="Path_1280739" data-name="Path 1280739" d="M51.367,40.758a1.055,1.055,0,0,0,1.117-1.117V25.125a3.29,3.29,0,0,0-3.35-3.35H18.983a3.29,3.29,0,0,0-3.35,3.35V47.458a3.29,3.29,0,0,0,3.35,3.35h20.1a1.117,1.117,0,1,0,0-2.233H36.85V24.008H49.133a1.055,1.055,0,0,1,1.117,1.117V39.642A1.055,1.055,0,0,0,51.367,40.758Zm-33.5,6.7V25.125a1.055,1.055,0,0,1,1.117-1.117H34.617V48.575H18.983A1.055,1.055,0,0,1,17.867,47.458Z"/>
          <path id="Path_1280740" data-name="Path 1280740" d="M46.9,32.942V27.358a1.055,1.055,0,0,0-1.117-1.117H40.2a1.055,1.055,0,0,0-1.117,1.117v5.583A1.055,1.055,0,0,0,40.2,34.058h5.583A1.055,1.055,0,0,0,46.9,32.942Zm-2.233-1.117h-3.35v-3.35h3.35Z"/>
          <path id="Path_1280741" data-name="Path 1280741" d="M24.567,38.525H22.333a1.117,1.117,0,1,0,0,2.233h2.233a1.117,1.117,0,1,0,0-2.233Z"/>
          <path id="Path_1280742" data-name="Path 1280742" d="M24.567,42.992H22.333a1.117,1.117,0,1,0,0,2.233h2.233a1.117,1.117,0,1,0,0-2.233Z"/>
          <path id="Path_1280743" data-name="Path 1280743" d="M56.168,61.64a1.079,1.079,0,0,0,1.563,0l5.583-5.583a1.105,1.105,0,0,0-1.563-1.563l-4.8,4.8-2.01-2.01a1.105,1.105,0,0,0-1.563,1.563Z"/>
          <path id="Path_1280744" data-name="Path 1280744" d="M67.335,28.81l-2.68,2.68A31.264,31.264,0,1,0,33.5,65.325a34.078,34.078,0,0,0,5.807-.558,1.158,1.158,0,0,0,.893-1.34,1.08,1.08,0,0,0-1.34-.893,29.115,29.115,0,0,1-5.36.558A29.033,29.033,0,1,1,62.422,31.267L59.965,28.81A1.105,1.105,0,0,0,58.4,30.373l4.467,4.467c.112.112.223.223.335.223a.949.949,0,0,0,.893,0c.112-.112.223-.112.335-.223L68.9,30.373a1.105,1.105,0,0,0-1.563-1.563Z"/>
        </g>
      </g>
    </g>
  </g>
</svg>
