<svg xmlns="http://www.w3.org/2000/svg" xmlns:xlink="http://www.w3.org/1999/xlink" width="79.83" height="77.054" viewBox="0 0 79.83 77.054">
  <defs>
    <clipPath id="clip-path">
      <rect id="Rectangle_410685" data-name="Rectangle 410685" width="67" height="67" transform="translate(769.051 1898)" fill="#fff" stroke="#707070" stroke-width="1"/>
    </clipPath>
  </defs>
  <g id="Group_1203567" data-name="Group 1203567" transform="translate(-756.221 -1887.946)">
    <g id="Group_1209991" data-name="Group 1209991">
      <g id="Rectangle_410684" data-name="Rectangle 410684" transform="translate(756.221 1887.946)" fill="#e2dbf9" stroke="#b7a8f1" stroke-width="3">
        <rect width="70" height="70" rx="10" stroke="none"/>
        <rect x="1.5" y="1.5" width="67" height="67" rx="8.5" fill="none"/>
      </g>
      <g id="Mask_Group_1099316" data-name="Mask Group 1099316" clip-path="url(#clip-path)">
        <g id="rating_8961136" transform="translate(769.051 1898)">
          <g id="Group_1209990" data-name="Group 1209990">
            <path id="Path_1280745" data-name="Path 1280745" d="M43.354,36.867c0,8-19.708,8-19.708,0a9.852,9.852,0,0,1,5.392-8.787,9.009,9.009,0,0,1,8.924,0A9.852,9.852,0,0,1,43.354,36.867Z" fill="#fb6276"/>
            <path id="Path_1280746" data-name="Path 1280746" d="M57.774,36.867H19.847C7.091,38.427,5.12,59.646,16.936,61.5H57.774a8.244,8.244,0,0,0,8.245-8.245V45.112A8.245,8.245,0,0,0,57.774,36.867Z" fill="#727beb"/>
            <path id="Path_1280747" data-name="Path 1280747" d="M19.847,36.867H9.226A8.245,8.245,0,0,0,.981,45.112v8.146A8.244,8.244,0,0,0,9.226,61.5h7.71C13.618,54.174,14.911,43.144,19.847,36.867Z" fill="#5a6cd9"/>
            <path id="Path_1280748" data-name="Path 1280748" d="M37.962,28.08a9.852,9.852,0,0,1,5.392,8.787H23.646a9.852,9.852,0,0,1,5.392-8.787" fill="none" stroke="#000" stroke-linecap="round" stroke-linejoin="round" stroke-miterlimit="10" stroke-width="1.963"/>
            <path id="Path_1280749" data-name="Path 1280749" d="M47.3,19.293A13.8,13.8,0,0,0,37.622,6.124c-10.035,0-12.468,6.986-12.468,13.169,0,1.724,3.509,3.109,12.468,3.109C42.9,22.053,47.3,21.017,47.3,19.293Z" fill="#f38054"/>
            <path id="Path_1280750" data-name="Path 1280750" d="M27.949,19.293A13.8,13.8,0,0,1,37.622,6.124,13.806,13.806,0,0,0,19.7,19.293c0,2.6,9.965,3.633,17.918,3.109C32.342,22.053,27.949,21.017,27.949,19.293Z" fill="#e96339"/>
            <path id="Path_1280751" data-name="Path 1280751" d="M24.433,15.43c3.272,0,3.272,7.726,0,7.726a3.942,3.942,0,1,1,0-7.726Z" fill="#ffb09e"/>
            <path id="Path_1280752" data-name="Path 1280752" d="M43.354,15.351a3.942,3.942,0,1,1-.787,7.8c-2.979,0-2.98-7.725,0-7.726A4.033,4.033,0,0,1,43.354,15.351Z" fill="#ffcebf"/>
            <path id="Path_1280753" data-name="Path 1280753" d="M39.863,11.773a.888.888,0,0,0-1.21.074C36.566,14,33.433,15.1,32.4,13.418a.607.607,0,0,0-.227-.215c-7.736,1.1-7.736,16.371,4.775,15.323a9.851,9.851,0,0,0,2.919-16.754Z" fill="#ffdfcf"/>
            <path id="Path_1280754" data-name="Path 1280754" d="M30.478,18.926A10.46,10.46,0,0,1,32.169,13.2a.694.694,0,0,0-.517-.055c-1.679.47-2.963-.112-3.072-1.609a.453.453,0,0,0-.715-.328,9.854,9.854,0,0,0,9.079,17.315A10.215,10.215,0,0,1,30.478,18.926Z" fill="#ffcebf"/>
            <path id="Path_1280755" data-name="Path 1280755" d="M27.093,7.073a13.8,13.8,0,0,1,20.2,12.22" fill="none" stroke="#000" stroke-linecap="round" stroke-linejoin="round" stroke-miterlimit="10" stroke-width="1.963"/>
            <path id="Path_1280756" data-name="Path 1280756" d="M23.446,9.846A13.749,13.749,0,0,0,19.7,19.293" fill="none" stroke="#000" stroke-linecap="round" stroke-linejoin="round" stroke-miterlimit="10" stroke-width="1.963"/>
            <path id="Path_1280757" data-name="Path 1280757" d="M42.567,23.156a3.942,3.942,0,1,0,0-7.726" fill="none" stroke="#000" stroke-linecap="round" stroke-linejoin="round" stroke-miterlimit="10" stroke-width="1.963"/>
            <path id="Path_1280758" data-name="Path 1280758" d="M24.433,23.156a3.942,3.942,0,1,1,0-7.726" fill="none" stroke="#000" stroke-linecap="round" stroke-linejoin="round" stroke-miterlimit="10" stroke-width="1.963"/>
            <path id="Path_1280759" data-name="Path 1280759" d="M39.186,11.248q-.3.361-.64.706c-2.117,2.117-4.768,2.9-5.923,1.742a1.746,1.746,0,0,1-.43-.73c-1.267.5-2.424.477-3.088-.187a2.278,2.278,0,0,1-.482-2.047,9.855,9.855,0,1,0,10.562.516Z" fill="none" stroke="#000" stroke-linecap="round" stroke-linejoin="round" stroke-miterlimit="10" stroke-width="1.963"/>
            <path id="Path_1280760" data-name="Path 1280760" d="M31.336,23.235a2.867,2.867,0,0,0,4.327,0" fill="none" stroke="#000" stroke-linecap="round" stroke-linejoin="round" stroke-miterlimit="10" stroke-width="1.963"/>
            <line id="Line_713" data-name="Line 713" y2="1.577" transform="translate(28.573 17.716)" fill="none" stroke="#000" stroke-linecap="round" stroke-linejoin="round" stroke-miterlimit="10" stroke-width="1.963"/>
            <line id="Line_714" data-name="Line 714" y2="1.577" transform="translate(38.427 17.716)" fill="none" stroke="#000" stroke-linecap="round" stroke-linejoin="round" stroke-miterlimit="10" stroke-width="1.963"/>
            <path id="Path_1280761" data-name="Path 1280761" d="M56.753,46.2A2.015,2.015,0,0,1,57.87,49.64l-.763.744a2.017,2.017,0,0,0-.579,1.783l.18,1.051a2.015,2.015,0,0,1-2.923,2.125l-.943-.5a2.014,2.014,0,0,0-1.875,0l-.943.5A2.015,2.015,0,0,1,47.1,53.217l.18-1.051a2.017,2.017,0,0,0-.579-1.783l-.763-.744A2.015,2.015,0,0,1,47.053,46.2l1.055-.154a2.011,2.011,0,0,0,1.516-1.1l.472-.955a2.015,2.015,0,0,1,3.614,0l.472.955a2.011,2.011,0,0,0,1.518,1.1Z" fill="#fce299"/>
            <path id="Path_1280762" data-name="Path 1280762" d="M38.351,46.2a2.015,2.015,0,0,1,1.117,3.437l-.763.744a2.01,2.01,0,0,0-.579,1.783l.18,1.051a2.015,2.015,0,0,1-2.923,2.125l-.943-.5a2.016,2.016,0,0,0-1.876,0l-.943.5A2.015,2.015,0,0,1,28.7,53.217l.18-1.051a2.01,2.01,0,0,0-.579-1.783l-.763-.744A2.015,2.015,0,0,1,28.649,46.2l1.055-.154a2.013,2.013,0,0,0,1.518-1.1l.472-.955a2.014,2.014,0,0,1,3.613,0l.472.955a2.013,2.013,0,0,0,1.518,1.1Z" fill="#fce299"/>
            <path id="Path_1280763" data-name="Path 1280763" d="M16.978,55.342A2.015,2.015,0,0,0,19.9,53.217l-.18-1.051a2.017,2.017,0,0,1,.579-1.783l.763-.744A2.015,2.015,0,0,0,19.947,46.2l-1.055-.154a2.011,2.011,0,0,1-1.516-1.1,5.276,5.276,0,0,0-.907-1.545c-3.975.478-6.685,9.412-1.261,11.218a2.009,2.009,0,0,1,.827.225Z" fill="#fce299"/>
            <path id="Path_1280764" data-name="Path 1280764" d="M16.469,43.4a2.019,2.019,0,0,0-3.179.589l-.472.955a2.011,2.011,0,0,1-1.518,1.1l-1.054.154A2.015,2.015,0,0,0,9.13,49.64l.763.744a2.017,2.017,0,0,1,.579,1.783l-.18,1.051a2.015,2.015,0,0,0,2.923,2.125l.943-.5a2.01,2.01,0,0,1,1.048-.225A28.547,28.547,0,0,1,16.469,43.4Z" fill="#fdcd64"/>
            <path id="Path_1280765" data-name="Path 1280765" d="M49.595,61.5h8.179a8.244,8.244,0,0,0,8.245-8.245V45.112a8.245,8.245,0,0,0-8.245-8.245H9.226A8.245,8.245,0,0,0,.981,45.112v8.146A8.244,8.244,0,0,0,9.226,61.5H45" fill="none" stroke="#000" stroke-linecap="round" stroke-linejoin="round" stroke-miterlimit="10" stroke-width="1.963"/>
            <path id="Path_1280766" data-name="Path 1280766" d="M53.71,43.991l.472.955a2.011,2.011,0,0,0,1.518,1.1l1.054.154A2.015,2.015,0,0,1,57.87,49.64l-.763.744a2.017,2.017,0,0,0-.579,1.783l.18,1.051a2.015,2.015,0,0,1-2.923,2.125l-.943-.5a2.014,2.014,0,0,0-1.875,0l-.943.5A2.015,2.015,0,0,1,47.1,53.217l.18-1.051a2.017,2.017,0,0,0-.579-1.783l-.763-.744A2.015,2.015,0,0,1,47.052,46.2l1.055-.154a2.011,2.011,0,0,0,1.516-1.1l.472-.955A2.015,2.015,0,0,1,53.71,43.991Z" fill="none" stroke="#000" stroke-linecap="round" stroke-linejoin="round" stroke-miterlimit="10" stroke-width="1.963"/>
            <path id="Path_1280767" data-name="Path 1280767" d="M35.307,43.991l.472.955a2.013,2.013,0,0,0,1.518,1.1l1.055.154a2.015,2.015,0,0,1,1.117,3.437l-.763.744a2.01,2.01,0,0,0-.579,1.783l.18,1.051a2.015,2.015,0,0,1-2.923,2.125l-.943-.5a2.016,2.016,0,0,0-1.876,0l-.943.5A2.015,2.015,0,0,1,28.7,53.217l.18-1.051a2.01,2.01,0,0,0-.579-1.783l-.763-.744A2.015,2.015,0,0,1,28.649,46.2l1.055-.154a2.013,2.013,0,0,0,1.518-1.1l.472-.955A2.014,2.014,0,0,1,35.307,43.991Z" fill="none" stroke="#000" stroke-linecap="round" stroke-linejoin="round" stroke-miterlimit="10" stroke-width="1.963"/>
            <path id="Path_1280768" data-name="Path 1280768" d="M16.9,43.991l.472.955a2.011,2.011,0,0,0,1.516,1.1l1.055.154a2.015,2.015,0,0,1,1.117,3.437l-.763.744a2.017,2.017,0,0,0-.579,1.783l.18,1.051a2.015,2.015,0,0,1-2.923,2.125l-.943-.5a2.014,2.014,0,0,0-1.875,0l-.943.5a2.015,2.015,0,0,1-2.923-2.124l.18-1.051a2.017,2.017,0,0,0-.579-1.783L9.13,49.64A2.015,2.015,0,0,1,10.247,46.2l1.054-.154a2.011,2.011,0,0,0,1.518-1.1l.472-.955A2.015,2.015,0,0,1,16.9,43.991Z" fill="none" stroke="#000" stroke-linecap="round" stroke-linejoin="round" stroke-miterlimit="10" stroke-width="1.963"/>
          </g>
        </g>
      </g>
    </g>
  </g>
</svg>
